<?xml version="1.0" encoding="UTF-8" standalone="yes"?>
<!DOCTYPE svg PUBLIC "-//W3C//DTD SVG 1.1//EN" "http://www.w3.org/Graphics/SVG/1.1/DTD/svg11.dtd">

<svg width="500" height="500" viewBox="0 0 500 500" xmlns="http://www.w3.org/2000/svg" xmlns:xlink="http://www.w3.org/1999/xlink" version="1.1" baseProfile="full">
    <g transform="scale(1,-1) translate(0,-500)">
        <path d="M 172.039695 500.990000 L 186.519854 500.469011 L 200.457177 498.906041 L 213.851667 496.301090 L 226.703326 492.654154 L 239.012157 487.965233 L 250.778162 482.234323 L 262.001343 475.461424 L 272.681703 467.646532 L 282.819244 458.789647 L 292.413968 448.890765 L 301.465879 437.949885 L 309.974977 425.967006 L 317.941267 412.942124 L 325.364750 398.875239 L 332.245428 383.766347 L 338.583304 367.615447 L 341.463779 349.372455 L 342.423932 334.446383 L 342.423932 319.433017 L 341.207381 299.346025 L 337.557719 280.110133 L 331.474938 261.725324 L 322.959029 244.191583 L 312.009982 227.508894 L 298.627788 211.677242 L 282.812438 196.696610 L 264.563922 182.566984 L 264.563922 137.876034 L 263.854722 136.779487 L 261.727120 135.584745 L 253.216697 132.900673 L 239.032632 129.823813 L 219.174906 126.354164 L 162.438380 118.236482 L 83.006948 108.547598 L 79.515468 115.879707 L 79.515468 178.726355 L 61.266954 194.558084 L 45.451604 211.153525 L 32.069411 228.512697 L 21.120364 246.635618 L 12.604455 265.522303 L 6.521674 285.172771 L 2.872012 305.587040 L 1.655460 326.765126 L 1.655460 334.446383 L 2.190088 348.747878 L 3.793973 362.498354 L 6.467117 375.697813 L 10.209523 388.346258 L 15.021191 400.443691 L 20.902125 411.990114 L 27.852326 422.985530 L 35.871796 433.429942 L 44.960537 443.323352 L 55.118552 452.665762 L 66.345841 461.457175 L 78.642408 469.697594 L 92.008253 477.387020 L 106.443380 484.525457 L 121.947790 491.112907 L 138.521485 497.149372 L 153.709414 498.109515 L 172.039695 500.990000 Z M 31.333041 334.446383 L 31.333041 319.433017 L 32.549593 301.735518 L 36.199255 284.605429 L 42.282037 268.042737 L 50.797947 252.047428 L 61.746994 236.619485 L 75.129188 221.758897 L 90.944537 207.465647 L 109.193050 193.739721 L 109.193050 156.730029 L 234.886340 156.730029 L 234.886340 193.739721 L 253.134856 207.465647 L 268.950206 221.758897 L 282.332400 236.619485 L 293.281447 252.047428 L 301.797356 268.042737 L 307.880137 284.605429 L 311.529798 301.735518 L 312.746350 319.433017 L 312.746350 334.446383 L 312.312647 346.178354 L 311.011537 357.457507 L 308.843017 368.283845 L 305.807087 378.657369 L 301.903744 388.578082 L 297.132988 398.045985 L 291.494815 407.061081 L 284.989225 415.623371 L 277.616216 423.732858 L 269.375787 431.389544 L 260.267934 438.593429 L 250.292658 445.344518 L 239.449956 451.642810 L 227.739826 457.488310 L 215.162267 462.881018 L 201.717278 467.820936 L 168.199067 471.312416 L 151.625371 467.750004 L 136.120960 463.522040 L 121.685833 458.628521 L 108.319987 453.069446 L 96.023420 446.844813 L 84.796130 439.954618 L 74.638116 432.398861 L 65.549375 424.177539 L 57.529905 415.290651 L 50.579704 405.738193 L 44.698771 395.520164 L 39.887103 384.636563 L 36.144697 373.087386 L 33.471553 360.872631 L 31.867668 347.992298 L 31.333041 334.446383 Z M 190.544541 460.139679 L 194.385169 452.807570 L 194.385169 438.143352 L 193.457753 436.784948 L 190.675499 435.153776 L 179.546453 431.073121 L 160.997973 425.901371 L 135.030004 419.638506 L 119.400112 407.571041 L 105.854229 395.110820 L 94.392351 382.257830 L 85.014467 369.012060 L 77.720571 355.373495 L 72.510655 341.342123 L 69.384711 326.917932 L 68.342731 312.100908 L 61.010623 308.260280 L 49.837886 308.260280 L 46.630077 308.740356 L 44.338794 310.180587 L 42.964030 312.580979 L 42.505777 315.941537 L 42.954483 327.702148 L 44.300601 339.067224 L 46.544132 350.036766 L 49.685080 360.610776 L 53.723444 370.789256 L 58.659228 380.572210 L 64.492432 389.959637 L 71.223059 398.951542 L 78.851109 407.547926 L 87.376585 415.748790 L 96.799489 423.554138 L 107.119822 430.963971 L 118.337586 437.978292 L 130.452782 444.597102 L 143.465412 450.820403 L 157.375478 456.648198 Z M 261.072442 115.879707 L 264.563922 108.547598 L 264.563922 93.534233 L 263.841084 91.740750 L 261.672566 89.939087 L 252.998482 86.311218 L 238.541648 82.650625 L 218.302042 78.957302 L 192.279644 75.231246 L 160.474430 71.472455 L 79.515468 63.856649 L 79.515468 86.202124 L 80.224668 87.300034 L 82.352271 88.498868 L 90.862694 91.199306 L 105.046758 94.303442 L 124.904485 97.811279 L 181.641011 106.038070 L 261.072442 115.879707 Z M 264.563922 67.697277 L 264.563922 49.192431 L 263.647417 46.028273 L 260.897889 42.471335 L 256.315323 38.521604 L 249.899705 34.179065 L 220.222123 34.179065 L 218.629137 26.405034 L 216.294218 19.667552 L 213.217363 13.966617 L 209.398568 9.302225 L 204.837830 5.674371 L 199.535143 3.083051 L 193.490506 1.528262 L 186.703912 1.010000 L 153.534850 1.010000 L 145.678988 2.597533 L 138.870587 4.916088 L 133.109642 7.965666 L 128.396151 11.746273 L 124.730109 16.257913 L 122.111512 21.500589 L 120.540357 27.474305 L 120.016639 34.179065 L 94.179685 34.179065 L 90.971876 34.659140 L 88.680594 36.099370 L 87.305830 38.499762 L 86.847577 41.860322 L 86.847577 45.351803 L 153.338648 55.127978 L 205.121621 62.110936 L 242.196658 66.300695 L 264.563922 67.697277 Z" transform="scale(1.000000,1.000000) translate(86.000000,-1.000000)" opacity="1.000000"></path>
    </g>
</svg>