<?xml version="1.0" encoding="UTF-8" standalone="no"?>
<svg
   width="500"
   height="500"
   viewBox="0 0 500 500"
   version="1.1"
   id="svg5"
   sodipodi:docname="Adder32bit.svg"
   inkscape:version="1.4.3 (1:1.4.3+202512261035+0d15f75042)"
   xmlns:inkscape="http://www.inkscape.org/namespaces/inkscape"
   xmlns:sodipodi="http://sodipodi.sourceforge.net/DTD/sodipodi-0.dtd"
   xmlns="http://www.w3.org/2000/svg"
   xmlns:svg="http://www.w3.org/2000/svg">
  <defs
     id="defs5" />
  <sodipodi:namedview
     id="namedview5"
     pagecolor="#ffffff"
     bordercolor="#000000"
     borderopacity="0.25"
     inkscape:showpageshadow="2"
     inkscape:pageopacity="0.0"
     inkscape:pagecheckerboard="0"
     inkscape:deskcolor="#d1d1d1"
     inkscape:zoom="1.606"
     inkscape:cx="249.68867"
     inkscape:cy="200.1868"
     inkscape:window-width="1854"
     inkscape:window-height="1011"
     inkscape:window-x="0"
     inkscape:window-y="0"
     inkscape:window-maximized="1"
     inkscape:current-layer="g5" />
  <g
     transform="scale(1,-1) translate(0,-500)"
     id="g5">
    <path
       d="M 21.376511 27.543045 L 281.513257 27.543045 C 279.094789 27.543045 277.134249 25.480601 277.134249 22.936448 L 277.134249 287.063553 C 277.134249 284.519390 279.094789 282.456956 281.513257 282.456956 L 21.376511 282.456956 C 23.794970 282.456956 25.755519 284.519390 25.755519 287.063553 L 25.755519 22.936448 C 25.755519 25.480601 23.794970 27.543045 21.376511 27.543045 Z M 21.376511 1.950841 C 10.359086 1.950841 1.427699 11.346417 1.427699 22.936448 L 1.427699 287.063553 C 1.427699 298.653584 10.359086 308.049159 21.376511 308.049159 L 281.513257 308.049159 C 292.530683 308.049159 301.462070 298.653584 301.462070 287.063553 L 301.462070 22.936448 C 301.462070 11.346417 292.530683 1.950841 281.513257 1.950841 L 21.376511 1.950841 Z"
       transform="scale(1.000000,1.000000) translate(93.000000,95.000000)"
       opacity="1.000000"
       id="path1"
       inkscape:label="bounding_box"> fill=&quot;currentColor&quot;</path>
    <path
       d="m 10.780623,19.791585 h 85.647082 c 4.903975,0 8.879435,-4.182076 8.879435,-9.340928 0,-5.158854 -3.97546,-9.34093 -8.879435,-9.34093 H 10.780623 c -4.90398,0 -8.879441,4.182076 -8.879441,9.34093 0,5.158852 3.975461,9.340928 8.879441,9.340928 z"
       transform="translate(12,140)"
       opacity="1"
       id="path3"
       inkscape:label="input3"
       style="display:inline"> fill=&quot;currentColor&quot;</path>
    <path
       d="m 22.570598,259.80946 h 85.647082 c 4.90398,0 8.87944,-4.18208 8.87944,-9.34093 0,-5.15885 -3.97546,-9.34093 -8.87944,-9.34093 H 22.570598 c -4.90398,0 -8.87944,4.18208 -8.87944,9.34093 0,5.15885 3.97546,9.34093 8.87944,9.34093 z"
       opacity="1"
       id="path2-6"
       inkscape:label="input2"
       style="display:inline"> fill=&quot;currentColor&quot;</path>
    <path
       d="m 10.427682,19.71599 h 85.64708 c 4.903978,0 8.879438,-4.182076 8.879438,-9.340929 0,-5.158853 -3.97546,-9.34093 -8.879438,-9.34093 h -85.64708 c -4.90398,0 -8.879441,4.182077 -8.879441,9.34093 0,5.158853 3.975461,9.340929 8.879441,9.340929 z"
       transform="translate(14,335)"
       opacity="1"
       id="path2"
       inkscape:label="input1"
       style="display:inline"> fill=&quot;currentColor&quot;</path>
    <path
       d="m 381.44893,311.88829 h 91.4118 c 4.90398,0 8.87944,-4.18208 8.87944,-9.34093 0,-5.15885 -3.97546,-9.34093 -8.87944,-9.34093 h -91.4118 c -4.90397,0 -8.87944,4.18208 -8.87944,9.34093 0,5.15885 3.97547,9.34093 8.87944,9.34093 z"
       opacity="1"
       id="path4"
       style="display:inline"
       inkscape:label="out_sum"> fill=&quot;currentColor&quot;</path>
    <path
       d="m 18.557025,140.00627 q -1.810974,-2.41463 -1.735516,-6.45159 H 6.785696 q 0.150914,4.07469 1.395959,7.73436 1.320501,3.20694 4.150148,5.9234 2.112803,1.92416 5.017906,2.94283 2.905104,1.01867 7.130709,1.01867 7.847553,0 12.657952,-4.05583 4.810399,-4.05582 4.810399,-10.8847 0,-4.82926 -2.867375,-8.14938 -1.810974,-2.07508 -3.772862,-2.82965 1.471416,0 4.225605,-2.52782 4.11242,-3.81059 4.11242,-10.4131 0,-6.94206 -4.810399,-12.2052 -4.810399,-5.263146 -14.242554,-5.263146 -11.620415,0 -16.147849,7.583456 -2.376903,4.03696 -2.641003,10.56401 h 10.564013 q 0,-3.28239 1.056401,-5.43292 1.961889,-3.96151 7.130709,-3.96151 3.169204,0 5.527243,2.1694 2.358039,2.16939 2.358039,6.24409 0,5.39519 -4.37652,7.20616 -2.490089,1.01867 -7.847553,1.01867 v 7.69664 q 5.244278,0.0755 7.319352,1.01867 3.584219,1.58461 3.584219,6.41387 0,3.13148 -1.829838,5.09336 -1.829838,1.96189 -5.149956,1.96189 -3.810591,0 -5.583836,-2.41463 z M 73.60308,139.7799 q -1.92416,2.30144 -5.508378,2.30144 -4.904721,0 -6.677966,-3.65967 -1.018673,-2.1128 -1.207316,-6.7157 H 49.758593 q 0.2641,6.9798 2.527817,11.28086 4.301063,8.18711 15.280091,8.18711 8.677582,0 13.808674,-4.8104 5.131093,-4.8104 5.131093,-12.73341 0,-6.0743 -3.621948,-10.79038 -2.376903,-3.13148 -7.809824,-6.97979 l -4.301063,-3.05602 q -4.036962,-2.86738 -5.527242,-4.15015 -1.490281,-1.28277 -2.508953,-2.98056 H 86.619453 V 96.203344 H 49.154935 q 0.150914,5.885666 2.527817,10.752656 2.301446,5.47065 10.865843,11.58269 7.432537,5.31973 9.620797,7.62118 3.357847,3.58422 3.357847,7.84755 0,3.47103 -1.924159,5.77248 z M 91.486445,122.83975 H 113.14267 V 112.65302 H 91.486445 Z M 146.72114,96.203344 h -25.20271 v 55.611986 h 27.01369 q 10.22445,-0.15092 14.48779,-5.9234 2.56554,-3.54649 2.56554,-8.48893 0,-5.09337 -2.56554,-8.18711 -1.43369,-1.73552 -4.22561,-3.16921 4.26333,-1.54687 6.43273,-4.90472 2.1694,-3.35785 2.1694,-8.14938 0,-4.94245 -2.49009,-8.86623 -1.58461,-2.60327 -3.96151,-4.376516 -2.67873,-2.037345 -6.31954,-2.791917 -3.64081,-0.754573 -7.90415,-0.754573 z m -0.2641,24.485876 h -13.8464 v -14.82735 h 13.65776 q 3.65968,0 5.69702,0.98095 3.69741,1.81097 3.69741,6.94206 0,4.33879 -3.58422,5.96112 -1.99962,0.90549 -5.62157,0.94322 z m 5.77248,10.60174 q 2.26372,1.35823 2.26372,4.86699 0,3.88605 -3.01829,5.13109 -2.60328,0.86776 -6.64024,0.86776 H 132.61064 V 129.895 h 13.65776 q 3.65968,0 5.96112,1.39596 z m 35.08762,6.03658 V 96.203344 h -10.90357 v 41.124196 z m 0,14.82735 v -9.92263 h -10.90357 v 9.92263 z m 29.23968,-48.29264 v -8.036192 l -5.09337,-0.188643 q -7.62118,-0.2641 -10.4131,2.641003 -1.81097,1.848702 -1.81097,5.697022 v 25.3159 h -5.73475 v 7.65891 h 5.73475 v 11.4695 h 10.63947 v -11.4695 h 6.67797 v -7.65891 h -6.67797 v -21.73168 q 0,-2.52782 0.64139,-3.15034 0.64138,-0.62252 3.92377,-0.62252 0.49048,0 1.03754,0.0189 0.54707,0.0189 1.07527,0.0566 z M 37.930671,14.635116 H 17.444031 L 13.595712,3.203344 H 1.447096 L 21.29235,58.815328 H 34.421909 L 54.116248,3.203344 H 41.51489 Z M 34.68601,24.218185 27.743944,46.100784 20.575506,24.218185 Z M 97.730532,58.739871 V 3.203344 H 87.279704 V 8.900366 Q 84.978258,5.24069 82.035426,3.58063 79.092594,1.920571 74.716074,1.920571 q -7.206166,0 -12.129751,5.829072 -4.923585,5.829071 -4.923585,14.959397 0,10.526285 4.848128,16.562864 4.848127,6.036579 12.959781,6.036579 3.735133,0 6.640236,-1.641195 2.905104,-1.641195 4.716078,-4.546299 v 19.618882 z m -28.97558,-35.23853 q 0,-5.697021 2.263717,-9.092597 2.225989,-3.433304 6.791152,-3.433304 4.565163,0 6.942066,3.395575 2.376903,3.395576 2.376903,8.790769 0,7.545723 -3.810591,10.790385 -2.339174,1.961888 -5.432921,1.961888 -4.716077,0 -6.923201,-3.565355 -2.207125,-3.565354 -2.207125,-8.847361 z m 76.174078,35.23853 V 3.203344 H 134.47821 V 8.900366 Q 132.17676,5.24069 129.23393,3.58063 126.2911,1.920571 121.91458,1.920571 q -7.20617,0 -12.12976,5.829072 -4.92358,5.829071 -4.92358,14.959397 0,10.526285 4.84813,16.562864 4.84813,6.036579 12.95978,6.036579 3.73513,0 6.64024,-1.641195 2.9051,-1.641195 4.71607,-4.546299 v 19.618882 z m -28.97557,-35.23853 q 0,-5.697021 2.26371,-9.092597 2.22599,-3.433304 6.79115,-3.433304 4.56517,0 6.94207,3.395575 2.3769,3.395576 2.3769,8.790769 0,7.545723 -3.81059,10.790385 -2.33917,1.961888 -5.43292,1.961888 -4.71608,0 -6.9232,-3.565355 -2.20712,-3.565354 -2.20712,-8.847361 z m 73.94809,-8.224839 q -0.41502,-3.659676 -3.81059,-7.432538 -5.28201,-5.99885 -14.78962,-5.99885 -7.84755,0 -13.84641,5.055635 -5.99885,5.055635 -5.99885,16.449678 0,10.677199 5.41406,16.37422 5.41406,5.697022 14.05391,5.697022 5.13109,0 9.24351,-1.92416 4.11242,-1.924159 6.79115,-6.074307 2.41464,-3.659676 3.13148,-8.48894 0.41501,-2.829646 0.33956,-8.149381 H 162.2842 q 0.22637,-6.187494 3.88605,-8.677583 2.22598,-1.546873 5.35746,-1.546873 3.32012,0 5.39519,1.886431 1.13186,1.018673 1.99962,2.829646 z m -10.63947,12.601359 q -0.2641,4.263334 -2.58441,6.470458 -2.32031,2.207124 -5.75362,2.207124 -3.73513,0 -5.79134,-2.339174 -2.05621,-2.339174 -2.58441,-6.338408 z m 39.08685,6.527051 q -6.48933,0 -8.71532,-4.225605 -1.24504,-2.376903 -1.24504,-7.319352 V 3.203344 h -10.82811 v 41.124195 h 10.26218 v -7.168438 q 2.49009,4.11242 4.33879,5.621564 3.01829,2.527818 7.84755,2.527818 0.30183,0 0.50934,-0.01886 0.20751,-0.01887 0.92435,-0.05659 V 34.216269 q -1.01867,0.113186 -1.81097,0.150914 -0.7923,0.03773 -1.28277,0.03773 z"
       opacity="1"
       id="path5"
       transform="translate(133,173)"
       style="display:inline"> fill=&quot;currentColor&quot;</path>
    <path
       d="m 381.96163,212.48692 h 91.41179 c 4.90398,0 8.87944,-4.18208 8.87944,-9.34093 0,-5.15886 -3.97546,-9.34093 -8.87944,-9.34093 h -91.41179 c -4.90398,0 -8.87944,4.18207 -8.87944,9.34093 0,5.15885 3.97546,9.34093 8.87944,9.34093 z"
       opacity="1"
       id="path4-5"
       style="display:inline"
       inkscape:label="carry_out"> fill=&quot;currentColor&quot;</path>
  </g>
</svg>
