<?xml version="1.0" encoding="UTF-8" standalone="yes"?>
<!DOCTYPE svg PUBLIC "-//W3C//DTD SVG 1.1//EN" "http://www.w3.org/Graphics/SVG/1.1/DTD/svg11.dtd">

<svg width="500" height="500" viewBox="0 0 500 500" xmlns="http://www.w3.org/2000/svg" xmlns:xlink="http://www.w3.org/1999/xlink" version="1.1" baseProfile="full">
    <g transform="scale(1,-1) translate(0,-500)">
        <path d="M 21.376511 27.543045 L 281.513257 27.543045 C 279.094789 27.543045 277.134249 25.480601 277.134249 22.936448 L 277.134249 287.063553 C 277.134249 284.519390 279.094789 282.456956 281.513257 282.456956 L 21.376511 282.456956 C 23.794970 282.456956 25.755519 284.519390 25.755519 287.063553 L 25.755519 22.936448 C 25.755519 25.480601 23.794970 27.543045 21.376511 27.543045 Z M 21.376511 1.950841 C 10.359086 1.950841 1.427699 11.346417 1.427699 22.936448 L 1.427699 287.063553 C 1.427699 298.653584 10.359086 308.049159 21.376511 308.049159 L 281.513257 308.049159 C 292.530683 308.049159 301.462070 298.653584 301.462070 287.063553 L 301.462070 22.936448 C 301.462070 11.346417 292.530683 1.950841 281.513257 1.950841 L 21.376511 1.950841 Z" transform="scale(1.000000,1.000000) translate(93.000000,95.000000)" opacity="1.000000"> fill="currentColor"</path>
        <path d="M 10.427682 19.715990 L 96.074762 19.715990 C 100.978740 19.715990 104.954202 15.533914 104.954202 10.375061 C 104.954202 5.216208 100.978740 1.034131 96.074762 1.034131 L 10.427682 1.034131 C 5.523702 1.034131 1.548241 5.216208 1.548241 10.375061 C 1.548241 15.533914 5.523702 19.715990 10.427682 19.715990 Z" transform="scale(1.000000,1.000000) translate(14.000000,335.000000)" opacity="1.000000"> fill="currentColor"</path>
        <path d="M 10.780623 19.791585 L 96.427705 19.791585 C 101.331682 19.791585 105.307144 15.609509 105.307144 10.450657 C 105.307144 5.291803 101.331682 1.109727 96.427705 1.109727 L 10.780623 1.109727 C 5.876643 1.109727 1.901182 5.291803 1.901182 10.450657 C 1.901182 15.609509 5.876643 19.791585 10.780623 19.791585 Z" transform="scale(1.000000,1.000000) translate(12.000000,140.000000)" opacity="1.000000"> fill="currentColor"</path>
        <path d="M 10.807589 20.244456 L 102.219379 20.244456 C 107.123356 20.244456 111.098818 16.062379 111.098818 10.903527 C 111.098818 5.744674 107.123356 1.562597 102.219379 1.562597 L 10.807589 1.562597 C 5.903610 1.562597 1.928148 5.744674 1.928148 10.903527 C 1.928148 16.062379 5.903610 20.244456 10.807589 20.244456 Z" transform="scale(1.000000,1.000000) translate(375.000000,230.000000)" opacity="1.000000"> fill="currentColor"</path>
        <path d="M 18.557025 140.006271 Q 16.746051 137.591639 16.821509 133.554677 L 6.785696 133.554677 Q 6.936610 137.629368 8.181655 141.289044 Q 9.502156 144.495976 12.331803 147.212437 Q 14.444606 149.136596 17.349709 150.155269 Q 20.254813 151.173942 24.480418 151.173942 Q 32.327971 151.173942 37.138370 147.118115 Q 41.948769 143.062289 41.948769 136.233409 Q 41.948769 131.404146 39.081394 128.084027 Q 37.270420 126.008953 35.308532 125.254381 Q 36.779948 125.254381 39.534137 122.726563 Q 43.646557 118.915973 43.646557 112.313465 Q 43.646557 105.371399 38.836158 100.108256 Q 34.025759 94.845114 24.593604 94.845114 Q 12.973189 94.845114 8.445755 102.428566 Q 6.068852 106.465529 5.804752 112.992580 L 16.368765 112.992580 Q 16.368765 109.710190 17.425166 107.559659 Q 19.387055 103.598154 24.555875 103.598154 Q 27.725079 103.598154 30.083118 105.767549 Q 32.441157 107.936945 32.441157 112.011636 Q 32.441157 117.406828 28.064637 119.217802 Q 25.574548 120.236474 20.217084 120.236474 L 20.217084 127.933113 Q 25.461362 128.008570 27.536436 128.951785 Q 31.120655 130.536387 31.120655 135.365651 Q 31.120655 138.497126 29.290817 140.459014 Q 27.460979 142.420902 24.140861 142.420902 Q 20.330270 142.420902 18.557025 140.006271 Z M 73.603080 139.779899 Q 71.678920 142.081345 68.094702 142.081345 Q 63.189981 142.081345 61.416736 138.421669 Q 60.398063 136.308866 60.209420 131.705975 L 49.758593 131.705975 Q 50.022693 138.685769 52.286410 142.986832 Q 56.587473 151.173942 67.566501 151.173942 Q 76.244083 151.173942 81.375175 146.363543 Q 86.506268 141.553144 86.506268 133.630134 Q 86.506268 127.555827 82.884320 122.839749 Q 80.507417 119.708274 75.074496 115.859955 L 70.773433 112.803937 Q 66.736471 109.936562 65.246191 108.653788 Q 63.755910 107.371015 62.737238 105.673228 L 86.619453 105.673228 L 86.619453 96.203344 L 49.154935 96.203344 Q 49.305849 102.089009 51.682752 106.956001 Q 53.984198 112.426650 62.548595 118.538687 Q 69.981132 123.858422 72.169392 126.159868 Q 75.527239 129.744086 75.527239 134.007420 Q 75.527239 137.478453 73.603080 139.779899 Z M 91.486445 122.839749 L 113.142672 122.839749 L 113.142672 112.653022 L 91.486445 112.653022 Z M 146.721143 96.203344 L 121.518426 96.203344 L 121.518426 151.815328 L 148.532117 151.815328 Q 158.756573 151.664414 163.019907 145.891935 Q 165.585453 142.345445 165.585453 137.402996 Q 165.585453 132.309632 163.019907 129.215886 Q 161.586219 127.480369 158.794301 126.046682 Q 163.057635 124.499808 165.227031 121.141961 Q 167.396426 117.784114 167.396426 112.992580 Q 167.396426 108.050131 164.906337 104.126354 Q 163.321735 101.523080 160.944832 99.749834 Q 158.266101 97.712489 154.625289 96.957917 Q 150.984477 96.203344 146.721143 96.203344 Z M 146.457043 120.689218 L 132.610640 120.689218 L 132.610640 105.861871 L 146.268400 105.861871 Q 149.928076 105.861871 151.965421 106.842815 Q 155.662826 108.653788 155.662826 113.784881 Q 155.662826 118.123672 152.078607 119.746002 Q 150.078990 120.651489 146.457043 120.689218 Z M 152.229522 131.290960 Q 154.493239 132.649190 154.493239 136.157952 Q 154.493239 140.043999 151.474949 141.289044 Q 148.871674 142.156802 144.834712 142.156802 L 132.610640 142.156802 L 132.610640 129.895001 L 146.268400 129.895001 Q 149.928076 129.895001 152.229522 131.290960 Z M 187.317137 137.327539 L 187.317137 96.203344 L 176.413566 96.203344 L 176.413566 137.327539 Z M 187.317137 152.154886 L 187.317137 142.232259 L 176.413566 142.232259 L 176.413566 152.154886 Z M 216.556817 103.862254 L 216.556817 95.826058 L 211.463453 95.637415 Q 203.842272 95.373315 201.050354 98.278418 Q 199.239381 100.127121 199.239381 103.975440 L 199.239381 129.291343 L 193.504631 129.291343 L 193.504631 136.950253 L 199.239381 136.950253 L 199.239381 148.419753 L 209.878851 148.419753 L 209.878851 136.950253 L 216.556817 136.950253 L 216.556817 129.291343 L 209.878851 129.291343 L 209.878851 107.559659 Q 209.878851 105.031841 210.520238 104.409319 Q 211.161624 103.786797 214.444014 103.786797 Q 214.934486 103.786797 215.481551 103.805661 Q 216.028616 103.824525 216.556817 103.862254 Z M 37.930671 14.635116 L 17.444031 14.635116 L 13.595712 3.203344 L 1.447096 3.203344 L 21.292350 58.815328 L 34.421909 58.815328 L 54.116248 3.203344 L 41.514890 3.203344 Z M 34.686010 24.218185 L 27.743944 46.100784 L 20.575506 24.218185 Z M 97.730532 58.739871 L 97.730532 3.203344 L 87.279704 3.203344 L 87.279704 8.900366 Q 84.978258 5.240690 82.035426 3.580630 Q 79.092594 1.920571 74.716074 1.920571 Q 67.509908 1.920571 62.586323 7.749643 Q 57.662738 13.578714 57.662738 22.709040 Q 57.662738 33.235325 62.510866 39.271904 Q 67.358993 45.308483 75.470647 45.308483 Q 79.205780 45.308483 82.110883 43.667288 Q 85.015987 42.026093 86.826961 39.120989 L 86.826961 58.739871 Z M 68.754952 23.501341 Q 68.754952 17.804320 71.018669 14.408744 Q 73.244658 10.975440 77.809821 10.975440 Q 82.374984 10.975440 84.751887 14.371015 Q 87.128790 17.766591 87.128790 23.161784 Q 87.128790 30.707507 83.318199 33.952169 Q 80.979025 35.914057 77.885278 35.914057 Q 73.169201 35.914057 70.962077 32.348702 Q 68.754952 28.783348 68.754952 23.501341 Z M 144.929034 58.739871 L 144.929034 3.203344 L 134.478206 3.203344 L 134.478206 8.900366 Q 132.176761 5.240690 129.233928 3.580630 Q 126.291096 1.920571 121.914576 1.920571 Q 114.708410 1.920571 109.784825 7.749643 Q 104.861241 13.578714 104.861241 22.709040 Q 104.861241 33.235325 109.709368 39.271904 Q 114.557496 45.308483 122.669149 45.308483 Q 126.404282 45.308483 129.309386 43.667288 Q 132.214489 42.026093 134.025463 39.120989 L 134.025463 58.739871 Z M 115.953455 23.501341 Q 115.953455 17.804320 118.217172 14.408744 Q 120.443160 10.975440 125.008323 10.975440 Q 129.573486 10.975440 131.950389 14.371015 Q 134.327292 17.766591 134.327292 23.161784 Q 134.327292 30.707507 130.516701 33.952169 Q 128.177527 35.914057 125.083780 35.914057 Q 120.367703 35.914057 118.160579 32.348702 Q 115.953455 28.783348 115.953455 23.501341 Z M 189.901547 15.276502 Q 189.486533 11.616826 186.090957 7.843964 Q 180.808950 1.845114 171.301338 1.845114 Q 163.453786 1.845114 157.454935 6.900749 Q 151.456085 11.956384 151.456085 23.350427 Q 151.456085 34.027626 156.870142 39.724647 Q 162.284198 45.421669 170.924052 45.421669 Q 176.055144 45.421669 180.167564 43.497509 Q 184.279983 41.573350 186.958715 37.423202 Q 189.373347 33.763526 190.090191 28.934262 Q 190.505205 26.104616 190.429748 20.784881 L 162.284198 20.784881 Q 162.510570 14.597387 166.170246 12.107298 Q 168.396235 10.560425 171.527710 10.560425 Q 174.847829 10.560425 176.922903 12.446856 Q 178.054761 13.465529 178.922519 15.276502 Z M 179.262077 27.877861 Q 178.997977 32.141195 176.677667 34.348319 Q 174.357356 36.555443 170.924052 36.555443 Q 167.188919 36.555443 165.132709 34.216269 Q 163.076499 31.877095 162.548299 27.877861 Z M 218.348926 34.404912 Q 211.859604 34.404912 209.633615 30.179307 Q 208.388571 27.802404 208.388571 22.859955 L 208.388571 3.203344 L 197.560457 3.203344 L 197.560457 44.327539 L 207.822641 44.327539 L 207.822641 37.159101 Q 210.312730 41.271521 212.161433 42.780665 Q 215.179722 45.308483 220.008985 45.308483 Q 220.310814 45.308483 220.518322 45.289619 Q 220.725829 45.270754 221.442673 45.233026 L 221.442673 34.216269 Q 220.424000 34.329455 219.631699 34.367183 Q 218.839398 34.404912 218.348926 34.404912 Z" transform="scale(1.000000,1.000000) translate(133.000000,173.000000)" opacity="1.000000"> fill="currentColor"</path>
    </g>
</svg>