<?xml version="1.0" encoding="UTF-8" standalone="yes"?>
<!DOCTYPE svg PUBLIC "-//W3C//DTD SVG 1.1//EN" "http://www.w3.org/Graphics/SVG/1.1/DTD/svg11.dtd">

<svg width="500" height="500" viewBox="0 0 500 500" xmlns="http://www.w3.org/2000/svg" xmlns:xlink="http://www.w3.org/1999/xlink" version="1.1" baseProfile="full">
    <g transform="scale(1,-1) translate(0,-500)">
        <path d="M 11.461499 296.833260 L 150.622641 256.566156 C 154.036997 255.578189 156.386926 252.451897 156.386926 248.897490 L 156.386926 49.128688 C 156.386926 45.562432 154.021609 42.428738 150.591938 41.451199 L 11.429873 1.786546 C 6.331148 0.333283 1.258341 4.162245 1.258341 9.464035 L 1.258341 126.810407 C 1.258341 130.382927 3.631816 133.520514 7.069560 134.492513 L 81.610988 155.568359 L 81.625846 140.199980 L 7.084421 161.120228 C 3.639267 162.087122 1.258314 165.228310 1.258341 168.806576 L 1.259267 289.164668 C 1.259309 294.479718 6.355883 298.310598 11.461499 296.833260 Z M 7.023548 281.495928 L 17.225780 289.164545 L 17.224854 168.806452 L 11.398774 176.492800 L 85.940204 155.572552 C 93.700510 153.394596 93.711145 142.397122 85.955062 140.204172 L 11.413636 119.128313 L 17.224854 126.810407 L 17.224854 9.464035 L 7.053322 17.141523 L 146.215397 56.806176 L 140.420408 49.128688 L 140.420408 248.897490 L 146.184694 241.228825 L 7.023548 281.495928 Z" transform="scale(1.000000,1.000000) translate(160.000000,100.000000)" opacity="1.000000" fill="currentColor"> fill="currentColor"</path>
        <path d="M 9.792974 17.383582 L 96.242185 17.383586 C 100.651217 17.383586 104.225444 13.809361 104.225444 9.400330 C 104.225444 4.991300 100.651217 1.417074 96.242185 1.417074 L 9.792975 1.417071 C 5.383944 1.417071 1.809718 4.991296 1.809718 9.400326 C 1.809718 13.809358 5.383944 17.383582 9.792974 17.383582 Z" transform="scale(1.000000,1.000000) translate(73.000000,336.000000)" opacity="1.000000" fill="currentColor"> fill="currentColor"</path>
        <path d="M 96.241599 1.674444 L 9.792975 1.674444 C 5.383944 1.674444 1.809718 5.248669 1.809718 9.657700 C 1.809718 14.066730 5.383944 17.640956 9.792975 17.640956 L 96.241599 17.640956 C 100.650631 17.640956 104.224852 14.066730 104.224852 9.657700 C 104.224852 5.248669 100.650631 1.674444 96.241599 1.674444 Z" transform="scale(1.000000,1.000000) translate(73.000000,134.000000)" opacity="1.000000" fill="currentColor"> fill="currentColor"</path>
        <path d="M 1.493955 9.164594 L 1.493955 49.516744 C 1.493955 53.925772 5.068180 57.500000 9.477211 57.500000 C 13.886240 57.500000 17.460467 53.925772 17.460467 49.516744 L 17.460467 9.164594 C 17.460467 4.755563 13.886240 1.181338 9.477211 1.181338 C 5.068180 1.181338 1.493955 4.755563 1.493955 9.164594 Z" transform="scale(1.000000,1.000000) translate(180.000000,380.000000)" opacity="1.000000" fill="currentColor"> fill="currentColor"</path>
        <path d="M 1.113285 9.824461 L 1.113285 79.832868 C 1.113285 84.241900 4.687510 87.816127 9.096540 87.816127 C 13.505572 87.816127 17.079796 84.241900 17.079796 79.832868 L 17.079796 9.824461 C 17.079796 5.415430 13.505572 1.841205 9.096540 1.841205 C 4.687510 1.841205 1.113285 5.415430 1.113285 9.824461 Z" transform="scale(1.000000,1.000000) translate(265.000000,349.000000)" opacity="1.000000" fill="currentColor"> fill="currentColor"</path>
        <path d="M 17.766281 69.710193 L 17.766281 9.483256 C 17.766281 5.074225 14.192056 1.500000 9.783025 1.500000 C 5.373994 1.500000 1.799769 5.074225 1.799769 9.483256 L 1.799769 69.710193 C 1.799769 74.119225 5.373994 77.693452 9.783025 77.693452 C 14.192056 77.693452 17.766281 74.119225 17.766281 69.710193 Z" transform="scale(1.000000,1.000000) translate(234.000000,61.000000)" opacity="1.000000" fill="currentColor"> fill="currentColor"</path>
        <path d="M 9.357914 17.484334 L 118.161270 18.107906 C 122.570228 18.133174 126.164881 14.579492 126.190146 10.170533 C 126.215411 5.761575 122.661732 2.166924 118.252775 2.141656 L 9.449420 1.518085 C 5.040461 1.492816 1.445810 5.046498 1.420541 9.455457 C 1.395273 13.864416 4.948956 17.459066 9.357914 17.484334 Z" transform="scale(1.000000,1.000000) translate(299.000000,181.000000)" opacity="1.000000" fill="currentColor"> fill="currentColor"</path>
        <path d="M 9.403667 17.299564 L 118.207029 17.299564 C 122.616060 17.299564 126.190282 13.725339 126.190282 9.316308 C 126.190282 4.907278 122.616060 1.333052 118.207029 1.333052 L 9.403667 1.333052 C 4.994636 1.333052 1.420411 4.907278 1.420411 9.316308 C 1.420411 13.725339 4.994636 17.299564 9.403667 17.299564 Z" transform="scale(1.000000,1.000000) translate(299.000000,293.000000)" opacity="1.000000" fill="currentColor"> fill="currentColor"</path>
    </g>
</svg>