<?xml version="1.0" encoding="UTF-8" standalone="yes"?>
<!DOCTYPE svg PUBLIC "-//W3C//DTD SVG 1.1//EN" "http://www.w3.org/Graphics/SVG/1.1/DTD/svg11.dtd">

<svg width="500" height="500" viewBox="0 0 500 500" xmlns="http://www.w3.org/2000/svg" xmlns:xlink="http://www.w3.org/1999/xlink" version="1.1" baseProfile="full">
    <g transform="scale(1,-1) translate(0,-500)">
        <path d="M 17.293386 29.162123 L 223.883314 29.162123 C 221.962675 29.162123 220.405694 26.959703 220.405694 24.242882 L 220.405694 306.295981 C 220.405694 303.579121 221.962675 301.376739 223.883314 301.376739 L 17.293386 301.376739 C 19.214027 301.376739 20.771016 303.579121 20.771016 306.295981 L 20.771016 24.242882 C 20.771016 26.959703 19.214027 29.162123 17.293386 29.162123 Z M 17.293386 1.833008 C 8.543799 1.833008 1.450858 11.866251 1.450858 24.242882 L 1.450858 306.295981 C 1.450858 318.672609 8.543799 328.705843 17.293386 328.705843 L 223.883314 328.705843 C 232.632902 328.705843 239.725851 318.672609 239.725851 306.295981 L 239.725851 24.242882 C 239.725851 11.866251 232.632902 1.833008 223.883314 1.833008 L 17.293386 1.833008 Z" transform="scale(1.000000,1.000000) translate(125.000000,86.000000)" fill="#f7f0ed" opacity="1.000000"></path>
        <path d="M 8.701930 21.857559 L 76.719328 21.857559 C 80.613866 21.857559 83.771016 17.391650 83.771016 11.882673 C 83.771016 6.373695 80.613866 1.907785 76.719328 1.907785 L 8.701930 1.907785 C 4.807391 1.907785 1.650242 6.373695 1.650242 11.882673 C 1.650242 17.391650 4.807391 21.857559 8.701930 21.857559 Z" transform="scale(1.000000,1.000000) translate(62.000000,315.000000)" fill="#f7f0ed" opacity="1.000000"></path>
        <path d="M 8.551692 21.173475 L 76.569092 21.173475 C 80.463629 21.173475 83.620779 16.707566 83.620779 11.198588 C 83.620779 5.689609 80.463629 1.223701 76.569092 1.223701 L 8.551692 1.223701 C 4.657152 1.223701 1.500004 5.689609 1.500004 11.198588 C 1.500004 16.707566 4.657152 21.173475 8.551692 21.173475 Z" transform="scale(1.000000,1.000000) translate(61.000000,160.000000)" fill="#f7f0ed" opacity="1.000000"></path>
        <path d="M 8.852819 21.530469 L 81.448313 21.530469 C 85.342856 21.530469 88.500000 17.064562 88.500000 11.555584 C 88.500000 6.046606 85.342856 1.580697 81.448313 1.580697 L 8.852819 1.580697 C 4.958281 1.580697 1.801132 6.046606 1.801132 11.555584 C 1.801132 17.064562 4.958281 21.530469 8.852819 21.530469 Z" transform="scale(1.000000,1.000000) translate(349.000000,230.000000)" fill="#f7f0ed" opacity="1.000000"></path>
        <path d="M 8.457382 21.614167 L 81.052874 21.614167 C 84.947418 21.614167 88.104562 17.148259 88.104562 11.639282 C 88.104562 6.130304 84.947418 1.664395 81.052874 1.664395 L 8.457382 1.664395 C 4.562843 1.664395 1.405694 6.130304 1.405694 11.639282 C 1.405694 17.148259 4.562843 21.614167 8.457382 21.614167 Z" transform="scale(1.000000,1.000000) translate(344.000000,347.000000)" fill="#f7f0ed" opacity="1.000000"></path>
        <path d="M 8.935002 21.335613 L 81.530495 21.335613 C 85.425038 21.335613 88.582182 16.869706 88.582182 11.360729 C 88.582182 5.851751 85.425038 1.385842 81.530495 1.385842 L 8.935002 1.385842 C 5.040464 1.385842 1.883314 5.851751 1.883314 11.360729 C 1.883314 16.869706 5.040464 21.335613 8.935002 21.335613 Z" transform="scale(1.000000,1.000000) translate(347.000000,130.000000)" fill="#f7f0ed" opacity="1.000000"></path>
        <path d="M 61.914089 69.803248 L 48.657253 69.803248 L 46.167018 62.405787 L 38.305690 62.405787 L 51.147487 98.392115 L 59.643581 98.392115 L 72.387722 62.405787 L 64.233425 62.405787 Z M 59.814479 76.004420 L 55.322292 90.164576 L 50.683620 76.004420 Z M 76.953151 98.392115 L 84.472683 98.392115 L 84.472683 68.875513 L 102.294948 68.875513 L 102.294948 62.405787 L 76.953151 62.405787 Z M 128.784206 76.272974 L 128.784206 98.392115 L 136.425808 98.392115 L 136.425808 76.272974 Q 136.425808 70.535670 134.643581 67.337427 Q 131.323268 61.478052 121.972683 61.478052 Q 112.622097 61.478052 109.277370 67.337427 Q 107.495143 70.535670 107.495143 76.272974 L 107.495143 98.392115 L 115.136745 98.392115 L 115.136745 76.272974 Q 115.136745 72.562037 116.015651 70.853052 Q 117.382839 67.825709 121.972683 67.825709 Q 126.538112 67.825709 127.905300 70.853052 Q 128.784206 72.562037 128.784206 76.272974 Z M 28.747585 5.091334 Q 24.719265 1.404810 18.444850 1.404810 Q 10.681179 1.404810 6.237819 6.385279 Q 1.794460 11.390162 1.794460 20.105982 Q 1.794460 29.529810 6.848171 34.632349 Q 11.242702 39.075709 18.029811 39.075709 Q 27.111843 39.075709 31.311061 33.118677 Q 33.630397 29.773951 33.801296 26.404810 L 26.281765 26.404810 Q 25.549343 28.992701 24.401882 30.311060 Q 22.351100 32.654810 18.322780 32.654810 Q 14.221218 32.654810 11.853054 29.346705 Q 9.484890 26.038599 9.484890 19.983912 Q 9.484890 13.929224 11.987331 10.914088 Q 14.489772 7.898951 18.347194 7.898951 Q 22.302272 7.898951 24.377468 10.486842 Q 25.524929 11.878443 26.281765 14.661646 L 33.728054 14.661646 Q 32.751491 8.777857 28.747585 5.091334 Z M 61.096218 25.647974 Q 64.465358 21.424342 64.465358 15.662623 Q 64.465358 9.803248 61.096218 5.640650 Q 57.727077 1.478052 50.866725 1.478052 Q 44.006374 1.478052 40.637233 5.640650 Q 37.268093 9.803248 37.268093 15.662623 Q 37.268093 21.424342 40.637233 25.647974 Q 44.006374 29.871607 50.866725 29.871607 Q 57.727077 29.871607 61.096218 25.647974 Z M 50.842311 23.987818 Q 47.790554 23.987818 46.142604 21.827174 Q 44.494655 19.666529 44.494655 15.662623 Q 44.494655 11.658717 46.142604 9.485865 Q 47.790554 7.313013 50.842311 7.313013 Q 53.894069 7.313013 55.529811 9.485865 Q 57.165554 11.658717 57.165554 15.662623 Q 57.165554 19.666529 55.529811 21.827174 Q 53.894069 23.987818 50.842311 23.987818 Z M 81.970241 23.865748 Q 78.430202 23.865748 77.111843 20.862818 Q 76.428249 19.275904 76.428249 16.810084 L 76.428249 2.405787 L 69.494655 2.405787 L 69.494655 28.968287 L 76.208522 28.968287 L 76.208522 25.086451 Q 77.551296 27.137232 78.747585 28.040552 Q 80.896022 29.651881 84.191921 29.651881 Q 88.317897 29.651881 90.942409 27.491236 Q 93.566921 25.330592 93.566921 20.325709 L 93.566921 2.405787 L 86.438015 2.405787 L 86.438015 18.592310 Q 86.438015 20.691920 85.876491 21.814967 Q 84.851100 23.865748 81.970241 23.865748 Z M 112.170436 7.361842 L 112.170436 2.161646 L 108.874538 2.039576 Q 103.942897 1.868677 102.136257 3.748560 Q 100.964382 4.944849 100.964382 7.435084 L 100.964382 23.816920 L 97.253444 23.816920 L 97.253444 28.772974 L 100.964382 28.772974 L 100.964382 36.194849 L 107.849147 36.194849 L 107.849147 28.772974 L 112.170436 28.772974 L 112.170436 23.816920 L 107.849147 23.816920 L 107.849147 9.754420 Q 107.849147 8.118677 108.264186 7.715845 Q 108.679225 7.313013 110.803249 7.313013 Q 111.120632 7.313013 111.474636 7.325220 Q 111.828640 7.337427 112.170436 7.361842 Z M 130.017116 22.596217 Q 125.817897 22.596217 124.377468 19.861842 Q 123.571804 18.323756 123.571804 15.125513 L 123.571804 2.405787 L 116.564968 2.405787 L 116.564968 29.017115 L 123.205593 29.017115 L 123.205593 24.378443 Q 124.816921 27.039576 126.013210 28.016138 Q 127.966335 29.651881 131.091335 29.651881 Q 131.286647 29.651881 131.420925 29.639674 Q 131.555202 29.627467 132.019069 29.603052 L 132.019069 22.474146 Q 131.359890 22.547388 130.847194 22.571802 Q 130.334499 22.596217 130.017116 22.596217 Z M 158.288600 25.647974 Q 161.657741 21.424342 161.657741 15.662623 Q 161.657741 9.803248 158.288600 5.640650 Q 154.919460 1.478052 148.059108 1.478052 Q 141.198757 1.478052 137.829616 5.640650 Q 134.460475 9.803248 134.460475 15.662623 Q 134.460475 21.424342 137.829616 25.647974 Q 141.198757 29.871607 148.059108 29.871607 Q 154.919460 29.871607 158.288600 25.647974 Z M 148.034694 23.987818 Q 144.982936 23.987818 143.334987 21.827174 Q 141.687038 19.666529 141.687038 15.662623 Q 141.687038 11.658717 143.334987 9.485865 Q 144.982936 7.313013 148.034694 7.313013 Q 151.086452 7.313013 152.722194 9.485865 Q 154.357936 11.658717 154.357936 15.662623 Q 154.357936 19.666529 152.722194 21.827174 Q 151.086452 23.987818 148.034694 23.987818 Z M 166.784694 38.392115 L 173.742702 38.392115 L 173.742702 2.405787 L 166.784694 2.405787 Z" transform="scale(1.000000,1.000000) translate(158.000000,204.000000)" fill="#f7f0ed" opacity="1.000000"></path>
    </g>
</svg>