<?xml version="1.0" encoding="UTF-8" standalone="yes"?>
<!DOCTYPE svg PUBLIC "-//W3C//DTD SVG 1.1//EN" "http://www.w3.org/Graphics/SVG/1.1/DTD/svg11.dtd">

<svg width="500" height="500" viewBox="0 0 500 500" xmlns="http://www.w3.org/2000/svg" xmlns:xlink="http://www.w3.org/1999/xlink" version="1.1" baseProfile="full">
    <g transform="scale(1,-1) translate(0,-500)">
        <path d="M 11.459813 296.833252 L 150.620949 256.566162 C 154.035316 255.578186 156.385246 252.451904 156.385246 248.897491 L 156.385246 49.128689 C 156.385246 45.562431 154.019920 42.428738 150.590248 41.451199 L 11.428187 1.786546 C 6.329462 0.333283 1.256655 4.162245 1.256655 9.464035 L 1.256655 126.810410 C 1.256655 130.382935 3.630130 133.520508 7.067874 134.492508 L 81.609299 155.568359 L 81.624161 140.199982 L 7.082735 161.120224 C 3.637581 162.087128 1.256628 165.228317 1.256655 168.806580 L 1.257581 289.164673 C 1.257623 294.479706 6.354197 298.310608 11.459813 296.833252 Z M 7.021862 281.495941 L 17.224094 289.164551 L 17.223167 168.806458 L 11.397088 176.492798 L 85.938515 155.572556 C 93.698822 153.394592 93.709457 142.397125 85.953377 140.204178 L 11.411950 119.128311 L 17.223167 126.810410 L 17.223167 9.464035 L 7.051636 17.141523 L 146.213707 56.806175 L 140.418724 49.128689 L 140.418724 248.897491 L 146.183006 241.228821 L 7.021862 281.495941 Z" transform="scale(1.000000,1.000000) translate(149.000000,100.000000)" opacity="1.000000"> fill="currentColor"</path>
        <path d="M 9.791288 17.383581 L 96.240501 17.383587 C 100.649528 17.383587 104.223755 13.809361 104.223755 9.400330 C 104.223755 4.991300 100.649528 1.417074 96.240501 1.417074 L 9.791289 1.417071 C 5.382258 1.417071 1.808032 4.991296 1.808032 9.400326 C 1.808032 13.809358 5.382258 17.383581 9.791288 17.383581 Z" transform="scale(1.000000,1.000000) translate(62.000000,336.000000)" opacity="1.000000"> fill="currentColor"</path>
        <path d="M 96.239914 1.674444 L 9.791289 1.674444 C 5.382258 1.674444 1.808032 5.248669 1.808032 9.657700 C 1.808032 14.066730 5.382258 17.640957 9.791289 17.640957 L 96.239914 17.640957 C 100.648949 17.640957 104.223167 14.066730 104.223167 9.657700 C 104.223167 5.248669 100.648949 1.674444 96.239914 1.674444 Z" transform="scale(1.000000,1.000000) translate(62.000000,134.000000)" opacity="1.000000"> fill="currentColor"</path>
        <path d="M 1.492269 9.164594 L 1.492269 49.516743 C 1.492269 53.925774 5.066494 57.500000 9.475525 57.500000 C 13.884554 57.500000 17.458780 53.925774 17.458780 49.516743 L 17.458780 9.164594 C 17.458780 4.755563 13.884554 1.181338 9.475525 1.181338 C 5.066494 1.181338 1.492269 4.755563 1.492269 9.164594 Z" transform="scale(1.000000,1.000000) translate(169.000000,380.000000)" opacity="1.000000"> fill="currentColor"</path>
        <path d="M 1.111599 9.824461 L 1.111599 79.832870 C 1.111599 84.241898 4.685824 87.816124 9.094854 87.816124 C 13.503886 87.816124 17.078110 84.241898 17.078110 79.832870 L 17.078110 9.824461 C 17.078110 5.415430 13.503886 1.841205 9.094854 1.841205 C 4.685824 1.841205 1.111599 5.415430 1.111599 9.824461 Z" transform="scale(1.000000,1.000000) translate(254.000000,349.000000)" opacity="1.000000"> fill="currentColor"</path>
        <path d="M 15.809328 51.328942 L 15.809328 7.315150 C 15.809328 4.093034 12.505198 1.480993 8.429347 1.480993 C 4.353495 1.480993 1.049366 4.093034 1.049366 7.315150 L 1.049366 51.328942 C 1.049366 54.551060 4.353495 57.163102 8.429347 57.163102 C 12.505198 57.163102 15.809328 54.551060 15.809328 51.328942 Z" transform="scale(1.000000,1.000000) translate(170.000000,58.000000)" opacity="1.000000"> fill="currentColor"</path>
        <path d="M 10.756021 17.028877 L 138.747032 17.652449 C 143.933525 17.677717 148.162102 14.124035 148.191811 9.715076 C 148.221535 5.306119 144.041161 1.711468 138.854683 1.686200 L 10.863664 1.062628 C 5.677179 1.037359 1.448605 4.591042 1.418880 9.000000 C 1.389155 13.408959 5.569536 17.003609 10.756021 17.028877 Z" transform="scale(1.000000,1.000000) translate(288.000000,241.000000)" opacity="1.000000"> fill="currentColor"</path>
        <path d="M 16.565931 74.154304 L 16.565931 10.003391 C 16.565931 5.307097 13.102612 1.500000 8.830392 1.500000 C 4.558172 1.500000 1.094854 5.307097 1.094854 10.003391 L 1.094854 74.154304 C 1.094854 78.850602 4.558172 82.657700 8.830392 82.657700 C 13.102612 82.657700 16.565931 78.850602 16.565931 74.154304 Z" transform="scale(1.000000,1.000000) translate(262.000000,61.000000)" opacity="1.000000"> fill="currentColor"</path>
    </g>
</svg>