<?xml version="1.0" encoding="UTF-8" standalone="yes"?>
<!DOCTYPE svg PUBLIC "-//W3C//DTD SVG 1.1//EN" "http://www.w3.org/Graphics/SVG/1.1/DTD/svg11.dtd">

<svg width="500" height="500" viewBox="0 0 500 500" xmlns="http://www.w3.org/2000/svg" xmlns:xlink="http://www.w3.org/1999/xlink" version="1.1" baseProfile="full">
    <g transform="scale(1,-1) translate(0,-500)">
        <path d="M 17.826673 1.124975 L 5.170327 1.124975 C 2.900897 1.124975 1.061162 2.964711 1.061162 5.234140 C 1.061162 7.503570 2.900897 9.343306 5.170327 9.343306 L 17.826673 9.343306 C 20.096102 9.343306 21.935838 7.503570 21.935838 5.234140 C 21.935838 2.964711 20.096102 1.124975 17.826673 1.124975 Z" transform="scale(3.600000,3.600000) translate(18.611112,38.888890)" opacity="1.000000" fill="currentColor"> fill="currentColor"</path>
        <path d="M 15.153405 1.011190 L 5.321912 1.011190 C 3.052482 1.011190 1.212747 2.850926 1.212747 5.120356 C 1.212747 7.389785 3.052482 9.229521 5.321912 9.229521 L 15.153405 9.229521 C 17.422835 9.229521 19.262571 7.389785 19.262571 5.120356 C 19.262571 2.850926 17.422835 1.011190 15.153405 1.011190 Z" transform="scale(3.600000,3.600000) translate(105.277781,63.333335)" opacity="1.000000" fill="currentColor"> fill="currentColor"</path>
        <path d="M 9.352402 66.329302 C 9.352402 52.182507 9.352402 52.182507 9.352402 39.422502 C 9.352402 37.475361 9.352402 37.475361 9.352402 35.523292 C 9.352402 21.693612 9.352402 21.693612 9.352402 5.678959 L 5.281185 9.787949 L 41.149500 9.456683 C 61.332322 9.656220 70.635583 18.089921 70.635583 35.837252 L 70.637719 35.704787 C 70.055185 53.766085 60.699374 62.312203 41.082556 62.450625 C 23.217709 62.296983 11.253748 62.220137 5.243236 62.220137 L 9.352402 66.329302 Z M 1.134071 66.329302 C 1.134071 68.598732 2.973807 70.438468 5.243236 70.438468 C 11.222463 70.438468 23.170711 70.515212 41.076328 70.668702 C 65.056704 70.499992 78.123025 58.564486 78.851778 35.969717 L 78.853914 35.837252 C 78.853914 13.373526 65.735043 1.480855 41.152022 1.238727 L 5.205287 1.569969 C 2.950760 1.590791 1.134071 3.424336 1.134071 5.678959 C 1.134071 21.693612 1.134071 21.693612 1.134071 35.523292 C 1.134071 37.475361 1.134071 37.475361 1.134071 39.422502 C 1.134071 52.182507 1.134071 52.182507 1.134071 66.329302 Z" transform="scale(3.600000,3.600000) translate(32.777779,32.500001)" opacity="1.000000" fill="currentColor"> fill="currentColor"</path>
        <path d="M 18.986440 1.066384 L 5.170327 1.066384 C 2.900897 1.066384 1.061162 2.906120 1.061162 5.175549 C 1.061162 7.444978 2.900897 9.284714 5.170327 9.284714 L 18.986440 9.284714 C 21.255869 9.284714 23.095605 7.444978 23.095605 5.175549 C 23.095605 2.906120 21.255869 1.066384 18.986440 1.066384 Z" transform="scale(3.600000,3.600000) translate(18.611112,88.888891)" opacity="1.000000" fill="currentColor"> fill="currentColor"</path>
    </g>
</svg>