<?xml version="1.0" encoding="UTF-8" standalone="yes"?>
<!DOCTYPE svg PUBLIC "-//W3C//DTD SVG 1.1//EN" "http://www.w3.org/Graphics/SVG/1.1/DTD/svg11.dtd">

<svg width="500" height="500" viewBox="0 0 500 500" xmlns="http://www.w3.org/2000/svg" xmlns:xlink="http://www.w3.org/1999/xlink" version="1.1" baseProfile="full">
    <g transform="scale(1,-1) translate(0,-500)">
        <path d="M 16.799113 25.204680 L 176.320593 25.204680 C 174.468071 25.204680 172.966306 23.294349 172.966306 20.937838 L 172.966306 357.062164 C 172.966306 354.705657 174.468071 352.795319 176.320593 352.795319 L 16.799113 352.795319 C 18.651635 352.795319 20.153404 354.705657 20.153404 357.062164 L 20.153404 20.937838 C 20.153404 23.294349 18.651635 25.204680 16.799113 25.204680 Z M 16.799113 1.500000 C 8.359837 1.500000 1.518452 10.202615 1.518452 20.937838 L 1.518452 357.062164 C 1.518452 367.797404 8.359837 376.500000 16.799113 376.500000 L 176.320593 376.500000 C 184.759871 376.500000 191.601254 367.797404 191.601254 357.062164 L 191.601254 20.937838 C 191.601254 10.202615 184.759871 1.500000 176.320593 1.500000 L 16.799113 1.500000 Z" transform="scale(1.000000,1.000000) translate(152.000000,61.000000)" fill="#f7f0ed" opacity="1.000000"></path>
        <path d="M 8.438894 20.626824 L 78.719093 20.626827 C 82.786071 20.626827 86.083010 16.432946 86.083010 11.259526 C 86.083010 6.086109 82.786071 1.892225 78.719093 1.892225 L 8.438895 1.892221 C 4.371918 1.892221 1.074981 6.086104 1.074981 11.259522 C 1.074981 16.432940 4.371918 20.626824 8.438894 20.626824 Z" transform="scale(1.000000,1.000000) translate(83.000000,346.000000)" fill="#f7f0ed" opacity="1.000000"></path>
        <path d="M 9.155000 20.367305 L 79.435192 20.367309 C 83.502171 20.367309 86.799109 16.173425 86.799109 11.000007 C 86.799109 5.826590 83.502171 1.632706 79.435192 1.632705 L 9.155001 1.632703 C 5.088024 1.632702 1.791087 5.826585 1.791087 11.000004 C 1.791087 16.173420 5.088024 20.367305 9.155000 20.367305 Z" transform="scale(1.000000,1.000000) translate(82.000000,239.000000)" fill="#f7f0ed" opacity="1.000000"></path>
        <path d="M 8.438881 19.848532 L 78.719079 19.848711 C 82.786051 19.848719 86.082996 15.654844 86.083010 10.481428 C 86.083010 5.308010 82.786085 1.114118 78.719106 1.114108 L 8.438910 1.113929 C 4.371933 1.113918 1.074989 5.307794 1.074981 10.481212 C 1.074974 15.654630 4.371903 19.848522 8.438881 19.848532 Z" transform="scale(1.000000,1.000000) translate(83.000000,132.000000)" fill="#f7f0ed" opacity="1.000000"></path>
        <path d="M 9.300892 20.229884 L 81.844996 20.229884 C 85.911975 20.229884 89.208913 16.036002 89.208913 10.862582 C 89.208913 5.689164 85.911975 1.495282 81.844996 1.495282 L 9.300892 1.495282 C 5.233916 1.495282 1.936979 5.689164 1.936979 10.862582 C 1.936979 16.036002 5.233916 20.229884 9.300892 20.229884 Z" transform="scale(1.000000,1.000000) translate(327.000000,237.000000)" fill="#f7f0ed" opacity="1.000000"></path>
        <path d="M 35.249868 232.985617 L 21.614508 232.985617 L 21.614508 279.682057 L 5.691022 279.682057 L 5.691022 288.741166 Q 11.995042 289.021345 14.516649 289.581702 Q 18.532543 290.468934 21.054151 293.130631 Q 22.781919 294.951792 23.669151 297.987061 Q 24.182812 299.808222 24.182812 300.695454 L 35.249868 300.695454 Z M 17.225043 117.985617 L 17.225043 187.469919 L 29.506206 187.469919 L 29.506206 117.985617 Z M 17.365132 57.200183 Q 15.123703 54.211611 15.217096 49.215092 L 2.795843 49.215092 Q 2.982629 54.258308 4.523611 58.787862 Q 6.157987 62.757060 9.660220 66.119203 Q 12.275220 68.500722 15.870846 69.761526 Q 19.466472 71.022330 24.696473 71.022330 Q 34.409333 71.022330 40.363129 66.002462 Q 46.316925 60.982595 46.316925 52.530540 Q 46.316925 46.553395 42.767995 42.444109 Q 40.526566 39.875804 38.098351 38.941876 Q 39.919512 38.941876 43.328352 35.813214 Q 48.418264 31.096874 48.418264 22.924997 Q 48.418264 14.332852 42.464468 7.818699 Q 36.510672 1.304546 24.836562 1.304546 Q 10.454059 1.304546 4.850486 10.690530 Q 1.908611 15.687049 1.581736 23.765533 L 14.656739 23.765533 Q 14.656739 19.702943 15.964239 17.041246 Q 18.392454 12.138119 24.789866 12.138119 Q 28.712367 12.138119 31.630894 14.823165 Q 34.549422 17.508210 34.549422 22.551425 Q 34.549422 29.229016 29.132635 31.470445 Q 26.050670 32.731249 19.419775 32.731249 L 19.419775 42.257323 Q 25.910581 42.350716 28.478885 43.518127 Q 32.915046 45.479377 32.915046 51.456521 Q 32.915046 55.332326 30.650269 57.760541 Q 28.385492 60.188756 24.276205 60.188756 Q 19.559865 60.188756 17.365132 57.200183 Z" transform="scale(1.000000,1.000000) translate(225.000000,99.000000)" fill="#f7f0ed" opacity="1.000000"></path>
    </g>
</svg>