<?xml version="1.0" encoding="UTF-8" standalone="yes"?>
<!DOCTYPE svg PUBLIC "-//W3C//DTD SVG 1.1//EN" "http://www.w3.org/Graphics/SVG/1.1/DTD/svg11.dtd">

<svg width="500" height="500" viewBox="0 0 500 500" xmlns="http://www.w3.org/2000/svg" xmlns:xlink="http://www.w3.org/1999/xlink" version="1.1" baseProfile="full">
    <g transform="scale(1,-1) translate(0,-500)">
        <path d="M 8.951985 19.536062 L 79.795158 19.536067 C 83.894721 19.536067 87.218063 15.545223 87.218063 10.622265 C 87.218063 5.699307 83.894721 1.708463 79.795158 1.708463 L 8.951985 1.708459 C 4.852431 1.708459 1.529084 5.699304 1.529084 10.622261 C 1.529084 15.545217 4.852431 19.536062 8.951985 19.536062 Z" transform="scale(1.000000,1.000000) translate(81.000000,410.000000)" fill="#f4ece8" opacity="1.000000"></path>
        <path d="M 8.951986 19.699609 L 79.795158 19.699614 C 83.894721 19.699614 87.218063 15.708769 87.218063 10.785812 C 87.218063 5.862856 83.894721 1.872010 79.795158 1.872010 L 8.951987 1.872006 C 4.852432 1.872006 1.529085 5.862851 1.529085 10.785807 C 1.529085 15.708766 4.852432 19.699609 8.951986 19.699609 Z" transform="scale(1.000000,1.000000) translate(81.000000,317.000000)" fill="#f4ece8" opacity="1.000000"></path>
        <path d="M 8.951984 18.875792 L 79.795158 18.875797 C 83.894721 18.875797 87.218063 14.884953 87.218063 9.961996 C 87.218063 5.039038 83.894721 1.048193 79.795158 1.048193 L 8.951985 1.048189 C 4.852430 1.048188 1.529083 5.039034 1.529083 9.961991 C 1.529083 14.884947 4.852430 18.875792 8.951984 18.875792 Z" transform="scale(1.000000,1.000000) translate(81.000000,243.000000)" fill="#f4ece8" opacity="1.000000"></path>
        <path d="M 8.951957 19.110677 L 79.795135 19.110846 C 83.894683 19.110858 87.218040 15.120019 87.218055 10.197060 C 87.218055 5.274105 83.894721 1.283252 79.795158 1.283242 L 8.951985 1.283072 C 4.852431 1.283062 1.529077 5.273899 1.529069 10.196855 C 1.529061 15.119813 4.852401 19.110665 8.951957 19.110677 Z" transform="scale(1.000000,1.000000) translate(81.000000,159.000000)" fill="#f4ece8" opacity="1.000000"></path>
        <path d="M 8.951984 19.215526 L 79.795158 19.215696 C 83.894714 19.215705 87.218063 15.224868 87.218078 10.301912 C 87.218078 5.378953 83.894744 1.388100 79.795188 1.388090 L 8.952013 1.387920 C 4.852459 1.387910 1.529105 5.378747 1.529097 10.301705 C 1.529089 15.224661 4.852428 19.215515 8.951984 19.215526 Z" transform="scale(1.000000,1.000000) translate(81.000000,75.000000)" fill="#f4ece8" opacity="1.000000"></path>
        <path d="M 8.922809 19.784843 L 82.048026 19.784843 C 86.147582 19.784843 89.470931 15.793999 89.470931 10.871042 C 89.470931 5.948084 86.147582 1.957238 82.048026 1.957238 L 8.922809 1.957238 C 4.823254 1.957238 1.499907 5.948084 1.499907 10.871042 C 1.499907 15.793999 4.823254 19.784843 8.922809 19.784843 Z" transform="scale(1.000000,1.000000) translate(328.000000,241.000000)" fill="#f4ece8" opacity="1.000000"></path>
        <path d="M 20.097259 28.604924 L 162.050124 28.604924 C 159.831298 28.604924 158.032592 26.444941 158.032592 23.780465 L 158.032592 430.143529 C 158.032592 427.479030 159.831298 425.319052 162.050124 425.319052 L 20.097259 425.319052 C 22.316081 425.319052 24.114793 427.479030 24.114793 430.143529 L 24.114793 23.780465 C 24.114793 26.444941 22.316081 28.604924 20.097259 28.604924 Z M 20.097259 1.802364 C 9.989288 1.802364 1.795161 11.642295 1.795161 23.780465 L 1.795161 430.143529 C 1.795161 442.281700 9.989288 452.121623 20.097259 452.121623 L 162.050124 452.121623 C 172.158095 452.121623 180.352218 442.281700 180.352218 430.143529 L 180.352218 23.780465 C 180.352218 11.642295 172.158095 1.802364 162.050124 1.802364 L 20.097259 1.802364 Z" transform="scale(1.000000,1.000000) translate(159.000000,26.000000)" fill="#f4ece8" opacity="1.000000"></path>
        <path d="M 34.116618 229.697906 L 20.756541 229.697906 L 20.756541 275.451569 L 5.154536 275.451569 L 5.154536 284.327789 Q 11.331283 284.602325 13.801982 285.151367 Q 17.736798 286.020691 20.207498 288.628632 Q 21.900384 290.413025 22.769704 293.387024 Q 23.272994 295.171417 23.272994 296.040741 L 34.116618 296.040741 Z M 16.455695 116.697899 L 16.455695 184.779388 L 28.488914 184.779388 L 28.488914 116.697899 Z M 23.639024 36.640553 Q 21.259832 36.640553 19.521192 36.045753 Q 16.455695 34.947666 14.900070 31.973677 L 3.187127 32.522720 L 7.854003 69.171417 L 44.411197 69.171417 L 44.411197 58.099030 L 17.279262 58.099030 L 14.900070 43.595112 Q 17.919814 45.562519 19.612701 46.203072 Q 22.449428 47.255405 26.521506 47.255405 Q 34.757167 47.255405 40.888164 41.719212 Q 47.019157 36.183014 47.019157 25.613914 Q 47.019157 16.417423 41.116931 9.188341 Q 35.214706 1.959259 23.456008 1.959259 Q 13.984997 1.959259 7.899757 7.037918 Q 1.814517 12.116577 1.128212 21.450329 L 14.122258 21.450329 Q 14.900070 17.195236 17.096248 14.884675 Q 19.292424 12.574114 23.501763 12.574114 Q 28.351653 12.574114 30.890983 15.982763 Q 33.430312 19.391413 33.430312 24.561579 Q 33.430312 29.640238 31.051120 33.140396 Q 28.671929 36.640553 23.639024 36.640553 Z" transform="scale(1.000000,1.000000) translate(226.000000,101.000000)" fill="#f4ece8" opacity="1.000000"></path>
    </g>
</svg>