<?xml version="1.0" encoding="UTF-8" standalone="yes"?>
<!DOCTYPE svg PUBLIC "-//W3C//DTD SVG 1.1//EN" "http://www.w3.org/Graphics/SVG/1.1/DTD/svg11.dtd">

<svg width="500" height="500" viewBox="0 0 500 500" xmlns="http://www.w3.org/2000/svg" xmlns:xlink="http://www.w3.org/1999/xlink" version="1.1" baseProfile="full">
    <g transform="scale(1,-1) translate(0,-500)">
        <path d="M 8.213448 16.659030 L 74.987896 16.659034 C 78.852002 16.659034 81.984475 13.335688 81.984475 9.236132 C 81.984475 5.136576 78.852002 1.813229 74.987896 1.813229 L 8.213448 1.813226 C 4.349343 1.813226 1.216866 5.136572 1.216866 9.236128 C 1.216866 13.335683 4.349343 16.659030 8.213448 16.659030 Z" transform="scale(1.000000,1.000000) translate(91.000000,436.000000)" fill="#f0e7e2" opacity="1.000000"></path>
        <path d="M 8.213442 16.040748 L 74.987889 16.040750 C 78.851995 16.040750 81.984475 12.717405 81.984475 8.617849 C 81.984475 4.518293 78.851995 1.194948 74.987889 1.194948 L 8.213443 1.194944 C 4.349337 1.194944 1.216859 4.518291 1.216859 8.617847 C 1.216859 12.717404 4.349337 16.040748 8.213442 16.040748 Z" transform="scale(1.000000,1.000000) translate(91.000000,381.000000)" fill="#f0e7e2" opacity="1.000000"></path>
        <path d="M 8.213442 16.120395 L 74.987889 16.120399 C 78.851995 16.120399 81.984475 12.797053 81.984475 8.697497 C 81.984475 4.597940 78.851995 1.274594 74.987889 1.274594 L 8.213443 1.274590 C 4.349337 1.274590 1.216859 4.597937 1.216859 8.697492 C 1.216859 12.797048 4.349337 16.120395 8.213442 16.120395 Z" transform="scale(1.000000,1.000000) translate(91.000000,329.000000)" fill="#f0e7e2" opacity="1.000000"></path>
        <path d="M 8.213454 16.222817 L 74.987903 16.222819 C 78.852010 16.222819 81.984489 12.899473 81.984489 8.799917 C 81.984489 4.700361 78.852010 1.377014 74.987903 1.377014 L 8.213455 1.377011 C 4.349349 1.377011 1.216871 4.700357 1.216871 8.799913 C 1.216871 12.899469 4.349349 16.222817 8.213454 16.222817 Z" transform="scale(1.000000,1.000000) translate(91.000000,218.000000)" fill="#f0e7e2" opacity="1.000000"></path>
        <path d="M 8.213454 16.070535 L 74.987903 16.070539 C 78.852010 16.070539 81.984489 12.747190 81.984489 8.647635 C 81.984489 4.548080 78.852010 1.224733 74.987903 1.224733 L 8.213455 1.224730 C 4.349349 1.224730 1.216871 4.548076 1.216871 8.647632 C 1.216871 12.747187 4.349349 16.070535 8.213454 16.070535 Z" transform="scale(1.000000,1.000000) translate(91.000000,157.000000)" fill="#f0e7e2" opacity="1.000000"></path>
        <path d="M 8.213441 16.805064 L 74.987889 16.805207 C 78.851988 16.805214 81.984475 13.481873 81.984489 9.382318 C 81.984489 5.282763 78.852024 1.959410 74.987917 1.959401 L 8.213468 1.959260 C 4.349362 1.959251 1.216878 5.282590 1.216871 9.382146 C 1.216863 13.481704 4.349334 16.805056 8.213441 16.805064 Z" transform="scale(1.000000,1.000000) translate(91.000000,101.000000)" fill="#f0e7e2" opacity="1.000000"></path>
        <path d="M 8.213441 16.571902 L 74.987889 16.572042 C 78.851988 16.572051 81.984475 13.248710 81.984489 9.149155 C 81.984489 5.049598 78.852024 1.726245 74.987917 1.726238 L 8.213468 1.726095 C 4.349362 1.726088 1.216878 5.049428 1.216871 9.148984 C 1.216863 13.248538 4.349334 16.571895 8.213441 16.571902 Z" transform="scale(1.000000,1.000000) translate(91.000000,49.000000)" fill="#f0e7e2" opacity="1.000000"></path>
        <path d="M 8.213441 15.970497 L 74.987889 15.970641 C 78.851988 15.970650 81.984475 12.647310 81.984489 8.547753 C 81.984489 4.448199 78.852024 1.124844 74.987917 1.124836 L 8.213468 1.124695 C 4.349362 1.124686 1.216878 4.448026 1.216871 8.547582 C 1.216863 12.647139 4.349334 15.970492 8.213441 15.970497 Z" transform="scale(1.000000,1.000000) translate(91.000000,276.000000)" fill="#f0e7e2" opacity="1.000000"></path>
        <path d="M 8.861129 16.514423 L 77.786555 16.514423 C 81.650661 16.514423 84.783141 13.191079 84.783141 9.091523 C 84.783141 4.991966 81.650661 1.668619 77.786555 1.668619 L 8.861129 1.668619 C 4.997024 1.668619 1.864546 4.991966 1.864546 9.091523 C 1.864546 13.191079 4.997024 16.514423 8.861129 16.514423 Z" transform="scale(1.000000,1.000000) translate(323.000000,240.000000)" fill="#f0e7e2" opacity="1.000000"></path>
        <path d="M 19.099956 28.726095 L 152.900059 28.726095 C 150.808666 28.726095 149.113265 26.537697 149.113265 23.838171 L 149.113265 435.546993 C 149.113265 432.847415 150.808666 430.659034 152.900059 430.659034 L 19.099956 430.659034 C 21.191345 430.659034 22.886752 432.847415 22.886752 435.546993 L 22.886752 23.838171 C 22.886752 26.537697 21.191345 28.726095 19.099956 28.726095 Z M 19.099956 1.570945 C 9.572516 1.570945 1.849001 11.540321 1.849001 23.838171 L 1.849001 435.546993 C 1.849001 447.844846 9.572516 457.814190 19.099956 457.814190 L 152.900059 457.814190 C 162.427500 457.814190 170.151010 447.844846 170.151010 435.546993 L 170.151010 23.838171 C 170.151010 11.540321 162.427500 1.570945 152.900059 1.570945 L 19.099956 1.570945 Z" transform="scale(1.000000,1.000000) translate(164.000000,22.000000)" fill="#f0e7e2" opacity="1.000000"></path>
        <path d="M 32.379889 229.697910 L 19.787119 229.697910 L 19.787119 275.451578 L 5.081181 275.451578 L 5.081181 284.327783 Q 10.903181 284.602343 13.231981 285.151378 Q 16.940809 286.020710 19.269609 288.628648 Q 20.865268 290.413019 21.684660 293.387018 Q 22.159045 295.171418 22.159045 296.040750 L 32.379889 296.040750 Z M 15.733283 116.697904 L 15.733283 184.779400 L 27.075399 184.779400 L 27.075399 116.697904 Z M 6.676841 7.861485 Q 1.286101 13.717957 1.286101 22.090881 Q 1.286101 27.672831 3.679589 32.202445 Q 6.073077 36.732063 10.687550 39.019747 Q 6.159329 42.222503 4.800863 45.951429 Q 3.442396 49.680355 3.442396 52.928865 Q 3.442396 60.157947 8.574381 65.259485 Q 13.706366 70.361021 23.064689 70.361021 Q 32.423014 70.361021 37.554997 65.259485 Q 42.686984 60.157947 42.686984 52.928865 Q 42.686984 49.680355 41.328516 45.951429 Q 39.970049 42.222503 35.441829 39.477281 Q 40.056300 36.732063 42.385100 32.202445 Q 44.713900 27.672831 44.713900 22.090881 Q 44.713900 13.717957 38.870339 7.838609 Q 33.026778 1.959260 22.547178 1.959260 Q 12.067580 1.959260 6.676841 7.861485 Z M 14.051374 22.960200 Q 14.051374 18.064557 16.444861 15.365091 Q 18.838350 12.665623 23.064689 12.665623 Q 27.291030 12.665623 29.684516 15.365091 Q 32.078005 18.064557 32.078005 22.960200 Q 32.078005 28.038860 29.641391 30.669699 Q 27.204776 33.300537 23.064689 33.300537 Q 18.924601 33.300537 16.487987 30.669699 Q 14.051374 28.038860 14.051374 22.960200 Z M 17.285817 45.562521 Q 19.355860 43.274840 23.064689 43.274840 Q 26.816643 43.274840 28.865126 45.562521 Q 30.913607 47.850208 30.913607 51.464748 Q 30.913607 55.399565 28.865126 57.618617 Q 26.816643 59.837671 23.064689 59.837671 Q 19.355860 59.837671 17.264254 57.618617 Q 15.172645 55.399565 15.172645 51.464748 Q 15.172645 47.850208 17.285817 45.562521 Z" transform="scale(1.000000,1.000000) translate(227.000000,101.000000)" fill="#f0e7e2" opacity="1.000000"></path>
    </g>
</svg>