<?xml version="1.0" encoding="UTF-8" standalone="yes"?>
<!DOCTYPE svg PUBLIC "-//W3C//DTD SVG 1.1//EN" "http://www.w3.org/Graphics/SVG/1.1/DTD/svg11.dtd">

<svg width="500" height="500" viewBox="0 0 500 500" xmlns="http://www.w3.org/2000/svg" xmlns:xlink="http://www.w3.org/1999/xlink" version="1.1" baseProfile="full">
    <g transform="scale(1,-1) translate(0,-500)">
        <path d="M 8.951985 19.413849 L 79.795158 19.413854 C 83.894721 19.413854 87.218063 15.295512 87.218063 10.215274 C 87.218063 5.135038 83.894721 1.016692 79.795158 1.016692 L 8.951985 1.016689 C 4.852431 1.016689 1.529084 5.135033 1.529084 10.215269 C 1.529084 15.295506 4.852431 19.413849 8.951985 19.413849 Z" transform="scale(1.000000,1.000000) translate(81.000000,422.000000)" fill="#f4ece8" opacity="1.000000"></path>
        <path d="M 8.951986 19.756097 L 79.795158 19.756102 C 83.894721 19.756102 87.218063 15.637757 87.218063 10.557521 C 87.218063 5.477285 83.894721 1.358939 79.795158 1.358939 L 8.951987 1.358936 C 4.852432 1.358936 1.529085 5.477280 1.529085 10.557515 C 1.529085 15.637753 4.852432 19.756097 8.951986 19.756097 Z" transform="scale(1.000000,1.000000) translate(81.000000,281.000000)" fill="#f4ece8" opacity="1.000000"></path>
        <path d="M 8.951984 19.980362 L 79.795158 19.980367 C 83.894721 19.980367 87.218063 15.862022 87.218063 10.781786 C 87.218063 5.701550 83.894721 1.583205 79.795158 1.583205 L 8.951985 1.583202 C 4.852430 1.583200 1.529083 5.701546 1.529083 10.781782 C 1.529083 15.862017 4.852430 19.980362 8.951984 19.980362 Z" transform="scale(1.000000,1.000000) translate(81.000000,213.000000)" fill="#f4ece8" opacity="1.000000"></path>
        <path d="M 8.951957 20.075129 L 79.795135 20.075304 C 83.894683 20.075314 87.218040 15.956975 87.218055 10.876740 C 87.218055 5.796506 83.894721 1.678152 79.795158 1.678142 L 8.951985 1.677966 C 4.852431 1.677957 1.529077 5.796292 1.529069 10.876528 C 1.529061 15.956765 4.852401 20.075117 8.951957 20.075129 Z" transform="scale(1.000000,1.000000) translate(81.000000,138.000000)" fill="#f4ece8" opacity="1.000000"></path>
        <path d="M 8.951984 19.983223 L 79.795158 19.983398 C 83.894714 19.983405 87.218063 15.865070 87.218078 10.784836 C 87.218078 5.704598 83.894744 1.586246 79.795188 1.586236 L 8.952013 1.586060 C 4.852459 1.586050 1.529105 5.704386 1.529097 10.784623 C 1.529089 15.864857 4.852428 19.983213 8.951984 19.983223 Z" transform="scale(1.000000,1.000000) translate(81.000000,57.000000)" fill="#f4ece8" opacity="1.000000"></path>
        <path d="M 8.922809 20.072774 L 82.048026 20.072774 C 86.147582 20.072774 89.470931 15.954431 89.470931 10.874195 C 89.470931 5.793958 86.147582 1.675613 82.048026 1.675613 L 8.922809 1.675613 C 4.823254 1.675613 1.499907 5.793958 1.499907 10.874195 C 1.499907 15.954431 4.823254 20.072774 8.922809 20.072774 Z" transform="scale(1.000000,1.000000) translate(328.000000,238.000000)" fill="#f4ece8" opacity="1.000000"></path>
        <path d="M 20.097259 29.305808 L 162.050124 29.305808 C 159.831298 29.305808 158.032592 27.076817 158.032592 24.327216 L 158.032592 443.672791 C 158.032592 440.923166 159.831298 438.694181 162.050124 438.694181 L 20.097259 438.694181 C 22.316081 438.694181 24.114793 440.923166 24.114793 443.672791 L 24.114793 24.327216 C 24.114793 27.076817 22.316081 29.305808 20.097259 29.305808 Z M 20.097259 1.646958 C 9.989288 1.646958 1.795161 11.801256 1.795161 24.327216 L 1.795161 443.672791 C 1.795161 456.198753 9.989288 466.353042 20.097259 466.353042 L 162.050124 466.353042 C 172.158095 466.353042 180.352218 456.198753 180.352218 443.672791 L 180.352218 24.327216 C 180.352218 11.801256 172.158095 1.646958 162.050124 1.646958 L 20.097259 1.646958 Z" transform="scale(1.000000,1.000000) translate(159.000000,16.000000)" fill="#f4ece8" opacity="1.000000"></path>
        <path d="M 8.951985 19.991440 L 79.795158 19.991447 C 83.894721 19.991447 87.218070 15.873101 87.218070 10.792864 C 87.218070 5.712629 83.894721 1.594284 79.795158 1.594284 L 8.951985 1.594280 C 4.852430 1.594280 1.529083 5.712625 1.529083 10.792860 C 1.529083 15.873097 4.852430 19.991440 8.951985 19.991440 Z" transform="scale(1.000000,1.000000) translate(81.000000,352.000000)" fill="#f4ece8" opacity="1.000000"></path>
        <path d="M 33.681956 229.697906 L 20.321881 229.697906 L 20.321881 275.451569 L 4.719876 275.451569 L 4.719876 284.327789 Q 10.896623 284.602325 13.367322 285.151367 Q 17.302138 286.020691 19.772838 288.628632 Q 21.465724 290.413025 22.335044 293.387024 Q 22.838334 295.171417 22.838334 296.040741 L 33.681956 296.040741 Z M 16.021036 116.697899 L 16.021036 184.779388 L 28.054254 184.779388 L 28.054254 116.697899 Z M 26.864659 46.752117 Q 35.695121 46.752117 41.345698 40.758385 Q 46.996280 34.764652 46.996280 25.430899 Q 46.996280 16.142900 41.460082 9.051080 Q 35.923888 1.959259 24.256700 1.959259 Q 11.720189 1.959259 5.772210 12.436853 Q 1.151088 20.626762 1.151088 33.575054 Q 1.151088 41.170166 1.791640 45.928551 Q 2.935482 54.392982 6.229747 60.020683 Q 9.066476 64.824821 13.664721 67.753059 Q 18.262965 70.681290 24.668481 70.681290 Q 33.910728 70.681290 39.401168 65.945786 Q 44.891608 61.210281 45.577914 53.340645 L 32.583869 53.340645 Q 32.583869 54.942024 31.348519 56.863682 Q 29.243850 59.974930 24.988757 59.974930 Q 18.628995 59.974930 15.929527 52.837357 Q 14.465409 48.902538 13.916366 41.215919 Q 16.341312 44.098400 19.544068 45.425259 Q 22.746827 46.752117 26.864659 46.752117 Z M 18.079951 34.307114 Q 14.236642 31.333124 14.236642 24.698839 Q 14.236642 19.345659 17.119125 15.959886 Q 20.001605 12.574114 24.439714 12.574114 Q 28.786313 12.574114 31.279889 15.845502 Q 33.773463 19.116892 33.773463 24.332811 Q 33.773463 30.143528 30.936736 33.231903 Q 28.100007 36.320274 23.982177 36.320274 Q 20.642158 36.320274 18.079951 34.307114 Z" transform="scale(1.000000,1.000000) translate(226.000000,101.000000)" fill="#f4ece8" opacity="1.000000"></path>
    </g>
</svg>