<?xml version="1.0" encoding="UTF-8" standalone="yes"?>
<!DOCTYPE svg PUBLIC "-//W3C//DTD SVG 1.1//EN" "http://www.w3.org/Graphics/SVG/1.1/DTD/svg11.dtd">

<svg width="500" height="500" viewBox="0 0 500 500" xmlns="http://www.w3.org/2000/svg" xmlns:xlink="http://www.w3.org/1999/xlink" version="1.1" baseProfile="full">
    <g transform="scale(1,-1) translate(0,-500)">
        <path d="M 16.799115 25.204679 L 176.320600 25.204679 C 174.468076 25.204679 172.966306 23.294350 172.966306 20.937838 L 172.966306 357.062164 C 172.966306 354.705658 174.468076 352.795319 176.320600 352.795319 L 16.799115 352.795319 C 18.651637 352.795319 20.153407 354.705658 20.153407 357.062164 L 20.153407 20.937838 C 20.153407 23.294350 18.651637 25.204679 16.799115 25.204679 Z M 16.799115 1.500000 C 8.359839 1.500000 1.518454 10.202615 1.518454 20.937838 L 1.518454 357.062164 C 1.518454 367.797394 8.359839 376.500000 16.799115 376.500000 L 176.320600 376.500000 C 184.759870 376.500000 191.601255 367.797394 191.601255 357.062164 L 191.601255 20.937838 C 191.601255 10.202615 184.759870 1.500000 176.320600 1.500000 L 16.799115 1.500000 Z" transform="scale(1.000000,1.000000) translate(152.000000,61.000000)" fill="#f7f0ed" opacity="1.000000"></path>
        <path d="M 9.155000 20.006891 L 79.435201 20.006893 C 83.502179 20.006893 86.799115 15.813012 86.799115 10.639593 C 86.799115 5.466175 83.502179 1.272292 79.435201 1.272292 L 9.155001 1.272288 C 5.088024 1.272288 1.791087 5.466171 1.791087 10.639589 C 1.791087 15.813007 5.088024 20.006891 9.155000 20.006891 Z" transform="scale(1.000000,1.000000) translate(82.000000,317.000000)" fill="#f7f0ed" opacity="1.000000"></path>
        <path d="M 9.154986 20.083330 L 79.435186 20.083509 C 83.502156 20.083517 86.799100 15.889642 86.799115 10.716226 C 86.799115 5.542808 83.502187 1.348916 79.435209 1.348906 L 9.155015 1.348727 C 5.088039 1.348716 1.791095 5.542592 1.791087 10.716010 C 1.791079 15.889428 5.088009 20.083321 9.154986 20.083330 Z" transform="scale(1.000000,1.000000) translate(82.000000,158.000000)" fill="#f7f0ed" opacity="1.000000"></path>
        <path d="M 9.300895 20.229883 L 81.844999 20.229883 C 85.911977 20.229883 89.208913 16.036001 89.208913 10.862582 C 89.208913 5.689164 85.911977 1.495282 81.844999 1.495282 L 9.300895 1.495282 C 5.233918 1.495282 1.936981 5.689164 1.936981 10.862582 C 1.936981 16.036001 5.233918 20.229883 9.300895 20.229883 Z" transform="scale(1.000000,1.000000) translate(327.000000,237.000000)" fill="#f7f0ed" opacity="1.000000"></path>
        <path d="M 33.762809 223.002162 L 20.472645 223.002162 L 20.472645 268.516421 L 4.952282 268.516421 L 4.952282 277.346188 Q 11.096707 277.619273 13.554477 278.165444 Q 17.468704 279.030215 19.926474 281.624528 Q 21.610501 283.399584 22.475272 286.358011 Q 22.975929 288.133067 22.975929 288.997838 L 33.762809 288.997838 Z M 16.194304 112.002162 L 16.194304 179.727380 L 28.164555 179.727380 L 28.164555 112.002162 Z M 30.895410 53.571132 Q 28.574183 56.347501 24.250328 56.347501 Q 18.333475 56.347501 16.194304 51.932618 Q 14.965419 49.383820 14.737848 43.831080 L 2.130398 43.831080 Q 2.448998 52.251218 5.179854 57.439844 Q 10.368479 67.316438 23.613129 67.316438 Q 34.081408 67.316438 40.271348 61.513370 Q 46.461287 55.710302 46.461287 46.152307 Q 46.461287 38.824512 42.091918 33.135229 Q 39.224520 29.357546 32.670466 24.715091 L 27.481841 21.028436 Q 22.611815 17.569352 20.814002 16.021868 Q 19.016189 14.474383 17.787304 12.426241 L 46.597830 12.426241 L 46.597830 1.002162 L 1.402170 1.002162 Q 1.584227 8.102386 4.451626 13.973726 Q 7.227995 20.573293 17.559732 27.946603 Q 26.526041 34.364114 29.165868 37.140484 Q 33.216638 41.464339 33.216638 46.607450 Q 33.216638 50.794762 30.895410 53.571132 Z" transform="scale(1.000000,1.000000) translate(226.000000,105.000000)" fill="#f7f0ed" opacity="1.000000"></path>
    </g>
</svg>