<?xml version="1.0" encoding="UTF-8" standalone="yes"?>
<!DOCTYPE svg PUBLIC "-//W3C//DTD SVG 1.1//EN" "http://www.w3.org/Graphics/SVG/1.1/DTD/svg11.dtd">

<svg width="500" height="500" viewBox="0 0 500 500" xmlns="http://www.w3.org/2000/svg" xmlns:xlink="http://www.w3.org/1999/xlink" version="1.1" baseProfile="full">
    <g transform="scale(1,-1) translate(0,-500)">
        <path d="M 19.158848 28.884950 L 199.268585 28.884950 C 197.176971 28.884950 195.481384 26.702201 195.481384 24.009643 L 195.481384 408.066350 C 195.481384 405.373795 197.176971 403.191048 199.268585 403.191048 L 19.158848 403.191048 C 21.250462 403.191048 22.946053 405.373795 22.946053 408.066350 L 22.946053 24.009643 C 22.946053 26.702201 21.250462 28.884950 19.158848 28.884950 Z M 19.158848 1.799909 C 9.630377 1.799909 1.906025 11.743544 1.906025 24.009643 L 1.906025 408.066350 C 1.906025 420.332450 9.630377 430.276104 19.158848 430.276104 L 199.268585 430.276104 C 208.797058 430.276104 216.521408 420.332450 216.521408 408.066350 L 216.521408 24.009643 C 216.521408 11.743544 208.797058 1.799909 199.268585 1.799909 L 19.158848 1.799909 Z" transform="scale(1.000000,1.000000) translate(139.000000,31.000000)" fill="#f4ece8" opacity="1.000000"></path>
        <path d="M 9.814319 22.518958 L 89.165062 22.518963 C 93.756935 22.518963 97.479378 17.727020 97.479378 11.815855 C 97.479378 5.904691 93.756935 1.112746 89.165062 1.112746 L 9.814320 1.112742 C 5.222448 1.112742 1.500000 5.904687 1.500000 11.815850 C 1.500000 17.727012 5.222448 22.518958 9.814319 22.518958 Z" transform="scale(1.000000,1.000000) translate(61.000000,379.000000)" fill="#f4ece8" opacity="1.000000"></path>
        <path d="M 9.814319 23.118199 L 89.165062 23.118204 C 93.756935 23.118204 97.479385 18.326260 97.479385 12.415096 C 97.479385 6.503933 93.756935 1.711989 89.165062 1.711989 L 9.814320 1.711984 C 5.222448 1.711984 1.500000 6.503928 1.500000 12.415091 C 1.500000 18.326256 5.222448 23.118199 9.814319 23.118199 Z" transform="scale(1.000000,1.000000) translate(61.000000,281.000000)" fill="#f4ece8" opacity="1.000000"></path>
        <path d="M 9.814319 22.717443 L 89.165062 22.717448 C 93.756935 22.717450 97.479385 17.925505 97.479385 12.014341 C 97.479385 6.103177 93.756935 1.311232 89.165062 1.311231 L 9.814320 1.311229 C 5.222448 1.311227 1.500000 6.103173 1.500000 12.014336 C 1.500000 17.925498 5.222448 22.717443 9.814319 22.717443 Z" transform="scale(1.000000,1.000000) translate(61.000000,184.000000)" fill="#f4ece8" opacity="1.000000"></path>
        <path d="M 9.814303 23.134397 L 89.165047 23.134601 C 93.756912 23.134613 97.479370 18.342676 97.479385 12.431515 C 97.479385 6.520351 93.756950 1.728395 89.165077 1.728385 L 9.814336 1.728180 C 5.222465 1.728169 1.500009 6.520104 1.500000 12.431266 C 1.499991 18.342429 5.222431 23.134385 9.814303 23.134397 Z" transform="scale(1.000000,1.000000) translate(61.000000,85.000000)" fill="#f4ece8" opacity="1.000000"></path>
        <path d="M 10.278842 23.298885 L 92.185677 23.298885 C 96.777550 23.298885 100.500000 18.506941 100.500000 12.595777 C 100.500000 6.684614 96.777550 1.892669 92.185677 1.892669 L 10.278842 1.892669 C 5.686971 1.892669 1.964523 6.684614 1.964523 12.595777 C 1.964523 18.506941 5.686971 23.298885 10.278842 23.298885 Z" transform="scale(1.000000,1.000000) translate(337.000000,232.000000)" fill="#f4ece8" opacity="1.000000"></path>
        <path d="M 30.860001 217.442944 Q 25.501434 222.930112 25.501434 230.775052 Q 25.501434 236.005017 27.880638 240.249005 Q 30.259842 244.492978 34.846771 246.636410 Q 30.345577 249.637204 28.995220 253.130994 Q 27.644861 256.624783 27.644861 259.668454 Q 27.644861 266.441678 32.746216 271.221524 Q 37.847569 276.001340 47.150040 276.001340 Q 56.452511 276.001340 61.553864 271.221524 Q 66.655220 266.441678 66.655220 259.668454 Q 66.655220 256.624783 65.304863 253.130994 Q 63.954502 249.637204 59.453304 247.065091 Q 64.040237 244.492978 66.355141 240.249005 Q 68.670036 236.005017 68.670036 230.775052 Q 68.670036 222.930112 62.861355 217.421506 Q 57.052670 211.912900 46.635616 211.912900 Q 36.218567 211.912900 30.860001 217.442944 Z M 38.190517 231.589566 Q 38.190517 227.002621 40.569721 224.473386 Q 42.948925 221.944134 47.150040 221.944134 Q 51.351154 221.944134 53.730358 224.473386 Q 56.109562 227.002621 56.109562 231.589566 Q 56.109562 236.347958 53.687489 238.812909 Q 51.265419 241.277844 47.150040 241.277844 Q 43.034660 241.277844 40.612591 238.812909 Q 38.190517 236.347958 38.190517 231.589566 Z M 41.405659 252.766614 Q 43.463348 250.623181 47.150040 250.623181 Q 50.879601 250.623181 52.915855 252.766614 Q 54.952110 254.910031 54.952110 258.296658 Q 54.952110 261.983334 52.915855 264.062466 Q 50.879601 266.141598 47.150040 266.141598 Q 43.463348 266.141598 41.384224 264.062466 Q 39.305099 261.983334 39.305099 258.296658 Q 39.305099 254.910031 41.405659 252.766614 Z M 39.862392 108.541913 L 39.862392 172.330273 L 51.136814 172.330273 L 51.136814 108.541913 Z M 15.577371 53.312268 Q 13.519682 50.568681 13.605419 45.981751 L 2.202392 45.981751 Q 2.373866 50.611550 3.788527 54.769795 Q 5.288925 58.413621 8.504065 61.500157 Q 10.904702 63.686452 14.205579 64.843899 Q 17.506454 66.001347 22.307730 66.001347 Q 31.224382 66.001347 36.690121 61.392983 Q 42.155857 56.784619 42.155857 49.025414 Q 42.155857 43.538243 38.897850 39.765813 Q 36.840160 37.408044 34.610996 36.550675 Q 36.282867 36.550675 39.412270 33.678483 Q 44.084942 29.348761 44.084942 21.846770 Q 44.084942 13.958962 38.619202 7.978802 Q 33.153465 1.998643 22.436335 1.998643 Q 9.232830 1.998643 4.088607 10.615217 Q 1.387890 15.202149 1.087810 22.618403 L 13.090997 22.618403 Q 13.090997 18.888842 14.291316 16.445336 Q 16.520479 11.944141 22.393467 11.944141 Q 25.994423 11.944141 28.673706 14.409081 Q 31.352987 16.874020 31.352987 21.503821 Q 31.352987 27.634021 26.380239 29.691710 Q 23.550917 30.849160 17.463587 30.849160 L 17.463587 39.594338 Q 23.422312 39.680077 25.780081 40.751790 Q 29.852591 42.552270 29.852591 48.039437 Q 29.852591 51.597527 27.773466 53.826691 Q 25.694344 56.055852 21.921913 56.055852 Q 17.592192 56.055852 15.577371 53.312268 Z M 78.122551 53.055054 Q 75.936256 55.670037 71.863747 55.670037 Q 66.290833 55.670037 64.276016 51.511788 Q 63.118565 49.111153 62.904224 43.881192 L 51.029640 43.881192 Q 51.329720 51.811867 53.901833 56.698880 Q 58.788845 66.001347 71.263588 66.001347 Q 81.123344 66.001347 86.953468 60.535615 Q 92.783585 55.069878 92.783585 46.067487 Q 92.783585 39.165654 88.668205 33.807088 Q 85.967491 30.249001 79.794418 25.876412 L 74.907410 22.404061 Q 70.320480 19.146052 68.627174 17.688523 Q 66.933861 16.230992 65.776413 14.301910 L 92.912193 14.301910 L 92.912193 3.541910 L 50.343746 3.541910 Q 50.515221 10.229399 53.215935 15.759440 Q 55.830917 21.975377 65.562073 28.920077 Q 74.007172 34.964539 76.493546 37.579518 Q 80.308846 41.652028 80.308846 46.496171 Q 80.308846 50.440076 78.122551 53.055054 Z" transform="scale(1.000000,1.000000) translate(203.000000,111.000000)" fill="#f4ece8" opacity="1.000000"></path>
    </g>
</svg>