<?xml version="1.0" encoding="UTF-8" standalone="yes"?>
<!DOCTYPE svg PUBLIC "-//W3C//DTD SVG 1.1//EN" "http://www.w3.org/Graphics/SVG/1.1/DTD/svg11.dtd">

<svg width="500" height="500" viewBox="0 0 500 500" xmlns="http://www.w3.org/2000/svg" xmlns:xlink="http://www.w3.org/1999/xlink" version="1.1" baseProfile="full">
    <g transform="scale(1,-1) translate(0,-500)">
        <path d="M 16.799115 25.204679 L 176.320600 25.204679 C 174.468076 25.204679 172.966306 23.294350 172.966306 20.937838 L 172.966306 357.062164 C 172.966306 354.705658 174.468076 352.795319 176.320600 352.795319 L 16.799115 352.795319 C 18.651637 352.795319 20.153407 354.705658 20.153407 357.062164 L 20.153407 20.937838 C 20.153407 23.294350 18.651637 25.204679 16.799115 25.204679 Z M 16.799115 1.500000 C 8.359839 1.500000 1.518454 10.202615 1.518454 20.937838 L 1.518454 357.062164 C 1.518454 367.797394 8.359839 376.500000 16.799115 376.500000 L 176.320600 376.500000 C 184.759870 376.500000 191.601255 367.797394 191.601255 357.062164 L 191.601255 20.937838 C 191.601255 10.202615 184.759870 1.500000 176.320600 1.500000 L 16.799115 1.500000 Z" transform="scale(1.000000,1.000000) translate(152.000000,61.000000)" fill="#f7f0ed" opacity="1.000000"></path>
        <path d="M 9.155000 20.006891 L 79.435201 20.006893 C 83.502179 20.006893 86.799115 15.813012 86.799115 10.639593 C 86.799115 5.466175 83.502179 1.272292 79.435201 1.272292 L 9.155001 1.272288 C 5.088024 1.272288 1.791087 5.466171 1.791087 10.639589 C 1.791087 15.813007 5.088024 20.006891 9.155000 20.006891 Z" transform="scale(1.000000,1.000000) translate(82.000000,317.000000)" fill="#f7f0ed" opacity="1.000000"></path>
        <path d="M 9.154986 20.083330 L 79.435186 20.083509 C 83.502156 20.083517 86.799100 15.889642 86.799115 10.716226 C 86.799115 5.542808 83.502187 1.348916 79.435209 1.348906 L 9.155015 1.348727 C 5.088039 1.348716 1.791095 5.542592 1.791087 10.716010 C 1.791079 15.889428 5.088009 20.083321 9.154986 20.083330 Z" transform="scale(1.000000,1.000000) translate(82.000000,158.000000)" fill="#f7f0ed" opacity="1.000000"></path>
        <path d="M 9.300895 20.229883 L 81.844999 20.229883 C 85.911977 20.229883 89.208913 16.036001 89.208913 10.862582 C 89.208913 5.689164 85.911977 1.495282 81.844999 1.495282 L 9.300895 1.495282 C 5.233918 1.495282 1.936981 5.689164 1.936981 10.862582 C 1.936981 16.036001 5.233918 20.229883 9.300895 20.229883 Z" transform="scale(1.000000,1.000000) translate(327.000000,237.000000)" fill="#f7f0ed" opacity="1.000000"></path>
        <path d="M 28.656440 229.849431 Q 22.967157 235.675256 22.967157 244.004365 Q 22.967157 249.557105 25.493199 254.063017 Q 28.019240 258.568928 32.889266 260.844641 Q 28.110269 264.030639 26.676569 267.740052 Q 25.242870 271.449464 25.242870 274.680976 Q 25.242870 281.872229 30.659067 286.947069 Q 36.075264 292.021909 45.951858 292.021909 Q 55.828453 292.021909 61.244650 286.947069 Q 66.660846 281.872229 66.660846 274.680976 Q 66.660846 271.449464 65.227147 267.740052 Q 63.793448 264.030639 59.014451 261.299784 Q 63.884477 258.568928 66.342247 254.063017 Q 68.800017 249.557105 68.800017 244.004365 Q 68.800017 235.675256 62.632834 229.826673 Q 56.465652 223.978091 45.405687 223.978091 Q 34.345722 223.978091 28.656440 229.849431 Z M 36.439378 244.869136 Q 36.439378 239.999110 38.965419 237.313769 Q 41.491461 234.628428 45.951858 234.628428 Q 50.412256 234.628428 52.938297 237.313769 Q 55.464339 239.999110 55.464339 244.869136 Q 55.464339 249.921219 52.892783 252.538289 Q 50.321227 255.155359 45.951858 255.155359 Q 41.582489 255.155359 39.010934 252.538289 Q 36.439378 249.921219 36.439378 244.869136 Z M 39.852948 267.353180 Q 42.037632 265.077467 45.951858 265.077467 Q 49.911599 265.077467 52.073526 267.353180 Q 54.235454 269.628893 54.235454 273.224520 Q 54.235454 277.138746 52.073526 279.346188 Q 49.911599 281.553629 45.951858 281.553629 Q 42.037632 281.553629 39.830190 279.346188 Q 37.622749 277.138746 37.622749 273.224520 Q 37.622749 269.628893 39.852948 267.353180 Z M 38.214434 114.707633 L 38.214434 182.432851 L 50.184684 182.432851 L 50.184684 114.707633 Z M 29.862568 3.707633 L 16.572404 3.707633 L 16.572404 49.221892 L 1.052041 49.221892 L 1.052041 58.051659 Q 7.196466 58.324744 9.654236 58.870915 Q 13.568463 59.735686 16.026233 62.329999 Q 17.710260 64.105055 18.575031 67.063482 Q 19.075688 68.838538 19.075688 69.703309 L 29.862568 69.703309 Z M 74.921684 46.536551 Q 83.705937 46.536551 89.326948 40.574183 Q 94.947959 34.611815 94.947959 25.326906 Q 94.947959 16.087511 89.440733 9.032801 Q 83.933508 1.978091 72.327372 1.978091 Q 59.856465 1.978091 53.939611 12.400856 Q 49.342671 20.547909 49.342671 33.428444 Q 49.342671 40.983811 49.979870 45.717294 Q 51.117727 54.137432 54.394753 59.735686 Q 57.216638 64.514684 61.790821 67.427596 Q 66.365004 70.340509 72.737000 70.340509 Q 81.930880 70.340509 87.392592 65.629783 Q 92.854303 60.919057 93.537017 53.090604 L 80.610967 53.090604 Q 80.610967 54.683604 79.382082 56.595202 Q 77.288426 59.690172 73.055600 59.690172 Q 66.729118 59.690172 64.043776 52.589948 Q 62.587320 48.675721 62.041149 41.029326 Q 64.453405 43.896724 67.639403 45.216638 Q 70.825401 46.536551 74.921684 46.536551 Z M 66.182947 34.156672 Q 62.359749 31.198246 62.359749 24.598678 Q 62.359749 19.273510 65.227147 15.905454 Q 68.094546 12.537399 72.509429 12.537399 Q 76.833283 12.537399 79.313811 15.791669 Q 81.794338 19.045938 81.794338 24.234564 Q 81.794338 30.014875 78.972454 33.087087 Q 76.150569 36.159300 72.054286 36.159300 Q 68.731745 36.159300 66.182947 34.156672 Z" transform="scale(1.000000,1.000000) translate(202.000000,103.000000)" fill="#f7f0ed" opacity="1.000000"></path>
    </g>
</svg>