<?xml version="1.0" encoding="UTF-8" standalone="yes"?>
<!DOCTYPE svg PUBLIC "-//W3C//DTD SVG 1.1//EN" "http://www.w3.org/Graphics/SVG/1.1/DTD/svg11.dtd">

<svg width="500" height="500" viewBox="0 0 500 500" xmlns="http://www.w3.org/2000/svg" xmlns:xlink="http://www.w3.org/1999/xlink" version="1.1" baseProfile="full">
    <g transform="scale(1,-1) translate(0,-500)">
        <path d="M 170.517901 396.956629 L 16.536411 396.956658 C 18.324607 396.956658 19.774215 399.108426 19.774215 401.762753 L 19.774184 23.159584 C 19.774184 25.813919 18.324578 27.965663 16.536383 27.965663 L 170.517875 27.965637 C 168.729688 27.965637 167.280064 25.813893 167.280064 23.159558 L 167.280103 401.762695 C 167.280103 399.108397 168.729714 396.956629 170.517901 396.956629 Z M 170.517901 423.657036 C 178.664093 423.657036 185.267883 413.854620 185.267883 401.762695 L 185.267857 23.159557 C 185.267857 11.067635 178.664054 1.265201 170.517875 1.265202 L 16.536380 1.265229 C 8.390190 1.265230 1.786401 11.067668 1.786401 23.159588 L 1.786431 401.762753 C 1.786432 413.854678 8.390224 423.657095 16.536414 423.657095 L 170.517901 423.657036 Z" transform="scale(1.000000,1.000000) translate(158.000000,35.000000)" fill="#f7f0ed" opacity="1.000000"></path>
        <path d="M 76.191460 1.851570 L 8.352016 1.851578 C 4.426279 1.851578 1.243845 6.575478 1.243845 12.402703 C 1.243846 18.229929 4.426281 22.953829 8.352018 22.953829 L 76.191467 22.953821 C 80.117197 22.953821 83.299638 18.229918 83.299638 12.402694 C 83.299638 6.575469 80.117197 1.851568 76.191460 1.851570 Z" transform="scale(1.000000,1.000000) translate(327.000000,68.000000)" fill="#f7f0ed" opacity="1.000000"></path>
        <path d="M 76.191467 1.095205 L 8.352020 1.095213 C 4.426282 1.095215 1.243843 5.819113 1.243843 11.646338 C 1.243844 17.473564 4.426284 22.197462 8.352021 22.197462 L 76.191467 22.197455 C 80.117204 22.197453 83.299644 17.473555 83.299644 11.646329 C 83.299644 5.819102 80.117204 1.095204 76.191467 1.095205 Z" transform="scale(1.000000,1.000000) translate(327.000000,115.000000)" fill="#f7f0ed" opacity="1.000000"></path>
        <path d="M 76.191473 1.757951 L 8.352023 1.757956 C 4.426287 1.757958 1.243847 6.481859 1.243847 12.309083 C 1.243848 18.136308 4.426288 22.860209 8.352025 22.860205 L 76.191473 22.860198 C 80.117210 22.860198 83.299644 18.136298 83.299644 12.309074 C 83.299644 6.481848 80.117204 1.757951 76.191473 1.757951 Z" transform="scale(1.000000,1.000000) translate(327.000000,166.000000)" fill="#f7f0ed" opacity="1.000000"></path>
        <path d="M 76.191480 1.189907 L 8.352031 1.189915 C 4.426294 1.189917 1.243854 5.913815 1.243855 11.741042 C 1.243855 17.568266 4.426296 22.292165 8.352032 22.292167 L 76.191480 22.292158 C 80.117217 22.292158 83.299651 17.568257 83.299651 11.741030 C 83.299651 5.913806 80.117217 1.189906 76.191480 1.189907 Z" transform="scale(1.000000,1.000000) translate(327.000000,258.000000)" fill="#f7f0ed" opacity="1.000000"></path>
        <path d="M 76.191480 1.429576 L 8.352035 1.429582 C 4.426298 1.429584 1.243858 6.153485 1.243859 11.980709 C 1.243859 17.807934 4.426299 22.531833 8.352036 22.531831 L 76.191480 22.531824 C 80.117217 22.531824 83.299657 17.807925 83.299657 11.980699 C 83.299657 6.153475 80.117217 1.429576 76.191480 1.429576 Z" transform="scale(1.000000,1.000000) translate(327.000000,304.000000)" fill="#f7f0ed" opacity="1.000000"></path>
        <path d="M 76.191499 1.016803 L 8.352050 1.016614 C 4.426318 1.016604 1.243873 5.740495 1.243863 11.567718 C 1.243858 17.394944 4.426287 22.118851 8.352023 22.118864 L 76.191473 22.119053 C 80.117210 22.119064 83.299651 17.395174 83.299664 11.567948 C 83.299670 5.740723 80.117237 1.016815 76.191499 1.016803 Z" transform="scale(1.000000,1.000000) translate(327.000000,357.000000)" fill="#f7f0ed" opacity="1.000000"></path>
        <path d="M 76.191506 1.796141 L 8.352054 1.795950 C 4.426323 1.795941 1.243877 6.519831 1.243867 12.347056 C 1.243862 18.174282 4.426291 22.898189 8.352028 22.898202 L 76.191480 22.898391 C 80.117210 22.898400 83.299657 18.174512 83.299664 12.347286 C 83.299670 6.520062 80.117243 1.796152 76.191506 1.796141 Z" transform="scale(1.000000,1.000000) translate(327.000000,407.000000)" fill="#f7f0ed" opacity="1.000000"></path>
        <path d="M 76.191486 1.855052 L 8.352038 1.854861 C 4.426307 1.854852 1.243862 6.578743 1.243852 12.405966 C 1.243847 18.233191 4.426275 22.957099 8.352013 22.957110 L 76.191460 22.957301 C 80.117197 22.957312 83.299644 18.233422 83.299651 12.406197 C 83.299657 6.578969 80.117224 1.855062 76.191486 1.855052 Z" transform="scale(1.000000,1.000000) translate(327.000000,214.000000)" fill="#f7f0ed" opacity="1.000000"></path>
        <path d="M 78.833246 1.317581 L 8.808513 1.317594 C 4.882775 1.317594 1.700336 6.041494 1.700336 11.868720 C 1.700336 17.695945 4.882777 22.419843 8.808514 22.419843 L 78.833246 22.419830 C 82.758983 22.419830 85.941417 17.695930 85.941417 11.868705 C 85.941417 6.041478 82.758976 1.317581 78.833246 1.317581 Z" transform="scale(1.000000,1.000000) translate(88.000000,238.000000)" fill="#f7f0ed" opacity="1.000000"></path>
        <path d="M 64.863482 152.131359 Q 55.348488 143.423698 40.528166 143.423698 Q 22.190179 143.423698 11.694853 155.187690 Q 1.199527 167.009348 1.199527 187.596334 Q 1.199527 209.855651 13.136518 221.907976 Q 23.516511 232.403302 39.547833 232.403302 Q 60.999818 232.403302 70.918477 218.332645 Q 76.396807 210.432317 76.800473 202.474323 L 59.039152 202.474323 Q 57.309154 208.586985 54.598822 211.700983 Q 49.754826 217.236979 40.239832 217.236979 Q 30.551839 217.236979 24.958177 209.423151 Q 19.364514 201.609324 19.364514 187.308000 Q 19.364514 173.006677 25.275343 165.884849 Q 31.186172 158.763021 40.297499 158.763021 Q 49.639492 158.763021 54.541156 164.875683 Q 57.251487 168.162681 59.039152 174.736676 L 76.627473 174.736676 Q 74.320808 160.839019 64.863482 152.131359 Z M 55.175489 36.542673 L 55.175489 88.788636 L 73.225142 88.788636 L 73.225142 36.542673 Q 73.225142 22.991016 69.015479 15.436688 Q 61.172818 1.596698 39.086500 1.596698 Q 17.000182 1.596698 9.099855 15.436688 Q 4.890191 22.991016 4.890191 36.542673 L 4.890191 88.788636 L 22.939845 88.788636 L 22.939845 36.542673 Q 22.939845 27.777346 25.015843 23.740682 Q 28.245174 16.590021 39.086500 16.590021 Q 49.870159 16.590021 53.099490 23.740682 Q 55.175489 27.777346 55.175489 36.542673 Z" transform="scale(1.000000,1.000000) translate(211.000000,133.000000)" fill="#f7f0ed" opacity="1.000000"></path>
    </g>
</svg>