<?xml version="1.0" encoding="UTF-8" standalone="yes"?>
<!DOCTYPE svg PUBLIC "-//W3C//DTD SVG 1.1//EN" "http://www.w3.org/Graphics/SVG/1.1/DTD/svg11.dtd">

<svg width="500" height="500" viewBox="0 0 500 500" xmlns="http://www.w3.org/2000/svg" xmlns:xlink="http://www.w3.org/1999/xlink" version="1.1" baseProfile="full">
    <g transform="scale(1,-1) translate(0,-500)">
        <path d="M 21.841828 28.971465 L 281.978573 28.971465 C 279.560105 28.971465 277.599566 26.737957 277.599566 23.982787 L 277.599566 310.017214 C 277.599566 307.262033 279.560105 305.028536 281.978573 305.028536 L 21.841828 305.028536 C 24.260287 305.028536 26.220835 307.262033 26.220835 310.017214 L 26.220835 23.982787 C 26.220835 26.737957 24.260287 28.971465 21.841828 28.971465 Z M 21.841828 1.256583 C 10.824403 1.256583 1.893016 11.431451 1.893016 23.982787 L 1.893016 310.017214 C 1.893016 322.568550 10.824403 332.743417 21.841828 332.743417 L 281.978573 332.743417 C 292.995999 332.743417 301.927386 322.568550 301.927386 310.017214 L 301.927386 23.982787 C 301.927386 11.431451 292.995999 1.256583 281.978573 1.256583 L 21.841828 1.256583 Z" transform="scale(1.000000,1.000000) translate(94.000000,83.000000)" opacity="1.000000"> fill="currentColor"</path>
        <path d="M 10.315306 24.206289 L 95.962389 24.206289 C 100.866366 24.206289 104.841828 19.141475 104.841828 12.893711 C 104.841828 6.645945 100.866366 1.581131 95.962389 1.581131 L 10.315306 1.581131 C 5.411326 1.581131 1.435866 6.645945 1.435866 12.893711 C 1.435866 19.141475 5.411326 24.206289 10.315306 24.206289 Z" transform="scale(1.000000,1.000000) translate(11.000000,124.000000)" opacity="1.000000"> fill="currentColor"</path>
        <path d="M 10.858014 24.352340 L 102.269804 24.352340 C 107.173781 24.352340 111.149243 19.269723 111.149243 13.000000 C 111.149243 6.730276 107.173781 1.647660 102.269804 1.647660 L 10.858014 1.647660 C 5.954035 1.647660 1.978573 6.730276 1.978573 13.000000 C 1.978573 19.269723 5.954035 24.352340 10.858014 24.352340 Z" transform="scale(1.000000,1.000000) translate(374.000000,237.000000)" opacity="1.000000"> fill="currentColor"</path>
        <path d="M 10.315308 22.959953 L 95.962389 22.959953 C 100.866366 22.959953 104.841828 18.084587 104.841828 12.070517 C 104.841828 6.056446 100.866366 1.181080 95.962389 1.181080 L 10.315308 1.181080 C 5.411328 1.181080 1.435867 6.056446 1.435867 12.070517 C 1.435867 18.084587 5.411328 22.959953 10.315308 22.959953 Z" transform="scale(1.000000,1.000000) translate(11.000000,349.000000)" opacity="1.000000"> fill="currentColor"</path>
        <path d="M 22.889437 95.555055 L 22.889437 9.907975 C 22.889437 5.003998 18.014071 1.028536 12.000001 1.028536 C 5.985930 1.028536 1.110563 5.003998 1.110563 9.907975 L 1.110563 95.555055 C 1.110563 100.459035 5.985930 104.434497 12.000001 104.434497 C 18.014071 104.434497 22.889437 100.459035 22.889437 95.555055 Z" transform="scale(1.000000,1.000000) translate(238.000000,387.000000)" opacity="1.000000"> fill="currentColor"</path>
        <path d="M 22.889437 96.103345 L 22.889437 10.456265 C 22.889437 5.552288 18.014071 1.576826 12.000001 1.576826 C 5.985930 1.576826 1.110563 5.552288 1.110563 10.456265 L 1.110563 96.103345 C 1.110563 101.007325 5.985930 104.982787 12.000001 104.982787 C 18.014071 104.982787 22.889437 101.007325 22.889437 96.103345 Z" transform="scale(1.000000,1.000000) translate(238.000000,2.000000)" opacity="1.000000"> fill="currentColor"</path>
        <path d="M 73.162370 92.863135 L 53.670162 92.863135 L 53.670162 139.598281 L 73.162370 139.598281 Q 77.367776 139.534869 80.161147 138.583679 Q 84.919088 136.966655 87.865941 132.654593 Q 90.229563 129.166895 91.089062 125.108484 Q 91.948561 121.050072 91.948561 117.372136 Q 91.948561 108.050472 88.326387 101.582378 Q 83.414965 92.863135 73.162370 92.863135 Z M 80.191844 127.676697 Q 78.012400 131.481458 71.566158 131.481458 L 62.848383 131.481458 L 62.848383 100.979958 L 71.566158 100.979958 Q 78.257971 100.979958 80.897861 107.796821 Q 82.340591 111.538170 82.340591 116.706303 Q 82.340591 123.840230 80.191844 127.676697 Z M 99.622659 123.681698 Q 103.091351 128.247411 111.532858 128.247411 Q 117.027512 128.247411 121.294310 125.996261 Q 125.561108 123.745111 125.561108 117.498962 L 125.561108 101.645791 Q 125.561108 99.997061 125.622501 97.650792 Q 125.714590 95.875237 126.144340 95.241110 Q 126.574089 94.606983 127.433588 94.194801 L 127.433588 92.863135 L 117.917707 92.863135 Q 117.518654 93.909444 117.365172 94.828928 Q 117.211690 95.748412 117.119601 96.921546 Q 115.308514 94.892340 112.944892 93.465555 Q 110.120824 91.785119 106.560043 91.785119 Q 102.016977 91.785119 99.054775 94.464305 Q 96.092574 97.143491 96.092574 102.057974 Q 96.092574 108.430948 100.850514 111.284519 Q 103.459707 112.838130 108.524612 113.503963 L 111.502162 113.884439 Q 113.927176 114.201502 114.970854 114.677097 Q 116.843334 115.501462 116.843334 117.245311 Q 116.843334 119.369636 115.415951 120.178147 Q 113.988569 120.986659 111.225894 120.986659 Q 108.125559 120.986659 106.836310 119.401342 Q 105.915419 118.228208 105.608455 116.230708 L 97.166947 116.230708 Q 97.443215 120.764715 99.622659 123.681698 Z M 106.130293 99.394641 Q 107.358149 98.348332 109.138540 98.348332 Q 111.962607 98.348332 114.341578 100.060474 Q 116.720548 101.772616 116.812637 106.306623 L 116.812637 109.667495 Q 115.983835 109.128488 115.139684 108.795571 Q 114.295533 108.462654 112.822106 108.177297 L 110.857537 107.796821 Q 108.094862 107.289520 106.897703 106.560274 Q 104.871741 105.323727 104.871741 102.723807 Q 104.871741 100.409244 106.130293 99.394641 Z M 148.644794 99.299522 L 148.644794 92.546071 L 144.500781 92.387539 Q 138.300110 92.165595 136.028577 94.606983 Q 134.555151 96.160594 134.555151 99.394641 L 134.555151 120.669596 L 129.889299 120.669596 L 129.889299 127.105983 L 134.555151 127.105983 L 134.555151 136.744711 L 143.211533 136.744711 L 143.211533 127.105983 L 148.644794 127.105983 L 148.644794 120.669596 L 143.211533 120.669596 L 143.211533 102.406743 Q 143.211533 100.282418 143.733371 99.759264 Q 144.255210 99.236109 146.925796 99.236109 Q 147.324849 99.236109 147.769947 99.251962 Q 148.215044 99.267815 148.644794 99.299522 Z M 155.520785 123.681698 Q 158.989477 128.247411 167.430985 128.247411 Q 172.925638 128.247411 177.192437 125.996261 Q 181.459235 123.745111 181.459235 117.498962 L 181.459235 101.645791 Q 181.459235 99.997061 181.520628 97.650792 Q 181.612717 95.875237 182.042466 95.241110 Q 182.472216 94.606983 183.331715 94.194801 L 183.331715 92.863135 L 173.815834 92.863135 Q 173.416781 93.909444 173.263299 94.828928 Q 173.109817 95.748412 173.017728 96.921546 Q 171.206641 94.892340 168.843018 93.465555 Q 166.018951 91.785119 162.458169 91.785119 Q 157.915104 91.785119 154.952902 94.464305 Q 151.990700 97.143491 151.990700 102.057974 Q 151.990700 108.430948 156.748641 111.284519 Q 159.357834 112.838130 164.422738 113.503963 L 167.400288 113.884439 Q 169.825303 114.201502 170.868980 114.677097 Q 172.741460 115.501462 172.741460 117.245311 Q 172.741460 119.369636 171.314078 120.178147 Q 169.886696 120.986659 167.124021 120.986659 Q 164.023685 120.986659 162.734437 119.401342 Q 161.813545 118.228208 161.506581 116.230708 L 153.065074 116.230708 Q 153.341341 120.764715 155.520785 123.681698 Z M 162.028420 99.394641 Q 163.256275 98.348332 165.036666 98.348332 Q 167.860734 98.348332 170.239704 100.060474 Q 172.618674 101.772616 172.710764 106.306623 L 172.710764 109.667495 Q 171.881961 109.128488 171.037810 108.795571 Q 170.193660 108.462654 168.720233 108.177297 L 166.755664 107.796821 Q 163.992989 107.289520 162.795830 106.560274 Q 160.769868 105.323727 160.769868 102.723807 Q 160.769868 100.409244 162.028420 99.394641 Z M 9.927806 15.395538 L 1.117942 15.395538 L 1.117942 62.130684 L 14.869925 62.130684 L 23.096558 25.383035 L 31.261798 62.130684 L 44.860298 62.130684 L 44.860298 15.395538 L 36.050435 15.395538 L 36.050435 47.006760 Q 36.050435 48.370132 36.081131 50.827374 Q 36.111827 53.284615 36.111827 54.616282 L 27.547534 15.395538 L 18.369314 15.395538 L 9.866414 54.616282 Q 9.866414 53.284615 9.897110 50.827374 Q 9.927806 48.370132 9.927806 47.006760 Z M 81.573181 25.541567 Q 81.235521 22.466052 78.472846 19.295418 Q 74.175351 14.254109 66.439861 14.254109 Q 60.055012 14.254109 55.174286 18.502759 Q 50.293560 22.751409 50.293560 32.326724 Q 50.293560 41.299618 54.698492 46.087276 Q 59.103424 50.874933 66.132897 50.874933 Q 70.307606 50.874933 73.653512 49.257910 Q 76.999419 47.640886 79.178863 44.153189 Q 81.143432 41.077674 81.726663 37.019262 Q 82.064323 34.641287 82.002931 30.170693 L 59.103424 30.170693 Q 59.287602 24.970853 62.265152 22.878234 Q 64.076239 21.578274 66.624039 21.578274 Q 69.325321 21.578274 71.013623 23.163591 Q 71.934515 24.019662 72.640532 25.541567 Z M 72.916799 36.131485 Q 72.701924 39.714301 70.814096 41.569122 Q 68.926268 43.423943 66.132897 43.423943 Q 63.093954 43.423943 61.421001 41.458150 Q 59.748048 39.492357 59.318298 36.131485 Z M 106.682828 40.443547 Q 105.577758 42.948348 102.354637 42.948348 Q 98.609678 42.948348 97.320429 40.443547 Q 96.614412 39.016762 96.614412 36.194897 L 96.614412 15.395538 L 87.743156 15.395538 L 87.743156 49.892037 L 96.246056 49.892037 L 96.246056 44.850728 Q 97.872964 47.545767 99.315695 48.687196 Q 101.863495 50.716402 105.915419 50.716402 Q 109.752467 50.716402 112.116089 48.972553 Q 114.019266 47.355529 115.001550 44.819022 Q 116.720548 47.862831 119.268348 49.289616 Q 121.969631 50.716402 125.284841 50.716402 Q 127.494981 50.716402 129.643728 49.828624 Q 131.792476 48.940846 133.542170 46.721403 Q 134.954204 44.914141 135.445346 42.282515 Q 135.752310 40.538666 135.752310 37.177794 L 135.690917 15.395538 L 126.727571 15.395538 L 126.727571 37.399738 Q 126.727571 39.365531 126.113643 40.633785 Q 124.947181 43.043467 121.816149 43.043467 Q 118.193975 43.043467 116.812637 39.936246 Q 116.106620 38.287516 116.106620 35.972953 L 116.106620 15.395538 L 107.296756 15.395538 L 107.296756 35.972953 Q 107.296756 39.048468 106.682828 40.443547 Z M 171.697783 45.579974 Q 175.933885 40.094777 175.933885 32.612081 Q 175.933885 25.002559 171.697783 19.596628 Q 167.461681 14.190697 158.835995 14.190697 Q 150.210310 14.190697 145.974208 19.596628 Q 141.738106 25.002559 141.738106 32.612081 Q 141.738106 40.094777 145.974208 45.579974 Q 150.210310 51.065171 158.835995 51.065171 Q 167.461681 51.065171 171.697783 45.579974 Z M 158.805299 43.423943 Q 154.968250 43.423943 152.896244 40.617932 Q 150.824237 37.811921 150.824237 32.612081 Q 150.824237 27.412241 152.896244 24.590376 Q 154.968250 21.768512 158.805299 21.768512 Q 162.642348 21.768512 164.699006 24.590376 Q 166.755664 27.412241 166.755664 32.612081 Q 166.755664 37.811921 164.699006 40.617932 Q 162.642348 43.423943 158.805299 43.423943 Z M 199.017570 41.616682 Q 193.737791 41.616682 191.926704 38.065571 Q 190.913723 36.068072 190.913723 31.914541 L 190.913723 15.395538 L 182.103859 15.395538 L 182.103859 49.955449 L 190.453277 49.955449 L 190.453277 43.931245 Q 192.479239 47.387236 193.983362 48.655489 Q 196.439073 50.779814 200.368211 50.779814 Q 200.613782 50.779814 200.782612 50.763961 Q 200.951443 50.748108 201.534674 50.716402 L 201.534674 41.458150 Q 200.705872 41.553269 200.061247 41.584975 Q 199.416623 41.616682 199.017570 41.616682 Z M 220.259472 24.463551 L 227.166160 49.955449 L 236.467166 49.955449 L 224.986716 15.966252 Q 221.671506 6.137286 219.737633 3.775164 Q 217.803761 1.413041 212.002143 1.413041 Q 210.835680 1.413041 210.129663 1.428894 Q 209.423646 1.444747 208.011612 1.539866 L 208.011612 8.768912 L 209.116682 8.705500 Q 210.405931 8.642087 211.572394 8.800619 Q 212.738856 8.959150 213.536963 9.529864 Q 214.304372 10.068872 214.964345 11.781015 Q 215.624317 13.493157 215.501532 13.873633 L 203.222976 49.955449 L 212.953731 49.955449 Z" transform="scale(1.000000,1.000000) translate(130.000000,177.000000)" opacity="1.000000"> fill="currentColor"</path>
    </g>
</svg>