<?xml version="1.0" encoding="UTF-8" standalone="yes"?>
<!DOCTYPE svg PUBLIC "-//W3C//DTD SVG 1.1//EN" "http://www.w3.org/Graphics/SVG/1.1/DTD/svg11.dtd">

<svg width="500" height="500" viewBox="0 0 500 500" xmlns="http://www.w3.org/2000/svg" xmlns:xlink="http://www.w3.org/1999/xlink" version="1.1" baseProfile="full">
    <g transform="scale(1,-1) translate(0,-500)">
        <path d="M 220.601615 424.884184 L 20.458583 424.884215 C 22.782854 424.884215 24.667032 427.185396 24.667032 430.024067 L 24.666998 25.129696 C 24.666998 27.968354 22.782820 30.269522 20.458549 30.269522 L 220.601589 30.269491 C 218.277335 30.269491 216.393135 27.968323 216.393135 25.129667 L 216.393185 430.024036 C 216.393185 427.185365 218.277360 424.884184 220.601615 424.884184 Z M 220.601615 453.438778 C 231.189932 453.438778 239.773460 442.955634 239.773460 430.024005 L 239.773409 25.129661 C 239.773409 12.198047 231.189882 1.714905 220.601589 1.714907 L 20.458546 1.714939 C 9.870240 1.714940 1.286723 12.198085 1.286724 25.129700 L 1.286759 430.024067 C 1.286761 442.955665 9.870278 453.438809 20.458586 453.438809 L 220.601615 453.438778 Z" transform="scale(1.000000,1.000000) translate(119.000000,22.000000)" opacity="1.000000"> fill="currentColor"</path>
        <path d="M 89.185655 1.512233 L 9.834922 1.512240 C 5.243050 1.512240 1.520607 5.627187 1.520607 10.703231 C 1.520608 15.779276 5.243051 19.894222 9.834924 19.894221 L 89.185661 19.894214 C 93.777533 19.894214 97.499981 15.779266 97.499975 10.703224 C 97.499975 5.627179 93.777527 1.512232 89.185655 1.512233 Z" transform="scale(1.000000,1.000000) translate(340.000000,65.000000)" opacity="1.000000"> fill="currentColor"</path>
        <path d="M 89.185663 1.026071 L 9.834928 1.026078 C 5.243055 1.026078 1.520606 5.141025 1.520607 10.217069 C 1.520607 15.293112 5.243057 19.408059 9.834930 19.408058 L 89.185663 19.408051 C 93.777535 19.408051 97.499983 15.293105 97.499983 10.217061 C 97.499983 5.141016 93.777535 1.026071 89.185663 1.026071 Z" transform="scale(1.000000,1.000000) translate(340.000000,110.000000)" opacity="1.000000"> fill="currentColor"</path>
        <path d="M 89.185661 1.491866 L 9.834925 1.491872 C 5.243053 1.491872 1.520603 5.606819 1.520604 10.682863 C 1.520604 15.758907 5.243054 19.873854 9.834926 19.873854 L 89.185661 19.873846 C 93.777533 19.873846 97.499981 15.758899 97.499981 10.682856 C 97.499981 5.606810 93.777533 1.491866 89.185661 1.491866 Z" transform="scale(1.000000,1.000000) translate(340.000000,163.000000)" opacity="1.000000"> fill="currentColor"</path>
        <path d="M 89.185668 1.216820 L 9.834933 1.216827 C 5.243061 1.216827 1.520611 5.331774 1.520612 10.407819 C 1.520612 15.483862 5.243063 19.598807 9.834936 19.598809 L 89.185668 19.598801 C 93.777540 19.598801 97.499987 15.483854 97.499987 10.407810 C 97.499987 5.331766 93.777540 1.216820 89.185668 1.216820 Z" transform="scale(1.000000,1.000000) translate(340.000000,259.000000)" opacity="1.000000"> fill="currentColor"</path>
        <path d="M 89.185672 1.112337 L 9.834936 1.112343 C 5.243063 1.112344 1.520614 5.227292 1.520615 10.303334 C 1.520616 15.379380 5.243066 19.494325 9.834938 19.494325 L 89.185672 19.494319 C 93.777544 19.494317 97.499992 15.379370 97.499992 10.303326 C 97.499992 5.227283 93.777544 1.112336 89.185672 1.112337 Z" transform="scale(1.000000,1.000000) translate(340.000000,307.000000)" opacity="1.000000"> fill="currentColor"</path>
        <path d="M 89.185693 1.494965 L 9.834956 1.494800 C 5.243089 1.494791 1.520634 5.609730 1.520621 10.685773 C 1.520615 15.761818 5.243053 19.876771 9.834925 19.876781 L 89.185661 19.876947 C 93.777533 19.876956 97.499987 15.762018 97.500000 10.685973 C 97.500006 5.609928 93.777565 1.494975 89.185693 1.494965 Z" transform="scale(1.000000,1.000000) translate(340.000000,354.000000)" opacity="1.000000"> fill="currentColor"</path>
        <path d="M 89.185699 1.848287 L 9.834960 1.848122 C 5.243094 1.848113 1.520638 5.963052 1.520626 11.039095 C 1.520620 16.115141 5.243057 20.230094 9.834930 20.230104 L 89.185668 20.230270 C 93.777540 20.230278 97.499994 16.115339 97.500000 11.039295 C 97.500013 5.963253 93.777571 1.848297 89.185699 1.848287 Z" transform="scale(1.000000,1.000000) translate(340.000000,409.000000)" opacity="1.000000"> fill="currentColor"</path>
        <path d="M 89.185680 1.076581 L 9.834942 1.076414 C 5.243076 1.076406 1.520620 5.191345 1.520608 10.267388 C 1.520602 15.343432 5.243039 19.458387 9.834911 19.458396 L 89.185649 19.458562 C 93.777521 19.458570 97.499975 15.343632 97.499987 10.267588 C 97.499994 5.191543 93.777552 1.076589 89.185680 1.076581 Z" transform="scale(1.000000,1.000000) translate(340.000000,216.000000)" opacity="1.000000"> fill="currentColor"</path>
        <path d="M 71.792644 1.850234 L 7.977819 1.850242 C 4.400223 1.850243 1.500007 6.425436 1.500008 12.069225 C 1.500009 17.713014 4.400225 22.288207 7.977821 22.288205 L 71.792644 22.288197 C 75.370240 22.288197 78.270456 17.713003 78.270456 12.069216 C 78.270456 6.425426 75.370240 1.850234 71.792644 1.850234 Z" transform="scale(1.000000,1.000000) translate(61.000000,239.000000)" opacity="1.000000"> fill="currentColor"</path>
        <path d="M 69.217741 1.303883 L 7.737366 1.303891 C 4.290645 1.303891 1.496524 5.418838 1.496524 10.494883 C 1.496525 15.570928 4.290646 19.685873 7.737369 19.685873 L 69.217741 19.685865 C 72.664462 19.685864 75.458583 15.570917 75.458583 10.494873 C 75.458583 5.418828 72.664462 1.303882 69.217741 1.303883 Z" transform="scale(1.000000,1.000000) translate(64.000000,345.000000)" opacity="1.000000"> fill="currentColor"</path>
        <path d="M 69.679574 1.568301 L 8.055947 1.568308 C 4.601195 1.568308 1.800564 5.364699 1.800565 10.047788 C 1.800565 14.730874 4.601197 18.527265 8.055949 18.527265 L 69.679581 18.527259 C 73.134327 18.527259 76.458546 14.730867 76.458546 10.047779 C 76.458546 5.364692 73.134327 1.568301 69.679574 1.568301 Z" transform="scale(1.000000,1.000000) translate(63.000000,134.000000)" opacity="1.000000"> fill="currentColor"</path>
        <path d="M 36.917614 79.767786 Q 35.893338 78.402082 35.936015 76.118792 L 30.259805 76.118792 Q 30.345162 78.423419 31.049354 80.493315 Q 31.796223 82.307143 33.396658 83.843561 Q 34.591651 84.931854 36.234762 85.508012 Q 37.877877 86.084170 40.267860 86.084170 Q 44.706399 86.084170 47.427139 83.790209 Q 50.147878 81.496254 50.147878 77.633873 Q 50.147878 74.902465 48.526104 73.024620 Q 47.501827 71.850967 46.392191 71.424186 Q 47.224417 71.424186 48.782174 69.994459 Q 51.108141 67.839209 51.108141 64.104862 Q 51.108141 60.178458 48.387401 57.201648 Q 45.666659 54.224844 40.331877 54.224844 Q 33.759422 54.224844 31.198728 58.514006 Q 29.854361 60.797296 29.704987 64.488963 L 35.679944 64.488963 Q 35.679944 62.632461 36.277442 61.416128 Q 37.387075 59.175518 40.310537 59.175518 Q 42.103025 59.175518 43.436721 60.402523 Q 44.770416 61.629522 44.770416 63.934148 Q 44.770416 66.985640 42.295076 68.009923 Q 40.886695 68.586081 37.856537 68.586081 L 37.856537 72.939260 Q 40.822675 72.981940 41.996328 73.515418 Q 44.023547 74.411661 44.023547 77.143069 Q 44.023547 78.914217 42.988600 80.023853 Q 41.953652 81.133490 40.075806 81.133490 Q 37.920554 81.133490 36.917614 79.767786 Z M 78.486251 59.324895 L 78.486251 54.779659 L 75.605466 54.672962 Q 71.294961 54.523591 69.715863 56.166700 Q 68.691587 57.212319 68.691587 59.388912 L 68.691587 73.707469 L 65.448038 73.707469 L 65.448038 78.039318 L 68.691587 78.039318 L 68.691587 84.526410 L 74.709224 84.526410 L 74.709224 78.039318 L 78.486251 78.039318 L 78.486251 73.707469 L 74.709224 73.707469 L 74.709224 61.416128 Q 74.709224 59.986407 75.071988 59.634314 Q 75.434753 59.282215 77.291255 59.282215 Q 77.568665 59.282215 77.878084 59.292887 Q 78.187497 59.303552 78.486251 59.324895 Z M 101.788584 75.307904 Q 104.733385 71.616236 104.733385 66.580202 Q 104.733385 61.458808 101.788584 57.820486 Q 98.843782 54.182164 92.847488 54.182164 Q 86.851188 54.182164 83.906387 57.820486 Q 80.961585 61.458808 80.961585 66.580202 Q 80.961585 71.616236 83.906387 75.307904 Q 86.851188 78.999577 92.847488 78.999577 Q 98.843782 78.999577 101.788584 75.307904 Z M 92.826145 73.856846 Q 90.158754 73.856846 88.718362 71.968329 Q 87.277969 70.079819 87.277969 66.580202 Q 87.277969 63.080579 88.718362 61.181397 Q 90.158754 59.282215 92.826145 59.282215 Q 95.493536 59.282215 96.923263 61.181397 Q 98.352984 63.080579 98.352984 66.580202 Q 98.352984 70.079819 96.923263 71.968329 Q 95.493536 73.856846 92.826145 73.856846 Z M 122.210138 56.934909 Q 119.542747 59.666323 119.542747 63.571384 Q 119.542747 66.174758 120.727065 68.287334 Q 121.911384 70.399903 124.194673 71.466859 Q 121.954070 72.960603 121.281887 74.699743 Q 120.609703 76.438883 120.609703 77.953958 Q 120.609703 81.325540 123.149060 83.704855 Q 125.688417 86.084170 130.319001 86.084170 Q 134.949597 86.084170 137.488954 83.704855 Q 140.028311 81.325540 140.028311 77.953958 Q 140.028311 76.438883 139.356128 74.699743 Q 138.683944 72.960603 136.443341 71.680253 Q 138.726618 70.399903 139.878934 68.287334 Q 141.031251 66.174758 141.031251 63.571384 Q 141.031251 59.666323 138.139795 56.924243 Q 135.248351 54.182164 130.062933 54.182164 Q 124.877529 54.182164 122.210138 56.934909 Z M 125.859125 63.976828 Q 125.859125 61.693538 127.043443 60.434531 Q 128.227775 59.175518 130.319001 59.175518 Q 132.410240 59.175518 133.594558 60.434531 Q 134.778890 61.693538 134.778890 63.976828 Q 134.778890 66.345471 133.573228 67.572470 Q 132.367566 68.799469 130.319001 68.799469 Q 128.270448 68.799469 127.064787 67.572470 Q 125.859125 66.345471 125.859125 63.976828 Z M 127.459559 74.518358 Q 128.483842 73.451402 130.319001 73.451402 Q 132.175516 73.451402 133.189114 74.518358 Q 134.202725 75.585314 134.202725 77.271109 Q 134.202725 79.106274 133.189114 80.141222 Q 132.175516 81.176170 130.319001 81.176170 Q 128.483842 81.176170 127.448888 80.141222 Q 126.413946 79.106274 126.413946 77.271109 Q 126.413946 75.585314 127.459559 74.518358 Z M 15.066343 2.726721 L 1.515992 2.726721 L 1.515992 34.180606 L 15.066343 34.180606 Q 17.989802 34.137926 19.931665 33.497751 Q 23.239231 32.409458 25.287786 29.507333 Q 26.930899 27.160029 27.528398 24.428620 Q 28.125893 21.697211 28.125893 19.221872 Q 28.125893 12.948166 25.607874 8.594983 Q 22.193613 2.726721 15.066343 2.726721 Z M 19.953003 26.157090 Q 18.437925 28.717787 13.956706 28.717787 L 7.896392 28.717787 L 7.896392 8.189539 L 13.956706 8.189539 Q 18.608638 8.189539 20.443803 12.777454 Q 21.446742 15.295471 21.446742 18.773749 Q 21.446742 23.575054 19.953003 26.157090 Z M 52.495185 9.555244 Q 52.260454 7.485347 50.339932 5.351434 Q 47.352450 1.958513 41.974988 1.958513 Q 37.536449 1.958513 34.143526 4.817956 Q 30.750607 7.677400 30.750607 14.121818 Q 30.750607 20.160793 33.812770 23.383002 Q 36.874937 26.605211 41.761598 26.605211 Q 44.663719 26.605211 46.989686 25.516916 Q 49.315652 24.428620 50.830730 22.081315 Q 52.196434 20.011419 52.601878 17.280010 Q 52.836609 15.679575 52.793932 12.670757 L 36.874937 12.670757 Q 37.002971 9.171140 39.072867 7.762756 Q 40.331877 6.887852 42.103025 6.887852 Q 43.980867 6.887852 45.154521 7.954809 Q 45.794696 8.530965 46.285494 9.555244 Z M 46.477548 16.682515 Q 46.328174 19.093837 45.015815 20.342175 Q 43.703460 21.590515 41.761598 21.590515 Q 39.649025 21.590515 38.486040 20.267488 Q 37.323059 18.944463 37.024311 16.682515 Z M 77.013850 17.642776 L 70.782820 17.642776 Q 70.612106 18.944463 69.907914 19.990081 Q 68.883638 21.398463 66.728388 21.398463 Q 63.655553 21.398463 62.524579 18.346966 Q 61.927078 16.725193 61.927078 14.036462 Q 61.927078 11.475765 62.524579 9.918009 Q 63.612873 7.015887 66.621691 7.015887 Q 68.755604 7.015887 69.651846 8.168200 Q 70.548089 9.320513 70.740140 11.155679 L 76.949833 11.155679 Q 76.736440 8.381592 74.943954 5.906252 Q 72.084507 1.915834 66.472314 1.915834 Q 60.860122 1.915834 58.214074 5.244739 Q 55.568020 8.573644 55.568020 13.887089 Q 55.568020 19.883384 58.491478 23.212290 Q 61.414943 26.541194 66.557674 26.541194 Q 70.932197 26.541194 73.716950 24.577994 Q 76.501709 22.614793 77.013850 17.642776 Z M 100.593593 23.041576 Q 103.538395 19.349906 103.538395 14.313870 Q 103.538395 9.192479 100.593593 5.554156 Q 97.648792 1.915834 91.652492 1.915834 Q 85.656198 1.915834 82.711397 5.554156 Q 79.766595 9.192479 79.766595 14.313870 Q 79.766595 19.349906 82.711397 23.041576 Q 85.656198 26.733247 91.652492 26.733247 Q 97.648792 26.733247 100.593593 23.041576 Z M 91.631155 21.590515 Q 88.963764 21.590515 87.523372 19.702002 Q 86.082979 17.813488 86.082979 14.313870 Q 86.082979 10.814253 87.523372 8.915070 Q 88.963764 7.015887 91.631155 7.015887 Q 94.298546 7.015887 95.728267 8.915070 Q 97.157994 10.814253 97.157994 14.313870 Q 97.157994 17.813488 95.728267 19.702002 Q 94.298546 21.590515 91.631155 21.590515 Z M 129.059994 34.137926 L 129.059994 2.726721 L 123.149060 2.726721 L 123.149060 5.948931 Q 121.847367 3.879034 120.182915 2.940112 Q 118.518464 2.001190 116.043124 2.001190 Q 111.967349 2.001190 109.182596 5.298086 Q 106.397830 8.594983 106.397830 13.759053 Q 106.397830 19.712672 109.139910 23.126933 Q 111.881989 26.541194 116.469911 26.541194 Q 118.582481 26.541194 120.225589 25.612942 Q 121.868710 24.684689 122.892980 23.041576 L 122.892980 34.137926 Z M 112.671547 14.207175 Q 112.671547 10.984966 113.951885 9.064443 Q 115.210892 7.122583 117.792935 7.122583 Q 120.374966 7.122583 121.719333 9.043105 Q 123.063700 10.963627 123.063700 14.015122 Q 123.063700 18.282949 120.908444 20.118115 Q 119.585420 21.227749 117.835609 21.227749 Q 115.168218 21.227749 113.919883 19.211202 Q 112.671547 17.194653 112.671547 14.207175 Z M 154.496239 9.555244 Q 154.261515 7.485347 152.340996 5.351434 Q 149.353508 1.958513 143.976052 1.958513 Q 139.537507 1.958513 136.144587 4.817956 Q 132.751667 7.677400 132.751667 14.121818 Q 132.751667 20.160793 135.813831 23.383002 Q 138.875995 26.605211 143.762659 26.605211 Q 146.664786 26.605211 148.990750 25.516916 Q 151.316713 24.428620 152.831788 22.081315 Q 154.197498 20.011419 154.602942 17.280010 Q 154.837667 15.679575 154.794993 12.670757 L 138.875995 12.670757 Q 139.004029 9.171140 141.073925 7.762756 Q 142.332931 6.887852 144.104086 6.887852 Q 145.981931 6.887852 147.155578 7.954809 Q 147.795760 8.530965 148.286552 9.555244 Z M 148.478602 16.682515 Q 148.329238 19.093837 147.016873 20.342175 Q 145.704521 21.590515 143.762659 21.590515 Q 141.650089 21.590515 140.487101 20.267488 Q 139.324126 18.944463 139.025372 16.682515 Z M 170.585944 20.374185 Q 166.915614 20.374185 165.656607 17.984202 Q 164.952421 16.639836 164.952421 13.844410 L 164.952421 2.726721 L 158.828094 2.726721 L 158.828094 25.986376 L 164.632337 25.986376 L 164.632337 21.931941 Q 166.040721 24.257906 167.086334 25.111472 Q 168.793459 26.541194 171.524867 26.541194 Q 171.695587 26.541194 171.812949 26.530524 Q 171.930312 26.519854 172.335756 26.498516 L 172.335756 20.267488 Q 171.759604 20.331507 171.311486 20.352845 Q 170.863355 20.374185 170.585944 20.374185 Z" transform="scale(1.000000,1.000000) translate(155.000000,206.000000)" opacity="1.000000"> fill="currentColor"</path>
    </g>
</svg>