<?xml version="1.0" encoding="UTF-8" standalone="yes"?>
<!DOCTYPE svg PUBLIC "-//W3C//DTD SVG 1.1//EN" "http://www.w3.org/Graphics/SVG/1.1/DTD/svg11.dtd">

<svg width="500" height="500" viewBox="0 0 500 500" xmlns="http://www.w3.org/2000/svg" xmlns:xlink="http://www.w3.org/1999/xlink" version="1.1" baseProfile="full">
    <g transform="scale(1,-1) translate(0,-500)">
        <path d="M 22.052367 26.378377 L 289.376696 26.378377 C 286.891414 26.378377 284.876696 24.363659 284.876696 21.878378 L 284.876696 279.893582 C 284.876696 277.408301 286.891414 275.393583 289.376696 275.393583 L 22.052367 275.393583 C 24.537648 275.393583 26.552367 277.408301 26.552367 279.893582 L 26.552367 21.878378 C 26.552367 24.363659 24.537648 26.378377 22.052367 26.378377 Z M 22.052367 1.378377 C 10.730529 1.378377 1.552367 10.556540 1.552367 21.878378 L 1.552367 279.893582 C 1.552367 291.215420 10.730529 300.393583 22.052367 300.393583 L 289.376696 300.393583 C 300.698533 300.393583 309.876696 291.215420 309.876696 279.893582 L 309.876696 21.878378 C 309.876696 10.556540 300.698533 1.378377 289.376696 1.378377 L 22.052367 1.378377 Z" transform="scale(1.000000,1.000000) translate(89.000000,108.000000)" opacity="1.000000"> fill="currentColor"</path>
        <path d="M 10.618244 20.178845 L 98.631760 20.178845 C 103.671237 20.178845 107.756541 16.093542 107.756541 11.054065 C 107.756541 6.014587 103.671237 1.929284 98.631760 1.929284 L 10.618244 1.929284 C 5.578767 1.929284 1.493463 6.014587 1.493463 11.054065 C 1.493463 16.093542 5.578767 20.178845 10.618244 20.178845 Z" transform="scale(1.000000,1.000000) translate(8.000000,341.000000)" opacity="1.000000"> fill="currentColor"</path>
        <path d="M 10.925676 19.764988 L 98.939192 19.764988 C 103.978670 19.764988 108.063973 15.679685 108.063973 10.640208 C 108.063973 5.600730 103.978670 1.515427 98.939192 1.515427 L 10.925676 1.515427 C 5.886199 1.515427 1.800896 5.600730 1.800896 10.640208 C 1.800896 15.679685 5.886199 19.764988 10.925676 19.764988 Z" transform="scale(1.000000,1.000000) translate(6.000000,151.000000)" opacity="1.000000"> fill="currentColor"</path>
        <path d="M 10.876695 19.332561 L 93.969469 19.332561 C 99.008946 19.332561 103.094249 15.247258 103.094249 10.207781 C 103.094249 5.168304 99.008946 1.083000 93.969469 1.083000 L 10.876695 1.083000 C 5.837218 1.083000 1.751915 5.168304 1.751915 10.207781 C 1.751915 15.247258 5.837218 19.332561 10.876695 19.332561 Z" transform="scale(1.000000,1.000000) translate(388.000000,340.000000)" opacity="1.000000"> fill="currentColor"</path>
        <path d="M 23.972286 3.073668 L 1.143848 3.073668 L 1.143848 56.064403 L 23.972286 56.064403 Q 28.897476 55.992503 32.168953 54.913994 Q 37.741249 53.080529 41.192477 48.191289 Q 43.960650 44.236756 44.967258 39.635118 Q 45.973867 35.033481 45.973867 30.863246 Q 45.973867 20.293859 41.731732 12.959999 Q 35.979685 3.073668 23.972286 3.073668 Z M 32.204904 42.547092 Q 29.652433 46.861128 22.102870 46.861128 L 11.892987 46.861128 L 11.892987 12.276943 L 22.102870 12.276943 Q 29.940035 12.276943 33.031760 20.006257 Q 34.721424 24.248392 34.721424 30.108290 Q 34.721424 38.197107 32.204904 42.547092 Z M 54.314335 56.064403 L 65.387026 56.064403 L 65.387026 12.600496 L 91.630742 12.600496 L 91.630742 3.073668 L 54.314335 3.073668 Z M 99.935260 38.017355 Q 103.997644 43.194198 113.883975 43.194198 Q 120.319078 43.194198 125.316169 40.641727 Q 130.313260 38.089256 130.313260 31.007047 L 130.313260 13.031900 Q 130.313260 11.162484 130.385161 8.502162 Q 130.493012 6.488946 130.996316 5.769940 Q 131.499620 5.050934 132.506228 4.583580 L 132.506228 3.073668 L 121.361637 3.073668 Q 120.894283 4.260027 120.714531 5.302586 Q 120.534780 6.345145 120.426929 7.675306 Q 118.305862 5.374487 115.537689 3.756723 Q 112.230262 1.851358 108.060027 1.851358 Q 102.739384 1.851358 99.270180 4.889158 Q 95.800976 7.926958 95.800976 13.499253 Q 95.800976 20.725263 101.373272 23.960789 Q 104.429047 25.722354 110.360846 26.477310 L 113.848025 26.908714 Q 116.688098 27.268217 117.910408 27.807471 Q 120.103376 28.742179 120.103376 30.719445 Q 120.103376 33.128115 118.431688 34.044847 Q 116.759999 34.961580 113.524472 34.961580 Q 109.893492 34.961580 108.383580 33.164065 Q 107.305071 31.833904 106.945568 29.569036 L 97.059237 29.569036 Q 97.382790 34.709928 99.935260 38.017355 Z M 107.556723 10.479429 Q 108.994735 9.293069 111.079852 9.293069 Q 114.387279 9.293069 117.173427 11.234385 Q 119.959575 13.175701 120.067426 18.316593 L 120.067426 22.127324 Q 119.096768 21.516169 118.108135 21.138691 Q 117.119502 20.761213 115.393888 20.437661 L 113.093069 20.006257 Q 109.857542 19.431052 108.455481 18.604195 Q 106.082761 17.202134 106.082761 14.254210 Q 106.082761 11.629838 107.556723 10.479429 Z M 157.347883 10.371578 L 157.347883 2.714165 L 152.494593 2.534413 Q 145.232633 2.282761 142.572311 5.050934 Q 140.846697 6.812498 140.846697 10.479429 L 140.846697 34.602077 L 135.382252 34.602077 L 135.382252 41.899987 L 140.846697 41.899987 L 140.846697 52.828877 L 150.984680 52.828877 L 150.984680 41.899987 L 157.347883 41.899987 L 157.347883 34.602077 L 150.984680 34.602077 L 150.984680 13.894707 Q 150.984680 11.486037 151.595835 10.892857 Q 152.206990 10.299677 155.334666 10.299677 Q 155.802020 10.299677 156.323299 10.317652 Q 156.844578 10.335627 157.347883 10.371578 Z M 197.827915 28.202924 L 187.330429 28.202924 Q 187.042827 30.395892 185.856467 32.157457 Q 184.130853 34.530176 180.499873 34.530176 Q 175.323030 34.530176 173.417665 29.389284 Q 172.411056 26.657062 172.411056 22.127324 Q 172.411056 17.813289 173.417665 15.188917 Q 175.251130 10.299677 180.320122 10.299677 Q 183.915151 10.299677 185.425063 12.240993 Q 186.934976 14.182309 187.258529 17.274035 L 197.720065 17.274035 Q 197.360562 12.600496 194.340737 8.430262 Q 189.523397 1.707557 180.068469 1.707557 Q 170.613542 1.707557 166.155705 7.315803 Q 161.697868 12.924049 161.697868 21.875672 Q 161.697868 31.977705 166.623059 37.585952 Q 171.548249 43.194198 180.212271 43.194198 Q 187.582081 43.194198 192.273595 39.886770 Q 196.965108 36.579343 197.827915 28.202924 Z M 240.285215 26.081857 L 240.285215 3.073668 L 229.823679 3.073668 L 229.823679 26.908714 Q 229.823679 30.072340 228.745170 32.013656 Q 227.343108 34.745878 223.424526 34.745878 Q 219.362143 34.745878 217.259050 32.031631 Q 215.155958 29.317384 215.155958 24.284342 L 215.155958 3.073668 L 204.946074 3.073668 L 204.946074 55.884652 L 215.155958 55.884652 L 215.155958 37.154548 Q 217.384876 40.569826 220.314825 41.917962 Q 223.244774 43.266098 226.480301 43.266098 Q 230.111281 43.266098 233.077180 42.007838 Q 236.043080 40.749578 237.948445 38.161156 Q 239.566209 35.968188 239.925712 33.649394 Q 240.285215 31.330600 240.285215 26.081857 Z" transform="scale(1.000000,1.000000) translate(124.000000,230.000000)" opacity="1.000000"> fill="currentColor"</path>
        <path d="M 11.031964 19.764988 L 104.969469 19.764988 C 110.008946 19.764988 114.094249 15.679685 114.094249 10.640208 C 114.094249 5.600730 110.008946 1.515427 104.969469 1.515427 L 11.031964 1.515427 C 5.992487 1.515427 1.907184 5.600730 1.907184 10.640208 C 1.907184 15.679685 5.992487 19.764988 11.031964 19.764988 Z" transform="scale(1.000000,1.000000) translate(377.000000,151.000000)" opacity="1.000000"> fill="currentColor"</path>
    </g>
</svg>