<?xml version="1.0" encoding="UTF-8" standalone="yes"?>
<!DOCTYPE svg PUBLIC "-//W3C//DTD SVG 1.1//EN" "http://www.w3.org/Graphics/SVG/1.1/DTD/svg11.dtd">

<svg width="500" height="500" viewBox="0 0 500 500" xmlns="http://www.w3.org/2000/svg" xmlns:xlink="http://www.w3.org/1999/xlink" version="1.1" baseProfile="full">
    <g transform="scale(1,-1) translate(0,-500)">
        <path d="M 22.052367 26.378377 L 289.376696 26.378377 C 286.891414 26.378377 284.876696 24.363659 284.876696 21.878378 L 284.876696 279.893582 C 284.876696 277.408301 286.891414 275.393583 289.376696 275.393583 L 22.052367 275.393583 C 24.537648 275.393583 26.552367 277.408301 26.552367 279.893582 L 26.552367 21.878378 C 26.552367 24.363659 24.537648 26.378377 22.052367 26.378377 Z M 22.052367 1.378377 C 10.730529 1.378377 1.552367 10.556540 1.552367 21.878378 L 1.552367 279.893582 C 1.552367 291.215420 10.730529 300.393583 22.052367 300.393583 L 289.376696 300.393583 C 300.698533 300.393583 309.876696 291.215420 309.876696 279.893582 L 309.876696 21.878378 C 309.876696 10.556540 300.698533 1.378377 289.376696 1.378377 L 22.052367 1.378377 Z" transform="scale(1.000000,1.000000) translate(89.000000,108.000000)" opacity="1.000000"> fill="currentColor"</path>
        <path d="M 10.618244 20.178845 L 98.631760 20.178845 C 103.671237 20.178845 107.756541 16.093542 107.756541 11.054065 C 107.756541 6.014587 103.671237 1.929284 98.631760 1.929284 L 10.618244 1.929284 C 5.578767 1.929284 1.493463 6.014587 1.493463 11.054065 C 1.493463 16.093542 5.578767 20.178845 10.618244 20.178845 Z" transform="scale(1.000000,1.000000) translate(8.000000,341.000000)" opacity="1.000000"> fill="currentColor"</path>
        <path d="M 10.925676 19.764988 L 98.939192 19.764988 C 103.978670 19.764988 108.063973 15.679685 108.063973 10.640208 C 108.063973 5.600730 103.978670 1.515427 98.939192 1.515427 L 10.925676 1.515427 C 5.886199 1.515427 1.800896 5.600730 1.800896 10.640208 C 1.800896 15.679685 5.886199 19.764988 10.925676 19.764988 Z" transform="scale(1.000000,1.000000) translate(6.000000,151.000000)" opacity="1.000000"> fill="currentColor"</path>
        <path d="M 10.983105 20.124781 L 104.920608 20.124781 C 109.960085 20.124781 114.045388 16.039477 114.045388 11.000000 C 114.045388 5.960523 109.960085 1.875219 104.920608 1.875219 L 10.983105 1.875219 C 5.943628 1.875219 1.858324 5.960523 1.858324 11.000000 C 1.858324 16.039477 5.943628 20.124781 10.983105 20.124781 Z" transform="scale(1.000000,1.000000) translate(379.000000,239.000000)" opacity="1.000000"> fill="currentColor"</path>
        <path d="M 19.839312 109.864869 L 19.839312 10.849663 C 19.839312 5.810186 15.754009 1.724882 10.714531 1.724882 C 5.675054 1.724882 1.589751 5.810186 1.589751 10.849663 L 1.589751 109.864869 C 1.589751 114.904346 5.675054 118.989649 10.714531 118.989649 C 15.754009 118.989649 19.839312 114.904346 19.839312 109.864869 Z" transform="scale(1.000000,1.000000) translate(234.000000,12.000000)" opacity="1.000000"> fill="currentColor"</path>
        <path d="M 93.484415 150.232600 L 63.794835 150.232600 L 63.794835 136.613158 L 89.788283 136.613158 L 89.788283 126.328270 L 63.794835 126.328270 L 63.794835 101.499907 L 51.501180 101.499907 L 51.501180 160.638015 L 93.484415 160.638015 Z M 128.919069 107.686910 Q 128.758368 107.486033 128.115562 106.481650 Q 127.472757 105.477266 126.588899 104.713935 Q 123.897151 102.303414 121.386192 101.419556 Q 118.875233 100.535699 115.500504 100.535699 Q 105.778070 100.535699 102.403341 107.526209 Q 100.515100 111.383042 100.515100 118.895831 L 100.515100 145.291033 L 112.246301 145.291033 L 112.246301 118.895831 Q 112.246301 115.159524 113.130158 113.271283 Q 114.696997 109.936729 119.276986 109.936729 Q 125.142587 109.936729 127.312055 114.677420 Q 128.436965 117.248642 128.436965 121.467053 L 128.436965 145.291033 L 140.047639 145.291033 L 140.047639 101.499907 L 128.919069 101.499907 Z M 151.336911 160.718365 L 162.786885 160.718365 L 162.786885 101.499907 L 151.336911 101.499907 Z M 174.196683 160.718365 L 185.646656 160.718365 L 185.646656 101.499907 L 174.196683 101.499907 Z M 40.432872 14.673037 L 18.617660 14.673037 L 14.519775 2.499907 L 1.583314 2.499907 L 22.715545 61.718365 L 36.696565 61.718365 L 57.668095 2.499907 L 44.249530 2.499907 Z M 36.977792 24.877574 L 29.585529 48.179274 L 21.952213 24.877574 Z M 104.110794 61.638015 L 104.110794 2.499907 L 92.982223 2.499907 L 92.982223 8.566384 Q 90.531527 4.669376 87.397850 2.901661 Q 84.264173 1.133945 79.603833 1.133945 Q 71.930342 1.133945 66.687460 7.341036 Q 61.444577 13.548127 61.444577 23.270560 Q 61.444577 34.479482 66.607109 40.907537 Q 71.769641 47.335592 80.407340 47.335592 Q 84.384699 47.335592 87.478201 45.587964 Q 90.571702 43.840337 92.500119 40.746835 L 92.500119 61.638015 Z M 73.256129 24.114243 Q 73.256129 18.047766 75.666649 14.431984 Q 78.036995 10.776028 82.898211 10.776028 Q 87.759428 10.776028 90.290475 14.391809 Q 92.821522 18.007590 92.821522 23.752664 Q 92.821522 31.787733 88.763812 35.242813 Q 86.272940 37.331931 82.978562 37.331931 Q 77.956644 37.331931 75.606386 33.535361 Q 73.256129 29.738791 73.256129 24.114243 Z M 154.370150 61.638015 L 154.370150 2.499907 L 143.241579 2.499907 L 143.241579 8.566384 Q 140.790883 4.669376 137.657206 2.901661 Q 134.523530 1.133945 129.863190 1.133945 Q 122.189699 1.133945 116.946816 7.341036 Q 111.703934 13.548127 111.703934 23.270560 Q 111.703934 34.479482 116.866466 40.907537 Q 122.028997 47.335592 130.666696 47.335592 Q 134.644056 47.335592 137.737557 45.587964 Q 140.831059 43.840337 142.759475 40.746835 L 142.759475 61.638015 Z M 123.515485 24.114243 Q 123.515485 18.047766 125.926006 14.431984 Q 128.296351 10.776028 133.157568 10.776028 Q 138.018785 10.776028 140.549831 14.391809 Q 143.080878 18.007590 143.080878 23.752664 Q 143.080878 31.787733 139.023168 35.242813 Q 136.532297 37.331931 133.237919 37.331931 Q 128.216000 37.331931 125.865743 33.535361 Q 123.515485 29.738791 123.515485 24.114243 Z M 202.259161 15.356017 Q 201.817232 11.459009 198.201451 7.441474 Q 192.576903 1.053595 182.452716 1.053595 Q 174.096244 1.053595 167.708364 6.437091 Q 161.320485 11.820587 161.320485 23.953541 Q 161.320485 35.323164 167.085647 41.389641 Q 172.850808 47.456118 182.050962 47.456118 Q 187.514809 47.456118 191.893922 45.407175 Q 196.273034 43.358233 199.125484 38.938945 Q 201.696706 35.041936 202.460038 29.899492 Q 202.901966 26.886341 202.821616 21.221618 L 172.850808 21.221618 Q 173.091861 14.632861 176.988869 11.981288 Q 179.359214 10.334099 182.693768 10.334099 Q 186.229198 10.334099 188.438842 12.342867 Q 189.644103 13.427601 190.568136 15.356017 Z M 190.929714 28.774583 Q 190.648486 33.314397 188.177703 35.664654 Q 185.706919 38.014912 182.050962 38.014912 Q 178.073603 38.014912 175.884047 35.524041 Q 173.694491 33.033169 173.132036 28.774583 Z M 232.551371 35.724917 Q 225.641212 35.724917 223.270866 31.225279 Q 221.945080 28.694232 221.945080 23.431262 L 221.945080 2.499907 L 210.414756 2.499907 L 210.414756 46.291033 L 221.342450 46.291033 L 221.342450 38.657717 Q 223.994022 43.036830 225.962614 44.643844 Q 229.176642 47.335592 234.319086 47.335592 Q 234.640489 47.335592 234.861453 47.315504 Q 235.082418 47.295417 235.845749 47.255241 L 235.845749 35.524041 Q 234.761015 35.644567 233.917333 35.684742 Q 233.073650 35.724917 232.551371 35.724917 Z" transform="scale(1.000000,1.000000) translate(126.000000,178.000000)" opacity="1.000000"> fill="currentColor"</path>
        <path d="M 19.839312 88.765202 L 19.839312 10.907091 C 19.839312 5.867614 15.754009 1.782311 10.714531 1.782311 C 5.675054 1.782311 1.589751 5.867614 1.589751 10.907091 L 1.589751 88.765202 C 1.589751 93.804679 5.675054 97.889983 10.714531 97.889983 C 15.754009 97.889983 19.839312 93.804679 19.839312 88.765202 Z" transform="scale(1.000000,1.000000) translate(234.000000,385.000000)" opacity="1.000000"> fill="currentColor"</path>
    </g>
</svg>