<?xml version="1.0" encoding="UTF-8" standalone="yes"?>
<!DOCTYPE svg PUBLIC "-//W3C//DTD SVG 1.1//EN" "http://www.w3.org/Graphics/SVG/1.1/DTD/svg11.dtd">

<svg width="500" height="500" viewBox="0 0 500 500" xmlns="http://www.w3.org/2000/svg" xmlns:xlink="http://www.w3.org/1999/xlink" version="1.1" baseProfile="full">
    <g transform="scale(1,-1) translate(0,-500)">
        <path d="M 22.052367 26.378377 L 289.376696 26.378377 C 286.891414 26.378377 284.876696 24.363659 284.876696 21.878378 L 284.876696 279.893582 C 284.876696 277.408301 286.891414 275.393583 289.376696 275.393583 L 22.052367 275.393583 C 24.537648 275.393583 26.552367 277.408301 26.552367 279.893582 L 26.552367 21.878378 C 26.552367 24.363659 24.537648 26.378377 22.052367 26.378377 Z M 22.052367 1.378377 C 10.730529 1.378377 1.552367 10.556540 1.552367 21.878378 L 1.552367 279.893582 C 1.552367 291.215420 10.730529 300.393583 22.052367 300.393583 L 289.376696 300.393583 C 300.698533 300.393583 309.876696 291.215420 309.876696 279.893582 L 309.876696 21.878378 C 309.876696 10.556540 300.698533 1.378377 289.376696 1.378377 L 22.052367 1.378377 Z" transform="scale(1.000000,1.000000) translate(89.000000,108.000000)" opacity="1.000000"> fill="currentColor"</path>
        <path d="M 10.618244 20.178845 L 98.631760 20.178845 C 103.671237 20.178845 107.756541 16.093542 107.756541 11.054065 C 107.756541 6.014587 103.671237 1.929284 98.631760 1.929284 L 10.618244 1.929284 C 5.578767 1.929284 1.493463 6.014587 1.493463 11.054065 C 1.493463 16.093542 5.578767 20.178845 10.618244 20.178845 Z" transform="scale(1.000000,1.000000) translate(8.000000,341.000000)" opacity="1.000000"> fill="currentColor"</path>
        <path d="M 10.925676 19.764988 L 98.939192 19.764988 C 103.978670 19.764988 108.063973 15.679685 108.063973 10.640208 C 108.063973 5.600730 103.978670 1.515427 98.939192 1.515427 L 10.925676 1.515427 C 5.886199 1.515427 1.800896 5.600730 1.800896 10.640208 C 1.800896 15.679685 5.886199 19.764988 10.925676 19.764988 Z" transform="scale(1.000000,1.000000) translate(6.000000,151.000000)" opacity="1.000000"> fill="currentColor"</path>
        <path d="M 10.983105 20.124781 L 104.920608 20.124781 C 109.960085 20.124781 114.045388 16.039477 114.045388 11.000000 C 114.045388 5.960523 109.960085 1.875219 104.920608 1.875219 L 10.983105 1.875219 C 5.943628 1.875219 1.858324 5.960523 1.858324 11.000000 C 1.858324 16.039477 5.943628 20.124781 10.983105 20.124781 Z" transform="scale(1.000000,1.000000) translate(379.000000,239.000000)" opacity="1.000000"> fill="currentColor"</path>
        <path d="M 19.839312 109.864869 L 19.839312 10.849663 C 19.839312 5.810186 15.754009 1.724882 10.714531 1.724882 C 5.675054 1.724882 1.589751 5.810186 1.589751 10.849663 L 1.589751 109.864869 C 1.589751 114.904346 5.675054 118.989649 10.714531 118.989649 C 15.754009 118.989649 19.839312 114.904346 19.839312 109.864869 Z" transform="scale(1.000000,1.000000) translate(234.000000,12.000000)" opacity="1.000000"> fill="currentColor"</path>
        <path d="M 82.215231 102.198592 L 82.215231 128.633969 L 59.074232 128.633969 L 59.074232 102.198592 L 46.820752 102.198592 L 46.820752 161.417050 L 59.074232 161.417050 L 59.074232 138.838506 L 82.215231 138.838506 L 82.215231 161.417050 L 94.508886 161.417050 L 94.508886 102.198592 Z M 107.043594 141.249027 Q 111.583408 147.034277 122.631627 147.034277 Q 129.823014 147.034277 135.407387 144.181827 Q 140.991760 141.329378 140.991760 133.414835 L 140.991760 113.327163 Q 140.991760 111.238045 141.072111 108.265069 Q 141.192637 106.015250 141.755092 105.211743 Q 142.317546 104.408236 143.442456 103.885956 L 143.442456 102.198592 L 130.988099 102.198592 Q 130.465820 103.524378 130.264943 104.689463 Q 130.064066 105.854548 129.943540 107.341036 Q 127.573195 104.769814 124.479693 102.961924 Q 120.783562 100.832630 116.123222 100.832630 Q 110.177271 100.832630 106.300350 104.227447 Q 102.423429 107.622264 102.423429 113.849442 Q 102.423429 121.924686 108.650607 125.540467 Q 112.065512 127.509059 118.694444 128.352741 L 122.591452 128.834846 Q 125.765304 129.236599 127.131266 129.839229 Q 129.581962 130.883788 129.581962 133.093432 Q 129.581962 135.785180 127.713809 136.809652 Q 125.845655 137.834123 122.229874 137.834123 Q 118.172164 137.834123 116.484800 135.825356 Q 115.279539 134.338868 114.877786 131.807821 L 103.829566 131.807821 Q 104.191144 137.552895 107.043594 141.249027 Z M 115.560767 110.474713 Q 117.167781 109.148927 119.497951 109.148927 Q 123.194082 109.148927 126.307672 111.318395 Q 129.421261 113.487864 129.541787 119.232938 L 129.541787 123.491525 Q 128.457052 122.808544 127.352230 122.386703 Q 126.247409 121.964862 124.318992 121.603284 L 121.747770 121.121179 Q 118.131989 120.478374 116.565150 119.554341 Q 113.913578 117.987503 113.913578 114.693124 Q 113.913578 111.760324 115.560767 110.474713 Z M 151.397174 161.417050 L 162.847148 161.417050 L 162.847148 102.198592 L 151.397174 102.198592 Z M 194.545495 161.778628 L 194.545495 152.457948 Q 193.581286 152.578474 191.311379 152.638737 Q 189.041472 152.699000 188.177703 151.634354 Q 187.313933 150.569707 187.313933 149.284096 L 187.313933 145.587964 L 194.826722 145.587964 L 194.826722 137.512720 L 187.313933 137.512720 L 187.313933 102.198592 L 175.904135 102.198592 L 175.904135 137.512720 L 169.516255 137.512720 L 169.516255 145.587964 L 175.783609 145.587964 L 175.783609 148.400239 Q 175.783609 155.430924 178.153954 158.082497 Q 180.644825 162.019680 190.166382 162.019680 Q 191.251116 162.019680 192.134974 161.959417 Q 193.018832 161.899154 194.545495 161.778628 Z M 40.432872 15.371721 L 18.617660 15.371721 L 14.519775 3.198592 L 1.583314 3.198592 L 22.715545 62.417050 L 36.696565 62.417050 L 57.668095 3.198592 L 44.249530 3.198592 Z M 36.977792 25.576259 L 29.585529 48.877959 L 21.952213 25.576259 Z M 104.110794 62.336700 L 104.110794 3.198592 L 92.982223 3.198592 L 92.982223 9.265069 Q 90.531527 5.368061 87.397850 3.600345 Q 84.264173 1.832630 79.603833 1.832630 Q 71.930342 1.832630 66.687460 8.039721 Q 61.444577 14.246812 61.444577 23.969245 Q 61.444577 35.178166 66.607109 41.606222 Q 71.769641 48.034277 80.407340 48.034277 Q 84.384699 48.034277 87.478201 46.286649 Q 90.571702 44.539022 92.500119 41.445520 L 92.500119 62.336700 Z M 73.256129 24.812928 Q 73.256129 18.746450 75.666649 15.130669 Q 78.036995 11.474713 82.898211 11.474713 Q 87.759428 11.474713 90.290475 15.090494 Q 92.821522 18.706275 92.821522 24.451349 Q 92.821522 32.486418 88.763812 35.941498 Q 86.272940 38.030616 82.978562 38.030616 Q 77.956644 38.030616 75.606386 34.234046 Q 73.256129 30.437476 73.256129 24.812928 Z M 154.370150 62.336700 L 154.370150 3.198592 L 143.241579 3.198592 L 143.241579 9.265069 Q 140.790883 5.368061 137.657206 3.600345 Q 134.523530 1.832630 129.863190 1.832630 Q 122.189699 1.832630 116.946816 8.039721 Q 111.703934 14.246812 111.703934 23.969245 Q 111.703934 35.178166 116.866466 41.606222 Q 122.028997 48.034277 130.666696 48.034277 Q 134.644056 48.034277 137.737557 46.286649 Q 140.831059 44.539022 142.759475 41.445520 L 142.759475 62.336700 Z M 123.515485 24.812928 Q 123.515485 18.746450 125.926006 15.130669 Q 128.296351 11.474713 133.157568 11.474713 Q 138.018785 11.474713 140.549831 15.090494 Q 143.080878 18.706275 143.080878 24.451349 Q 143.080878 32.486418 139.023168 35.941498 Q 136.532297 38.030616 133.237919 38.030616 Q 128.216000 38.030616 125.865743 34.234046 Q 123.515485 30.437476 123.515485 24.812928 Z M 202.259161 16.054702 Q 201.817232 12.157694 198.201451 8.140159 Q 192.576903 1.752280 182.452716 1.752280 Q 174.096244 1.752280 167.708364 7.135776 Q 161.320485 12.519272 161.320485 24.652226 Q 161.320485 36.021849 167.085647 42.088326 Q 172.850808 48.154803 182.050962 48.154803 Q 187.514809 48.154803 191.893922 46.105860 Q 196.273034 44.056918 199.125484 39.637630 Q 201.696706 35.740621 202.460038 30.598177 Q 202.901966 27.585026 202.821616 21.920303 L 172.850808 21.920303 Q 173.091861 15.331546 176.988869 12.679973 Q 179.359214 11.032784 182.693768 11.032784 Q 186.229198 11.032784 188.438842 13.041551 Q 189.644103 14.126286 190.568136 16.054702 Z M 190.929714 29.473267 Q 190.648486 34.013081 188.177703 36.363339 Q 185.706919 38.713597 182.050962 38.713597 Q 178.073603 38.713597 175.884047 36.222725 Q 173.694491 33.731854 173.132036 29.473267 Z M 232.551371 36.423602 Q 225.641212 36.423602 223.270866 31.923964 Q 221.945080 29.392917 221.945080 24.129947 L 221.945080 3.198592 L 210.414756 3.198592 L 210.414756 46.989718 L 221.342450 46.989718 L 221.342450 39.356402 Q 223.994022 43.735515 225.962614 45.342529 Q 229.176642 48.034277 234.319086 48.034277 Q 234.640489 48.034277 234.861453 48.014189 Q 235.082418 47.994101 235.845749 47.953926 L 235.845749 36.222725 Q 234.761015 36.343251 233.917333 36.383427 Q 233.073650 36.423602 232.551371 36.423602 Z" transform="scale(1.000000,1.000000) translate(126.000000,177.000000)" opacity="1.000000"> fill="currentColor"</path>
    </g>
</svg>