<?xml version="1.0" encoding="UTF-8" standalone="yes"?>
<!DOCTYPE svg PUBLIC "-//W3C//DTD SVG 1.1//EN" "http://www.w3.org/Graphics/SVG/1.1/DTD/svg11.dtd">

<svg width="500" height="500" viewBox="0 0 500 500" xmlns="http://www.w3.org/2000/svg" xmlns:xlink="http://www.w3.org/1999/xlink" version="1.1" baseProfile="full">
    <g transform="scale(1,-1) translate(0,-500)">
        <path d="M 21.841828 29.504763 L 281.978573 29.504763 C 279.560105 29.504763 277.599566 27.231341 277.599566 24.426932 L 277.599566 315.573069 C 277.599566 312.768650 279.560105 310.495238 281.978573 310.495238 L 21.841828 310.495238 C 24.260287 310.495238 26.220835 312.768650 26.220835 315.573069 L 26.220835 24.426932 C 26.220835 27.231341 24.260287 29.504763 21.841828 29.504763 Z M 21.841828 1.294590 C 10.824403 1.294590 1.893016 11.651292 1.893016 24.426932 L 1.893016 315.573069 C 1.893016 328.348709 10.824403 338.705410 21.841828 338.705410 L 281.978573 338.705410 C 292.995999 338.705410 301.927386 328.348709 301.927386 315.573069 L 301.927386 24.426932 C 301.927386 11.651292 292.995999 1.294590 281.978573 1.294590 L 21.841828 1.294590 Z" transform="scale(1.000000,1.000000) translate(94.000000,80.000000)" opacity="1.000000"> fill="currentColor"</path>
        <path d="M 10.315306 22.326362 L 95.962389 22.326362 C 100.866366 22.326362 104.841828 17.583785 104.841828 11.733521 C 104.841828 5.883254 100.866366 1.140678 95.962389 1.140678 L 10.315306 1.140678 C 5.411326 1.140678 1.435866 5.883254 1.435866 11.733521 C 1.435866 17.583785 5.411326 22.326362 10.315306 22.326362 Z" transform="scale(1.000000,1.000000) translate(11.000000,233.000000)" opacity="1.000000"> fill="currentColor"</path>
        <path d="M 10.858014 22.326362 L 102.269804 22.326362 C 107.173781 22.326362 111.149243 17.583784 111.149243 11.733520 C 111.149243 5.883255 107.173781 1.140677 102.269804 1.140677 L 10.858014 1.140677 C 5.954035 1.140677 1.978573 5.883255 1.978573 11.733520 C 1.978573 17.583784 5.954035 22.326362 10.858014 22.326362 Z" transform="scale(1.000000,1.000000) translate(374.000000,233.000000)" opacity="1.000000"> fill="currentColor"</path>
        <path d="M 1.343075 104.454399 L 8.552987 104.454399 L 8.552987 69.724300 L 1.343075 69.724300 Z M 26.860508 90.435126 Q 23.444047 90.435126 22.171709 87.537024 Q 21.511979 86.005507 21.511979 83.625764 L 21.511979 69.724300 L 14.820427 69.724300 L 14.820427 95.359543 L 21.299923 95.359543 L 21.299923 91.613216 Q 22.595822 93.592407 23.750350 94.464194 Q 25.823789 96.019273 29.004633 96.019273 Q 32.986577 96.019273 35.519471 93.934054 Q 38.052365 91.848834 38.052365 87.018664 L 38.052365 69.724300 L 31.172318 69.724300 L 31.172318 85.345776 Q 31.172318 87.372091 30.630397 88.455934 Q 29.640801 90.435126 26.860508 90.435126 Z M 61.944034 94.228576 Q 64.959945 92.296508 65.407619 87.584147 L 58.692505 87.584147 Q 58.551134 88.880047 57.962089 89.634024 Q 56.854684 91.000609 54.192201 91.000609 Q 52.000953 91.000609 51.070262 90.317317 Q 50.139570 89.634024 50.139570 88.715114 Q 50.139570 87.560586 51.129166 87.042226 Q 52.118762 86.500304 58.127022 85.180843 Q 62.132528 84.238371 64.135282 82.329865 Q 66.114473 80.397797 66.114473 77.499696 Q 66.114473 73.682683 63.275276 71.267598 Q 60.436079 68.852514 54.498504 68.852514 Q 48.443121 68.852514 45.556800 71.408969 Q 42.670479 73.965425 42.670479 77.923808 L 49.479840 77.923808 Q 49.691896 76.133111 50.398750 75.379133 Q 51.647526 74.036110 55.016864 74.036110 Q 56.996055 74.036110 58.162365 74.625155 Q 59.328674 75.214201 59.328674 76.392291 Q 59.328674 77.523257 58.386202 78.112302 Q 57.443730 78.701347 51.388346 80.138618 Q 47.029412 81.222460 45.238715 82.848225 Q 43.448018 84.450428 43.448018 87.466338 Q 43.448018 91.024171 46.240092 93.580626 Q 49.032166 96.137082 54.097953 96.137082 Q 58.904561 96.137082 61.944034 94.228576 Z M 82.843354 74.507346 L 82.843354 69.488682 L 79.662510 69.370873 Q 74.903026 69.205941 73.159453 71.020200 Q 72.028486 72.174728 72.028486 74.578032 L 72.028486 90.388002 L 68.447092 90.388002 L 68.447092 95.171048 L 72.028486 95.171048 L 72.028486 102.333837 L 78.672915 102.333837 L 78.672915 95.171048 L 82.843354 95.171048 L 82.843354 90.388002 L 78.672915 90.388002 L 78.672915 76.816403 Q 78.672915 75.237762 79.073465 74.848993 Q 79.474016 74.460223 81.523893 74.460223 Q 81.830196 74.460223 82.171842 74.472004 Q 82.513489 74.483785 82.843354 74.507346 Z M 100.067032 89.209912 Q 96.014402 89.209912 94.624256 86.570990 Q 93.846716 85.086596 93.846716 82.000000 L 93.846716 69.724300 L 87.084478 69.724300 L 87.084478 95.406666 L 93.493289 95.406666 L 93.493289 90.929924 Q 95.048368 93.498160 96.202896 94.440632 Q 98.087841 96.019273 101.103752 96.019273 Q 101.292246 96.019273 101.421836 96.007492 Q 101.551426 95.995711 101.999100 95.972150 L 101.999100 89.092103 Q 101.362931 89.162788 100.868134 89.186350 Q 100.373336 89.209912 100.067032 89.209912 Z M 122.403622 73.352818 Q 122.309375 73.235009 121.932386 72.645964 Q 121.555397 72.056919 121.037037 71.609245 Q 119.458397 70.195536 117.985784 69.677177 Q 116.513171 69.158817 114.533980 69.158817 Q 108.832023 69.158817 106.852832 73.258571 Q 105.745427 75.520504 105.745427 79.926561 L 105.745427 95.406666 L 112.625474 95.406666 L 112.625474 79.926561 Q 112.625474 77.735314 113.143833 76.627909 Q 114.062744 74.672279 116.748789 74.672279 Q 120.188813 74.672279 121.461150 77.452572 Q 122.120880 78.960527 122.120880 81.434517 L 122.120880 95.406666 L 128.930242 95.406666 L 128.930242 69.724300 L 122.403622 69.724300 Z M 157.628519 86.194001 L 150.748472 86.194001 Q 150.559977 87.631271 149.782438 88.785799 Q 148.651471 90.340878 146.271729 90.340878 Q 142.878829 90.340878 141.630054 86.971541 Q 140.970323 85.180843 140.970323 82.212056 Q 140.970323 79.384640 141.630054 77.664628 Q 142.831706 74.460223 146.153920 74.460223 Q 148.510101 74.460223 149.499696 75.732560 Q 150.489292 77.004898 150.701348 79.031213 L 157.557833 79.031213 Q 157.322215 75.968178 155.343024 73.235009 Q 152.185742 68.828952 145.988988 68.828952 Q 139.792233 68.828952 136.870570 72.504593 Q 133.948906 76.180235 133.948906 82.047124 Q 133.948906 88.667990 137.176873 92.343632 Q 140.404840 96.019273 146.083235 96.019273 Q 150.913404 96.019273 153.988220 93.851587 Q 157.063035 91.683901 157.628519 86.194001 Z M 174.003972 74.507346 L 174.003972 69.488682 L 170.823129 69.370873 Q 166.063644 69.205941 164.320071 71.020200 Q 163.189104 72.174728 163.189104 74.578032 L 163.189104 90.388002 L 159.607710 90.388002 L 159.607710 95.171048 L 163.189104 95.171048 L 163.189104 102.333837 L 169.833533 102.333837 L 169.833533 95.171048 L 174.003972 95.171048 L 174.003972 90.388002 L 169.833533 90.388002 L 169.833533 76.816403 Q 169.833533 75.237762 170.234083 74.848993 Q 170.634634 74.460223 172.684511 74.460223 Q 172.990814 74.460223 173.332461 74.472004 Q 173.674107 74.483785 174.003972 74.507346 Z M 185.219391 95.406666 L 185.219391 69.724300 L 178.410029 69.724300 L 178.410029 95.406666 Z M 185.219391 104.666455 L 185.219391 98.469701 L 178.410029 98.469701 L 178.410029 104.666455 Z M 213.140128 92.155137 Q 216.391657 88.078945 216.391657 82.518360 Q 216.391657 76.863527 213.140128 72.846239 Q 209.888599 68.828952 203.267732 68.828952 Q 196.646865 68.828952 193.395336 72.846239 Q 190.143808 76.863527 190.143808 82.518360 Q 190.143808 88.078945 193.395336 92.155137 Q 196.646865 96.231329 203.267732 96.231329 Q 209.888599 96.231329 213.140128 92.155137 Z M 203.244170 90.552935 Q 200.298945 90.552935 198.708523 88.467715 Q 197.118101 86.382495 197.118101 82.518360 Q 197.118101 78.654224 198.708523 76.557223 Q 200.298945 74.460223 203.244170 74.460223 Q 206.189396 74.460223 207.768037 76.557223 Q 209.346677 78.654224 209.346677 82.518360 Q 209.346677 86.382495 207.768037 88.467715 Q 206.189396 90.552935 203.244170 90.552935 Z M 233.285470 90.435126 Q 229.869008 90.435126 228.596671 87.537024 Q 227.936941 86.005507 227.936941 83.625764 L 227.936941 69.724300 L 221.245388 69.724300 L 221.245388 95.359543 L 227.724884 95.359543 L 227.724884 91.613216 Q 229.020783 93.592407 230.175312 94.464194 Q 232.248751 96.019273 235.429594 96.019273 Q 239.411539 96.019273 241.944433 93.934054 Q 244.477327 91.848834 244.477327 87.018664 L 244.477327 69.724300 L 237.597280 69.724300 L 237.597280 85.345776 Q 237.597280 87.372091 237.055359 88.455934 Q 236.065763 90.435126 233.285470 90.435126 Z M 40.691287 11.724300 L 33.929049 11.724300 L 33.929049 46.454399 L 44.484738 46.454399 L 50.799301 19.146268 L 57.066741 46.454399 L 67.504620 46.454399 L 67.504620 11.724300 L 60.742382 11.724300 L 60.742382 35.215419 Q 60.742382 36.228576 60.765944 38.054616 Q 60.789506 39.880656 60.789506 40.870251 L 54.215762 11.724300 L 47.170783 11.724300 L 40.644164 40.870251 Q 40.644164 39.880656 40.667725 38.054616 Q 40.691287 36.228576 40.691287 35.215419 Z M 95.684537 19.264077 Q 95.425357 16.978583 93.304795 14.622402 Q 90.006142 10.876075 84.068568 10.876075 Q 79.167712 10.876075 75.421386 14.033357 Q 71.675059 17.190639 71.675059 24.306303 Q 71.675059 30.974294 75.056178 34.532126 Q 78.437297 38.089959 83.832950 38.089959 Q 87.037355 38.089959 89.605591 36.888307 Q 92.173828 35.686655 93.846716 33.094856 Q 95.354672 30.809361 95.802346 27.793450 Q 96.061526 26.026315 96.014402 22.704101 L 78.437297 22.704101 Q 78.578667 18.839965 80.864162 17.284886 Q 82.254309 16.318852 84.209938 16.318852 Q 86.283377 16.318852 87.579276 17.496942 Q 88.286130 18.133111 88.828052 19.264077 Z M 89.040108 27.133720 Q 88.875176 29.796204 87.426125 31.174569 Q 85.977074 32.552935 83.832950 32.552935 Q 81.500331 32.552935 80.216213 31.092103 Q 78.932094 29.631271 78.602229 27.133720 Z M 114.958092 30.338125 Q 114.109867 32.199508 111.635878 32.199508 Q 108.761338 32.199508 107.771742 30.338125 Q 107.229821 29.277844 107.229821 27.180843 L 107.229821 11.724300 L 100.420459 11.724300 L 100.420459 37.359543 L 106.947079 37.359543 L 106.947079 33.613216 Q 108.195855 35.615969 109.303259 36.464194 Q 111.258889 37.972150 114.369047 37.972150 Q 117.314273 37.972150 119.128531 36.676250 Q 120.589363 35.474598 121.343341 33.589654 Q 122.662802 35.851587 124.618432 36.911868 Q 126.691870 37.972150 129.236545 37.972150 Q 130.932995 37.972150 132.582321 37.312419 Q 134.231648 36.652689 135.574670 35.003362 Q 136.658513 33.660339 137.035502 31.704710 Q 137.271120 30.408811 137.271120 27.911259 L 137.223997 11.724300 L 130.343950 11.724300 L 130.343950 28.076192 Q 130.343950 29.537024 129.872714 30.479496 Q 128.977365 32.270193 126.574061 32.270193 Q 123.793769 32.270193 122.733487 29.961136 Q 122.191566 28.735923 122.191566 27.015911 L 122.191566 11.724300 L 115.429328 11.724300 L 115.429328 27.015911 Q 115.429328 29.301406 114.958092 30.338125 Z M 164.861992 34.155137 Q 168.113521 30.078945 168.113521 24.518360 Q 168.113521 18.863527 164.861992 14.846239 Q 161.610463 10.828952 154.989597 10.828952 Q 148.368730 10.828952 145.117201 14.846239 Q 141.865672 18.863527 141.865672 24.518360 Q 141.865672 30.078945 145.117201 34.155137 Q 148.368730 38.231329 154.989597 38.231329 Q 161.610463 38.231329 164.861992 34.155137 Z M 154.966035 32.552935 Q 152.020809 32.552935 150.430388 30.467715 Q 148.839966 28.382495 148.839966 24.518360 Q 148.839966 20.654224 150.430388 18.557223 Q 152.020809 16.460223 154.966035 16.460223 Q 157.911260 16.460223 159.489901 18.557223 Q 161.068542 20.654224 161.068542 24.518360 Q 161.068542 28.382495 159.489901 30.467715 Q 157.911260 32.552935 154.966035 32.552935 Z M 185.831997 31.209912 Q 181.779367 31.209912 180.389221 28.570990 Q 179.611681 27.086596 179.611681 24.000000 L 179.611681 11.724300 L 172.849444 11.724300 L 172.849444 37.406666 L 179.258254 37.406666 L 179.258254 32.929924 Q 180.813333 35.498160 181.967862 36.440632 Q 183.852806 38.019273 186.868717 38.019273 Q 187.057211 38.019273 187.186801 38.007492 Q 187.316391 37.995711 187.764065 37.972150 L 187.764065 31.092103 Q 187.127897 31.162788 186.633099 31.186350 Q 186.138301 31.209912 185.831997 31.209912 Z M 202.136766 18.462976 L 207.438171 37.406666 L 214.577398 37.406666 L 205.765283 12.148413 Q 203.220609 4.844254 201.736215 3.088899 Q 200.251821 1.333545 195.798640 1.333545 Q 194.903292 1.333545 194.361370 1.345326 Q 193.819449 1.357107 192.735606 1.427792 L 192.735606 6.799883 L 193.583831 6.752760 Q 194.573427 6.705636 195.468775 6.823445 Q 196.364124 6.941254 196.976731 7.365367 Q 197.565776 7.765917 198.072354 9.038255 Q 198.578933 10.310592 198.484686 10.593334 L 189.059965 37.406666 L 196.529056 37.406666 Z" transform="scale(1.000000,1.000000) translate(123.000000,197.000000)" opacity="1.000000"> fill="currentColor"</path>
    </g>
</svg>