<?xml version="1.0" encoding="UTF-8" standalone="yes"?>
<!DOCTYPE svg PUBLIC "-//W3C//DTD SVG 1.1//EN" "http://www.w3.org/Graphics/SVG/1.1/DTD/svg11.dtd">

<svg width="600" height="693" viewBox="0 0 600 693" xmlns="http://www.w3.org/2000/svg" xmlns:xlink="http://www.w3.org/1999/xlink" version="1.1" baseProfile="full">
    <g transform="scale(1,-1) translate(0,-693)">
        <path d="M 107.832758 643.498978 L 244.073271 643.498978 C 245.453983 643.498978 246.573271 642.379690 246.573271 640.998978 L 246.573271 566.919254 C 246.573271 565.538542 245.453983 564.419254 244.073271 564.419254 L 40.315350 564.419254 L 42.815350 566.919254 L 42.815350 485.894556 L 40.315350 488.394556 L 158.470828 488.394556 C 159.851540 488.394556 160.970828 487.275268 160.970828 485.894556 L 160.970828 407.184849 L 155.970828 407.184849 L 155.970828 485.894556 L 158.470828 483.394556 L 40.315350 483.394556 C 38.934639 483.394556 37.815350 484.513845 37.815350 485.894556 L 37.815350 566.919254 C 37.815350 568.299966 38.934639 569.419254 40.315350 569.419254 L 244.073271 569.419254 L 241.573271 566.919254 L 241.573271 640.998978 L 244.073271 638.498978 L 107.832758 638.498978 L 107.832758 643.498978 Z M 246.573271 485.894556 L 246.573271 407.184849 L 241.573271 407.184849 L 241.573271 485.894556 L 246.573271 485.894556 Z M 76.485384 304.561470 L 4.145286 304.561470 L 6.645286 307.061470 L 6.645286 163.532014 L 4.145286 166.032014 L 76.485384 166.032014 C 77.866096 166.032014 78.985384 164.912726 78.985384 163.532014 L 78.985384 77.877325 L 73.985384 77.877325 L 73.985384 163.532014 L 76.485384 161.032014 L 4.145286 161.032014 C 2.764574 161.032014 1.645286 162.151302 1.645286 163.532014 L 1.645286 307.061470 C 1.645286 308.442182 2.764574 309.561470 4.145286 309.561470 L 76.485384 309.561470 L 76.485384 304.561470 Z M 107.832758 6.297599 L 244.073271 6.297599 L 241.573271 3.797599 L 241.573271 77.877325 L 244.073271 75.377325 L 158.470828 75.377325 C 157.090116 75.377325 155.970828 76.496613 155.970828 77.877325 L 155.970828 163.532014 C 155.970828 164.912726 157.090116 166.032014 158.470828 166.032014 L 244.073271 166.032014 L 241.573271 163.532014 L 241.573271 232.981746 L 244.073271 230.481746 L 76.485384 230.481746 L 76.485384 235.481746 L 244.073271 235.481746 C 245.453983 235.481746 246.573271 234.362458 246.573271 232.981746 L 246.573271 163.532014 C 246.573271 162.151302 245.453983 161.032014 244.073271 161.032014 L 158.470828 161.032014 L 160.970828 163.532014 L 160.970828 77.877325 L 158.470828 80.377325 L 244.073271 80.377325 C 245.453983 80.377325 246.573271 79.258037 246.573271 77.877325 L 246.573271 3.797599 C 246.573271 2.416887 245.453983 1.297599 244.073271 1.297599 L 107.832758 1.297599 L 107.832758 6.297599 Z" transform="scale(1.000000,1.000000) translate(-1.000000,25.000000)" fill="#5972ff" opacity="1.000000"> fill="currentColor"</path>
        <path d="M 56.538235 27.999043 C 56.538235 42.542372 44.257874 54.332069 29.109282 54.332069 C 13.960689 54.332069 1.680328 42.542372 1.680328 27.999043 C 1.680328 13.455713 13.960689 1.666016 29.109282 1.666016 C 44.257874 1.666016 56.538235 13.455713 56.538235 27.999043 Z" transform="scale(1.000000,1.000000) translate(94.000000,638.000000)" fill="#5972ff" opacity="1.000000"> fill="currentColor"</path>
        <path d="M 56.105499 27.657339 C 56.105499 42.200669 43.825138 53.990368 28.676544 53.990368 C 13.527951 53.990368 1.247589 42.200669 1.247589 27.657339 C 1.247589 13.114009 13.527951 1.324310 28.676544 1.324310 C 43.825138 1.324310 56.105499 13.114009 56.105499 27.657339 Z" transform="scale(1.000000,1.000000) translate(130.000000,408.000000)" fill="#5972ff" opacity="1.000000"> fill="currentColor"</path>
        <path d="M 56.502228 27.657339 C 56.502228 42.200669 44.221866 53.990368 29.073273 53.990368 C 13.924679 53.990368 1.644318 42.200669 1.644318 27.657339 C 1.644318 13.114009 13.924679 1.324310 29.073273 1.324310 C 44.221866 1.324310 56.502228 13.114009 56.502228 27.657339 Z" transform="scale(1.000000,1.000000) translate(214.000000,408.000000)" fill="#5972ff" opacity="1.000000"> fill="currentColor"</path>
        <path d="M 56.502228 28.209585 C 56.502228 42.752915 44.221866 54.542614 29.073273 54.542614 C 13.924679 54.542614 1.644318 42.752915 1.644318 28.209585 C 1.644318 13.666255 13.924679 1.876556 29.073273 1.876556 C 44.221866 1.876556 56.502228 13.666255 56.502228 28.209585 Z" transform="scale(1.000000,1.000000) translate(214.000000,485.000000)" fill="#5972ff" opacity="1.000000"> fill="currentColor"</path>
        <path d="M 55.914341 27.640249 C 55.914341 42.183579 43.633979 53.973278 28.485386 53.973278 C 13.336792 53.973278 1.056431 42.183579 1.056431 27.640249 C 1.056431 13.096919 13.336792 1.307220 28.485386 1.307220 C 43.633979 1.307220 55.914341 13.096919 55.914341 27.640249 Z" transform="scale(1.000000,1.000000) translate(47.000000,305.000000)" fill="#5972ff" opacity="1.000000"> fill="currentColor"</path>
        <path d="M 55.914341 28.141119 C 55.914341 42.684449 43.633979 54.474148 28.485386 54.474148 C 13.336792 54.474148 1.056431 42.684449 1.056431 28.141119 C 1.056431 13.597789 13.336792 1.808090 28.485386 1.808090 C 43.633979 1.808090 55.914341 13.597789 55.914341 28.141119 Z" transform="scale(1.000000,1.000000) translate(47.000000,73.000000)" fill="#5972ff" opacity="1.000000"> fill="currentColor"</path>
        <path d="M 55.914341 27.849920 C 55.914341 42.393250 43.633979 54.182949 28.485386 54.182949 C 13.336792 54.182949 1.056431 42.393250 1.056431 27.849920 C 1.056431 13.306590 13.336792 1.516891 28.485386 1.516891 C 43.633979 1.516891 55.914341 13.306590 55.914341 27.849920 Z" transform="scale(1.000000,1.000000) translate(47.000000,231.000000)" fill="#5972ff" opacity="1.000000"> fill="currentColor"</path>
        <path d="M 56.343292 28.061346 C 56.343292 42.604676 44.062931 54.394375 28.914337 54.394375 C 13.765744 54.394375 1.485382 42.604676 1.485382 28.061346 C 1.485382 13.518016 13.765744 1.728317 28.914337 1.728317 C 44.062931 1.728317 56.343292 13.518016 56.343292 28.061346 Z" transform="scale(1.000000,1.000000) translate(74.000000,-1.000000)" fill="#5972ff" opacity="1.000000"> fill="currentColor"</path>
        <path d="M 140.249365 638.498978 L 4.008852 638.498978 L 6.508852 640.998978 L 6.508852 566.919254 L 4.008852 569.419254 L 207.766772 569.419254 C 209.147484 569.419254 210.266772 568.299966 210.266772 566.919254 L 210.266772 485.894556 C 210.266772 484.513845 209.147484 483.394556 207.766772 483.394556 L 89.611295 483.394556 L 92.111295 485.894556 L 92.111295 407.184849 L 87.111295 407.184849 L 87.111295 485.894556 C 87.111295 487.275268 88.230583 488.394556 89.611295 488.394556 L 207.766772 488.394556 L 205.266772 485.894556 L 205.266772 566.919254 L 207.766772 564.419254 L 4.008852 564.419254 C 2.628140 564.419254 1.508852 565.538542 1.508852 566.919254 L 1.508852 640.998978 C 1.508852 642.379690 2.628140 643.498978 4.008852 643.498978 L 140.249365 643.498978 L 140.249365 638.498978 Z M 6.508852 485.894556 L 6.508852 407.184849 L 1.508852 407.184849 L 1.508852 485.894556 L 6.508852 485.894556 Z M 171.596739 309.561470 L 243.936837 309.561470 C 245.317549 309.561470 246.436837 308.442182 246.436837 307.061470 L 246.436837 163.532014 C 246.436837 162.151302 245.317549 161.032014 243.936837 161.032014 L 171.596739 161.032014 L 174.096739 163.532014 L 174.096739 77.877325 L 169.096739 77.877325 L 169.096739 163.532014 C 169.096739 164.912726 170.216027 166.032014 171.596739 166.032014 L 243.936837 166.032014 L 241.436837 163.532014 L 241.436837 307.061470 L 243.936837 304.561470 L 171.596739 304.561470 L 171.596739 309.561470 Z M 140.249365 1.297599 L 4.008852 1.297599 C 2.628140 1.297599 1.508852 2.416887 1.508852 3.797599 L 1.508852 77.877325 C 1.508852 79.258037 2.628140 80.377325 4.008852 80.377325 L 89.611295 80.377325 L 87.111295 77.877325 L 87.111295 163.532014 L 89.611295 161.032014 L 4.008852 161.032014 C 2.628140 161.032014 1.508852 162.151302 1.508852 163.532014 L 1.508852 232.981746 C 1.508852 234.362458 2.628140 235.481746 4.008852 235.481746 L 171.596739 235.481746 L 171.596739 230.481746 L 4.008852 230.481746 L 6.508852 232.981746 L 6.508852 163.532014 L 4.008852 166.032014 L 89.611295 166.032014 C 90.992007 166.032014 92.111295 164.912726 92.111295 163.532014 L 92.111295 77.877325 C 92.111295 76.496613 90.992007 75.377325 89.611295 75.377325 L 4.008852 75.377325 L 6.508852 77.877325 L 6.508852 3.797599 L 4.008852 6.297599 L 140.249365 6.297599 L 140.249365 1.297599 Z" transform="scale(1.000000,1.000000) translate(353.000000,25.000000)" fill="#ff8300" opacity="1.000000"> fill="currentColor"</path>
        <path d="M 1.543854 27.999044 C 1.543854 42.542375 13.824215 54.332073 28.972809 54.332073 C 44.121402 54.332073 56.401764 42.542375 56.401764 27.999044 C 56.401764 13.455714 44.121402 1.666016 28.972809 1.666016 C 13.824215 1.666016 1.543854 13.455714 1.543854 27.999044 Z" transform="scale(1.000000,1.000000) translate(448.000000,638.000000)" fill="#ff8300" opacity="1.000000"> fill="currentColor"</path>
        <path d="M 1.976715 27.657339 C 1.976715 42.200669 14.257077 53.990368 29.405670 53.990368 C 44.554264 53.990368 56.834625 42.200669 56.834625 27.657339 C 56.834625 13.114009 44.554264 1.324310 29.405670 1.324310 C 14.257077 1.324310 1.976715 13.114009 1.976715 27.657339 Z" transform="scale(1.000000,1.000000) translate(412.000000,408.000000)" fill="#ff8300" opacity="1.000000"> fill="currentColor"</path>
        <path d="M 1.579865 27.657339 C 1.579865 42.200669 13.860226 53.990368 29.008820 53.990368 C 44.157413 53.990368 56.437775 42.200669 56.437775 27.657339 C 56.437775 13.114009 44.157413 1.324310 29.008820 1.324310 C 13.860226 1.324310 1.579865 13.114009 1.579865 27.657339 Z" transform="scale(1.000000,1.000000) translate(328.000000,408.000000)" fill="#ff8300" opacity="1.000000"> fill="currentColor"</path>
        <path d="M 1.579865 28.209585 C 1.579865 42.752915 13.860226 54.542614 29.008820 54.542614 C 44.157413 54.542614 56.437775 42.752915 56.437775 28.209585 C 56.437775 13.666255 44.157413 1.876556 29.008820 1.876556 C 13.860226 1.876556 1.579865 13.666255 1.579865 28.209585 Z" transform="scale(1.000000,1.000000) translate(328.000000,485.000000)" fill="#ff8300" opacity="1.000000"> fill="currentColor"</path>
        <path d="M 1.167786 27.640249 C 1.167786 42.183579 13.448147 53.973278 28.596741 53.973278 C 43.745334 53.973278 56.025696 42.183579 56.025696 27.640249 C 56.025696 13.096919 43.745334 1.307220 28.596741 1.307220 C 13.448147 1.307220 1.167786 13.096919 1.167786 27.640249 Z" transform="scale(1.000000,1.000000) translate(496.000000,305.000000)" fill="#ff8300" opacity="1.000000"> fill="currentColor"</path>
        <path d="M 1.167786 28.141119 C 1.167786 42.684449 13.448147 54.474148 28.596741 54.474148 C 43.745334 54.474148 56.025696 42.684449 56.025696 28.141119 C 56.025696 13.597789 43.745334 1.808090 28.596741 1.808090 C 13.448147 1.808090 1.167786 13.597789 1.167786 28.141119 Z" transform="scale(1.000000,1.000000) translate(496.000000,73.000000)" fill="#ff8300" opacity="1.000000"> fill="currentColor"</path>
        <path d="M 1.167786 27.849920 C 1.167786 42.393250 13.448147 54.182949 28.596741 54.182949 C 43.745334 54.182949 56.025696 42.393250 56.025696 27.849920 C 56.025696 13.306590 43.745334 1.516891 28.596741 1.516891 C 13.448147 1.516891 1.167786 13.306590 1.167786 27.849920 Z" transform="scale(1.000000,1.000000) translate(496.000000,231.000000)" fill="#ff8300" opacity="1.000000"> fill="currentColor"</path>
        <path d="M 1.738953 28.061346 C 1.738953 42.604676 14.019314 54.394375 29.167908 54.394375 C 44.316501 54.394375 56.596863 42.604676 56.596863 28.061346 C 56.596863 13.518016 44.316501 1.728317 29.167908 1.728317 C 14.019314 1.728317 1.738953 13.518016 1.738953 28.061346 Z" transform="scale(1.000000,1.000000) translate(468.000000,-1.000000)" fill="#ff8300" opacity="1.000000"> fill="currentColor"</path>
        <path d="M 28.973157 4.800309 Q 24.826479 1.157093 18.367714 1.157093 Q 10.375934 1.157093 5.802023 6.079053 Q 1.228111 11.025141 1.228111 19.638571 Q 1.228111 28.951692 6.430307 33.994288 Q 10.953956 38.385448 17.940480 38.385448 Q 27.289354 38.385448 31.611952 32.498398 Q 33.999433 29.192964 34.175353 25.863403 L 26.434887 25.863403 Q 25.680946 28.420892 24.499771 29.723764 Q 22.388735 32.039980 18.242057 32.039980 Q 14.019985 32.039980 11.582241 28.770737 Q 9.144496 25.501494 9.144496 19.517935 Q 9.144496 13.534375 11.720463 10.554659 Q 14.296430 7.574943 18.267188 7.574943 Q 22.338472 7.574943 24.474639 10.132432 Q 25.655814 11.507686 26.434887 14.258193 L 34.099959 14.258193 Q 33.094703 8.443524 28.973157 4.800309 Z M 46.791307 28.445019 L 46.791307 2.146311 L 39.528337 2.146311 L 39.528337 28.445019 Z M 46.791307 37.927031 L 46.791307 31.581562 L 39.528337 31.581562 L 39.528337 37.927031 Z M 67.499565 22.099551 Q 63.176968 22.099551 61.694216 19.397298 Q 60.864881 17.877281 60.864881 14.716611 L 60.864881 2.146311 L 53.652174 2.146311 L 53.652174 28.445019 L 60.487910 28.445019 L 60.487910 23.860841 Q 62.146581 26.490711 63.378019 27.455802 Q 65.388529 29.072328 68.605346 29.072328 Q 68.806397 29.072328 68.944620 29.060264 Q 69.082842 29.048201 69.560339 29.024073 L 69.560339 21.978915 Q 68.881791 22.051296 68.354032 22.075424 Q 67.826273 22.099551 67.499565 22.099551 Z M 97.456173 19.011262 L 90.117809 19.011262 Q 89.916758 20.483025 89.087422 21.665260 Q 87.881116 23.257659 85.342847 23.257659 Q 81.723928 23.257659 80.391964 19.807462 Q 79.688286 17.973790 79.688286 14.933756 Q 79.688286 12.038485 80.391964 10.277196 Q 81.673665 6.995889 85.217190 6.995889 Q 87.730328 6.995889 88.785846 8.298761 Q 89.841364 9.601633 90.067546 11.676576 L 97.380779 11.676576 Q 97.129465 8.540033 95.018429 5.741272 Q 91.650823 1.229475 85.041270 1.229475 Q 78.431717 1.229475 75.315425 4.993327 Q 72.199134 8.757179 72.199134 14.764865 Q 72.199134 21.544624 75.642133 25.308476 Q 79.085132 29.072328 85.141796 29.072328 Q 90.293729 29.072328 93.573374 26.852620 Q 96.853020 24.632913 97.456173 19.011262 Z M 119.948760 5.861908 Q 119.848234 5.741272 119.446132 5.138090 Q 119.044030 4.534909 118.491139 4.076491 Q 116.807337 2.628856 115.236625 2.098056 Q 113.665914 1.567256 111.554878 1.567256 Q 105.473084 1.567256 103.362047 5.765399 Q 102.180872 8.081615 102.180872 12.593412 L 102.180872 28.445019 L 109.519236 28.445019 L 109.519236 12.593412 Q 109.519236 10.349577 110.072126 9.215596 Q 111.052250 7.213034 113.917228 7.213034 Q 117.586410 7.213034 118.943504 10.060050 Q 119.647183 11.604195 119.647183 14.137557 L 119.647183 28.445019 L 126.910152 28.445019 L 126.910152 2.146311 L 119.948760 2.146311 Z M 141.184777 28.445019 L 141.184777 2.146311 L 133.921808 2.146311 L 133.921808 28.445019 Z M 141.184777 37.927031 L 141.184777 31.581562 L 133.921808 31.581562 L 133.921808 37.927031 Z M 160.661598 7.044143 L 160.661598 1.905038 L 157.268862 1.784402 Q 152.192323 1.615511 150.332600 3.473310 Q 149.126294 4.655545 149.126294 7.116525 L 149.126294 23.305914 L 145.306324 23.305914 L 145.306324 28.203747 L 149.126294 28.203747 L 149.126294 35.538432 L 156.213344 35.538432 L 156.213344 28.203747 L 160.661598 28.203747 L 160.661598 23.305914 L 156.213344 23.305914 L 156.213344 9.408614 Q 156.213344 7.792088 156.640577 7.393989 Q 157.067811 6.995889 159.254241 6.995889 Q 159.580949 6.995889 159.945354 7.007953 Q 160.309759 7.020016 160.661598 7.044143 Z" transform="scale(1.000000,1.000000) translate(146.000000,308.000000)" fill="#ff8300" opacity="1.000000"> fill="currentColor"</path>
        <path d="M 25.147891 3.835609 Q 22.659884 3.039410 19.191753 3.039410 Q 11.953915 3.039410 7.229216 7.189297 Q 1.499260 12.183639 1.499260 21.858669 Q 1.499260 31.606080 7.380004 36.600422 Q 12.180098 40.677928 19.317410 40.677928 Q 26.504986 40.677928 31.380474 36.359150 Q 37.009903 31.364808 37.009903 22.389469 Q 37.009903 17.636399 35.803597 14.427474 Q 34.823473 11.363313 32.913488 9.336623 L 37.185823 5.500390 L 33.139670 1.447011 L 28.666284 5.500390 Q 26.630642 4.318154 25.147891 3.835609 Z M 23.489220 10.253459 L 19.744644 13.679529 L 23.740533 17.684654 L 27.485109 14.258583 Q 28.364708 15.995746 28.716547 17.298618 Q 29.269438 19.252925 29.269438 21.858669 Q 29.269438 27.842228 26.718602 31.111471 Q 24.167767 34.380715 19.267148 34.380715 Q 14.668105 34.380715 11.928784 31.244171 Q 9.189463 28.107628 9.189463 21.858669 Q 9.189463 14.548110 13.109959 11.387440 Q 15.648229 9.336623 19.191753 9.336623 Q 20.523717 9.336623 21.755154 9.650278 Q 22.433702 9.819168 23.489220 10.253459 Z M 59.904592 7.744224 Q 59.804067 7.623588 59.401964 7.020407 Q 58.999862 6.417225 58.446972 5.958807 Q 56.763169 4.511172 55.192458 3.980372 Q 53.621747 3.449573 51.510711 3.449573 Q 45.428916 3.449573 43.317880 7.647715 Q 42.136705 9.963932 42.136705 14.475729 L 42.136705 30.327336 L 49.475069 30.327336 L 49.475069 14.475729 Q 49.475069 12.231894 50.027959 11.097913 Q 51.008083 9.095351 53.873060 9.095351 Q 57.542242 9.095351 58.899337 11.942367 Q 59.603016 13.486511 59.603016 16.019873 L 59.603016 30.327336 L 66.865985 30.327336 L 66.865985 4.028627 L 59.904592 4.028627 Z M 97.224694 11.749349 Q 96.948249 9.409005 94.686425 6.996279 Q 91.168031 3.160046 84.834923 3.160046 Q 79.607596 3.160046 75.611706 6.393098 Q 71.615816 9.626150 71.615816 16.912582 Q 71.615816 23.740595 75.222169 27.383810 Q 78.828523 31.027026 84.583609 31.027026 Q 88.001477 31.027026 90.740798 29.796536 Q 93.480118 28.566046 95.264447 25.912048 Q 96.872855 23.571704 97.350351 20.483415 Q 97.626796 18.673871 97.576534 15.271928 L 78.828523 15.271928 Q 78.979311 11.315058 81.417055 9.722659 Q 82.899807 8.733442 84.985711 8.733442 Q 87.197273 8.733442 88.579499 9.939805 Q 89.333440 10.591241 89.911462 11.749349 Z M 90.137645 19.807852 Q 89.961725 22.534232 88.416145 23.945677 Q 86.870565 25.357121 84.583609 25.357121 Q 82.095602 25.357121 80.725942 23.861231 Q 79.356282 22.365341 79.004442 19.807852 Z M 121.275427 29.120973 Q 124.492244 27.142538 124.969740 22.317087 L 117.807296 22.317087 Q 117.656508 23.644086 117.028223 24.416158 Q 115.847048 25.815539 113.007202 25.815539 Q 110.669984 25.815539 109.677294 25.115848 Q 108.684605 24.416158 108.684605 23.475195 Q 108.684605 22.292960 109.740123 21.762160 Q 110.795641 21.207233 117.204143 19.856107 Q 121.476478 18.891016 123.612645 16.936709 Q 125.723681 14.958274 125.723681 11.990621 Q 125.723681 8.082006 122.695350 5.608962 Q 119.667018 3.135919 113.333910 3.135919 Q 106.875145 3.135919 103.796551 5.753726 Q 100.717956 8.371533 100.717956 12.424912 L 107.980926 12.424912 Q 108.207108 10.591241 108.961050 9.819168 Q 110.293013 8.443915 113.886801 8.443915 Q 115.997837 8.443915 117.241840 9.047096 Q 118.485843 9.650278 118.485843 10.856640 Q 118.485843 12.014749 117.480588 12.617930 Q 116.475333 13.221111 110.016568 14.692874 Q 105.367262 15.802728 103.457277 17.467508 Q 101.547292 19.108162 101.547292 22.196450 Q 101.547292 25.839666 104.525361 28.457473 Q 107.503430 31.075281 112.906677 31.075281 Q 118.033479 31.075281 121.275427 29.120973 Z M 143.566963 8.926460 L 143.566963 3.787354 L 140.174226 3.666718 Q 135.097687 3.497827 133.237965 5.355626 Q 132.031658 6.537862 132.031658 8.998842 L 132.031658 25.188230 L 128.211688 25.188230 L 128.211688 30.086063 L 132.031658 30.086063 L 132.031658 37.420749 L 139.118708 37.420749 L 139.118708 30.086063 L 143.566963 30.086063 L 143.566963 25.188230 L 139.118708 25.188230 L 139.118708 11.290931 Q 139.118708 9.674405 139.545942 9.276305 Q 139.973175 8.878205 142.159605 8.878205 Q 142.486313 8.878205 142.850718 8.890269 Q 143.215123 8.902333 143.566963 8.926460 Z" transform="scale(1.000000,1.000000) translate(327.000000,307.000000)" fill="#5972ff" opacity="1.000000"> fill="currentColor"</path>
    </g>
</svg>