<?xml version="1.0" encoding="UTF-8" standalone="yes"?>
<!DOCTYPE svg PUBLIC "-//W3C//DTD SVG 1.1//EN" "http://www.w3.org/Graphics/SVG/1.1/DTD/svg11.dtd">

<svg width="500" height="500" viewBox="0 0 500 500" xmlns="http://www.w3.org/2000/svg" xmlns:xlink="http://www.w3.org/1999/xlink" version="1.1" baseProfile="full">
    <g transform="scale(1,-1) translate(0,-500)">
        <path d="M 19.472155 440.439049 L 18.625871 9.680590 L 6.449703 17.637112 L 216.328088 110.148996 L 211.151156 102.209520 L 211.151156 344.089549 L 216.195144 336.210013 L 7.163043 432.576558 L 19.472155 440.439049 Z M 2.119072 440.473141 C 2.131494 446.796191 8.685952 450.982876 14.428183 448.335632 L 223.460284 351.969086 C 226.534940 350.551630 228.504273 347.475209 228.504273 344.089549 L 228.504273 102.209520 C 228.504273 98.771020 226.473736 95.656937 223.327340 94.270044 L 13.448956 1.758160 C 7.707230 -0.772724 1.260460 3.439921 1.272788 9.714682 L 2.119072 440.473141 Z" transform="scale(1.000000,1.000000) translate(161.000000,25.000000)" opacity="1.000000"> fill="currentColor"</path>
        <path d="M 150.524560 1.189761 L 10.276217 1.776234 C 5.484328 1.796272 1.615978 5.697109 1.636016 10.488998 C 1.656055 15.280887 5.556892 19.149237 10.348781 19.129199 L 150.597125 18.542726 C 155.389014 18.522688 159.257363 14.621850 159.237325 9.829961 C 159.217287 5.038072 155.316450 1.169723 150.524560 1.189761 Z" transform="scale(1.000000,1.000000) translate(21.000000,433.000000)" opacity="1.000000"> fill="currentColor"</path>
        <path d="M 149.811607 1.025999 L 9.947585 1.870897 C 5.155742 1.899844 1.294651 5.807867 1.323598 10.599710 C 1.352545 15.391554 5.260568 19.252645 10.052411 19.223698 L 149.916433 18.378799 C 154.708276 18.349852 158.569367 14.441829 158.540420 9.649986 C 158.511473 4.858142 154.603451 0.997052 149.811607 1.025999 Z" transform="scale(1.000000,1.000000) translate(20.000000,47.000000)" opacity="1.000000"> fill="currentColor"</path>
        <path d="M 18.353843 87.460777 L 18.353843 9.697636 C 18.353843 4.905705 14.469216 1.021078 9.677285 1.021078 C 4.885354 1.021078 1.000726 4.905705 1.000726 9.697636 L 1.000726 87.460777 C 1.000726 92.252707 4.885354 96.137335 9.677285 96.137335 C 14.469216 96.137335 18.353843 92.252707 18.353843 87.460777 Z" transform="scale(1.000000,1.000000) translate(337.000000,25.000000)" opacity="1.000000"> fill="currentColor"</path>
        <path d="M 9.827714 18.676558 L 102.072649 18.676558 C 106.864580 18.676558 110.749208 14.791931 110.749208 10.000000 C 110.749208 5.208069 106.864580 1.323442 102.072649 1.323442 L 9.827714 1.323442 C 5.035783 1.323442 1.151156 5.208069 1.151156 10.000000 C 1.151156 14.791931 5.035783 18.676558 9.827714 18.676558 Z" transform="scale(1.000000,1.000000) translate(371.000000,240.000000)" opacity="1.000000"> fill="currentColor"</path>
        <path d="M 149.896745 1.517865 L 10.259917 2.364149 C 5.468074 2.393191 1.607060 6.301290 1.636102 11.093133 C 1.665143 15.884975 5.573242 19.745989 10.365085 19.716947 L 150.001914 18.870664 C 154.793757 18.841622 158.654770 14.933523 158.625729 10.141680 C 158.596687 5.349837 154.688588 1.488824 149.896745 1.517865 Z" transform="scale(1.000000,1.000000) translate(21.000000,253.000000)" opacity="1.000000"> fill="currentColor"</path>
        <path d="M 149.844167 1.271719 L 10.207338 2.964287 C 5.415759 3.022366 1.578500 6.953791 1.636580 11.745370 C 1.694660 16.536949 5.626085 20.374209 10.417664 20.316129 L 150.054492 18.623561 C 154.846071 18.565481 158.683330 14.634056 158.625251 9.842477 C 158.567171 5.050898 154.635746 1.213639 149.844167 1.271719 Z" transform="scale(1.000000,1.000000) translate(21.000000,150.000000)" opacity="1.000000"> fill="currentColor"</path>
        <path d="M 150.524560 1.949881 L 10.276217 2.536353 C 5.484328 2.556392 1.615978 6.457229 1.636016 11.249118 C 1.656055 16.041007 5.556892 19.909357 10.348781 19.889319 L 150.597125 19.302846 C 155.389014 19.282808 159.257363 15.381970 159.237325 10.590081 C 159.217287 5.798192 155.316450 1.929843 150.524560 1.949881 Z" transform="scale(1.000000,1.000000) translate(21.000000,373.000000)" opacity="1.000000"> fill="currentColor"</path>
        <path d="M 149.913047 1.941439 L 9.664704 2.527912 C 4.872815 2.547950 1.004465 6.448788 1.024503 11.240677 C 1.044541 16.032566 4.945379 19.900915 9.737268 19.880877 L 149.985612 19.294405 C 154.777501 19.274367 158.645850 15.373529 158.625812 10.581640 C 158.605774 5.789751 154.704936 1.921401 149.913047 1.941439 Z" transform="scale(1.000000,1.000000) translate(21.000000,308.000000)" opacity="1.000000"> fill="currentColor"</path>
        <path d="M 150.259789 1.618728 L 10.011445 2.205201 C 5.219556 2.225239 1.351207 6.126076 1.371245 10.917965 C 1.391283 15.709854 5.292121 19.578204 10.084010 19.558166 L 150.332353 18.971693 C 155.124242 18.951655 158.992592 15.050818 158.972554 10.258928 C 158.952516 5.467039 155.051678 1.598690 150.259789 1.618728 Z" transform="scale(1.000000,1.000000) translate(21.000000,201.000000)" opacity="1.000000"> fill="currentColor"</path>
        <path d="M 149.913047 1.197821 L 9.664704 1.784294 C 4.872815 1.804332 1.004465 5.705170 1.024503 10.497059 C 1.044541 15.288948 4.945379 19.157297 9.737268 19.137259 L 149.985612 18.550787 C 154.777501 18.530749 158.645850 14.629911 158.625812 9.838022 C 158.605774 5.046133 154.704936 1.177783 149.913047 1.197821 Z" transform="scale(1.000000,1.000000) translate(21.000000,102.000000)" opacity="1.000000"> fill="currentColor"</path>
    </g>
</svg>