<?xml version="1.0" encoding="UTF-8" standalone="yes"?>
<!DOCTYPE svg PUBLIC "-//W3C//DTD SVG 1.1//EN" "http://www.w3.org/Graphics/SVG/1.1/DTD/svg11.dtd">

<svg width="500" height="500" viewBox="0 0 500 500" xmlns="http://www.w3.org/2000/svg" xmlns:xlink="http://www.w3.org/1999/xlink" version="1.1" baseProfile="full">
    <g transform="scale(1,-1) translate(0,-500)">
        <path d="M 16.582404 344.585258 L 15.891624 9.013508 L 6.252745 16.208502 L 177.566113 88.277607 L 173.040518 81.099833 L 173.040518 269.530522 L 177.465014 262.396232 L 6.842423 337.468220 L 16.582404 344.585258 Z M 2.417944 344.619694 C 2.429167 350.071297 7.508218 353.782592 12.157925 351.736766 L 182.780505 276.664778 C 185.454818 275.488112 187.205016 272.666012 187.205016 269.530522 L 187.205016 81.099833 C 187.205016 77.921190 185.407029 75.069525 182.679421 73.922050 L 11.366044 1.852950 C 6.718649 -0.102143 1.716017 3.632100 1.727165 9.047944 L 2.417944 344.619694 Z" transform="scale(1.000000,1.000000) translate(175.000000,83.000000)" opacity="1.000000"> fill="currentColor"</path>
        <path d="M 123.385405 1.231465 L 8.907599 1.751712 C 4.996217 1.769487 1.838674 5.229835 1.855029 9.480615 C 1.871385 13.731394 5.055447 17.162922 8.966829 17.145146 L 123.444639 16.624901 C 127.356024 16.607124 130.513560 13.146778 130.497213 8.895997 C 130.480852 4.645218 127.296783 1.213690 123.385405 1.231465 Z" transform="scale(1.000000,1.000000) translate(61.000000,385.000000)" opacity="1.000000"> fill="currentColor"</path>
        <path d="M 122.703569 1.060698 L 8.539467 1.810189 C 4.628122 1.835867 1.476504 5.302588 1.500132 9.553328 C 1.523759 13.804067 4.713685 17.229156 8.625031 17.203478 L 122.789137 16.453988 C 126.700476 16.428310 129.852096 12.961587 129.828460 8.710847 C 129.804840 4.460109 126.614916 1.035019 122.703569 1.060698 Z" transform="scale(1.000000,1.000000) translate(61.000000,91.000000)" opacity="1.000000"> fill="currentColor"</path>
        <path d="M 15.416802 86.470958 L 15.416802 9.231059 C 15.416802 4.980241 12.245974 1.534272 8.334557 1.534272 C 4.423140 1.534272 1.252310 4.980241 1.252310 9.231059 L 1.252310 86.470958 C 1.252310 90.721773 4.423140 94.167745 8.334557 94.167745 C 12.245974 94.167745 15.416802 90.721773 15.416802 86.470958 Z" transform="scale(1.000000,1.000000) translate(240.000000,31.000000)" opacity="1.000000"> fill="currentColor"</path>
        <path d="M 8.122765 17.172891 L 83.417751 17.172891 C 87.329167 17.172891 90.500000 13.726924 90.500000 9.476106 C 90.500000 5.225290 87.329167 1.779322 83.417751 1.779322 L 8.122765 1.779322 C 4.211348 1.779322 1.040518 5.225290 1.040518 9.476106 C 1.040518 13.726924 4.211348 17.172891 8.122765 17.172891 Z" transform="scale(1.000000,1.000000) translate(347.000000,227.000000)" opacity="1.000000"> fill="currentColor"</path>
        <path d="M 122.766440 1.590574 L 8.787788 2.341294 C 4.876443 2.367058 1.724888 5.833846 1.748593 10.084585 C 1.772299 14.335324 4.962286 17.760344 8.873631 17.734581 L 122.852282 16.983861 C 126.763637 16.958101 129.915188 13.491311 129.891491 9.240573 C 129.867764 4.989833 126.677779 1.564813 122.766440 1.590574 Z" transform="scale(1.000000,1.000000) translate(61.000000,287.000000)" opacity="1.000000"> fill="currentColor"</path>
        <path d="M 122.960983 1.468061 L 8.982332 2.969502 C 5.071202 3.021022 1.939036 6.508504 1.986445 10.759008 C 2.033853 15.009513 5.242881 18.413461 9.154010 18.361942 L 123.132660 16.860501 C 127.043794 16.808981 130.175964 13.321498 130.128540 9.070994 C 130.081148 4.820490 126.872109 1.416540 122.960983 1.468061 Z" transform="scale(1.000000,1.000000) translate(61.000000,189.000000)" opacity="1.000000"> fill="currentColor"</path>
    </g>
</svg>