<?xml version="1.0" encoding="UTF-8" standalone="yes"?>
<!DOCTYPE svg PUBLIC "-//W3C//DTD SVG 1.1//EN" "http://www.w3.org/Graphics/SVG/1.1/DTD/svg11.dtd">

<svg width="500" height="500" viewBox="0 0 500 500" xmlns="http://www.w3.org/2000/svg" xmlns:xlink="http://www.w3.org/1999/xlink" version="1.1" baseProfile="full">
    <g transform="scale(1,-1) translate(0,-500)">
        <path d="M 16.419340 317.900622 L 15.728101 8.917349 L 6.082832 15.542260 L 177.509796 81.901086 L 172.981198 75.292027 L 172.981198 248.792718 L 177.408632 242.223710 L 6.672900 311.347492 L 16.419340 317.900622 Z M 2.245489 317.932328 C 2.256719 322.951979 7.339137 326.369205 11.991927 324.485483 L 182.727650 255.361701 C 185.403735 254.278271 187.155085 251.679782 187.155085 248.792718 L 187.155085 75.292027 C 187.155085 72.365243 185.355914 69.739522 182.626486 68.682968 L 11.199521 2.324146 C 6.549044 0.523961 1.543095 3.962328 1.554252 8.949057 L 2.245489 317.932328 Z" transform="scale(1.000000,1.000000) translate(175.000000,108.000000)" opacity="1.000000"> fill="currentColor"</path>
        <path d="M 123.101944 1.484165 L 8.548229 1.963191 C 4.634253 1.979558 1.474616 5.165731 1.490983 9.079707 C 1.507350 12.993683 4.693522 16.153320 8.607498 16.136952 L 123.161219 15.657927 C 127.075192 15.641560 130.234827 12.455387 130.218463 8.541411 C 130.202099 4.627435 127.015917 1.467798 123.101944 1.484165 Z" transform="scale(1.000000,1.000000) translate(61.000000,320.000000)" opacity="1.000000"> fill="currentColor"</path>
        <path d="M 122.730233 1.868603 L 8.490428 2.558709 C 4.576490 2.582353 1.422782 5.774395 1.446426 9.688333 C 1.470069 13.602272 4.662110 16.755980 8.576049 16.732336 L 122.815856 16.042230 C 126.729792 16.018587 129.883494 12.826545 129.859851 8.912606 C 129.836208 4.998667 126.644169 1.844959 122.730233 1.868603 Z" transform="scale(1.000000,1.000000) translate(61.000000,174.000000)" opacity="1.000000"> fill="currentColor"</path>
        <path d="M 16.173886 87.132930 L 16.173886 8.409391 C 16.173886 4.495381 13.000953 1.322449 9.086943 1.322449 C 5.172933 1.322449 2.000000 4.495381 2.000000 8.409391 L 2.000000 87.132930 C 2.000000 91.046941 5.172933 94.219874 9.086943 94.219874 C 13.000953 94.219874 16.173886 91.046941 16.173886 87.132930 Z" transform="scale(1.000000,1.000000) translate(248.000000,56.000000)" opacity="1.000000"> fill="currentColor"</path>
        <path d="M 9.068142 16.020631 L 84.413056 16.020631 C 88.327067 16.020631 91.500000 12.847700 91.500000 8.933689 C 91.500000 5.019678 88.327067 1.846747 84.413056 1.846747 L 9.068142 1.846747 C 5.154131 1.846747 1.981200 5.019678 1.981200 8.933689 C 1.981200 12.847700 5.154131 16.020631 9.068142 16.020631 Z" transform="scale(1.000000,1.000000) translate(346.000000,241.000000)" opacity="1.000000"> fill="currentColor"</path>
    </g>
</svg>