<?xml version="1.0" encoding="UTF-8" standalone="yes"?>
<!DOCTYPE svg PUBLIC "-//W3C//DTD SVG 1.1//EN" "http://www.w3.org/Graphics/SVG/1.1/DTD/svg11.dtd">

<svg width="500" height="500" viewBox="0 0 500 500" xmlns="http://www.w3.org/2000/svg" xmlns:xlink="http://www.w3.org/1999/xlink" version="1.1" baseProfile="full">
    <g transform="scale(1,-1) translate(0,-500)">
        <path d="M 17.826673 1.232427 L 5.170327 1.232427 C 2.900897 1.232427 1.061162 3.072163 1.061162 5.341592 C 1.061162 7.611021 2.900897 9.450757 5.170327 9.450757 L 17.826673 9.450757 C 20.096102 9.450757 21.935838 7.611021 21.935838 5.341592 C 21.935838 3.072163 20.096102 1.232427 17.826673 1.232427 Z" transform="scale(3.600000,3.600000) translate(18.611112,42.777779)" opacity="1.000000"> fill="currentColor"</path>
        <path d="M 15.153405 1.011190 L 5.321912 1.011190 C 3.052482 1.011190 1.212747 2.850926 1.212747 5.120356 C 1.212747 7.389785 3.052482 9.229521 5.321912 9.229521 L 15.153405 9.229521 C 17.422835 9.229521 19.262571 7.389785 19.262571 5.120356 C 19.262571 2.850926 17.422835 1.011190 15.153405 1.011190 Z" transform="scale(3.600000,3.600000) translate(105.277781,63.333335)" opacity="1.000000"> fill="currentColor"</path>
        <path d="M 9.352402 66.329302 C 9.352402 52.182507 9.352402 52.182507 9.352402 39.422502 C 9.352402 38.000616 9.352402 38.000616 9.352402 36.576812 C 9.352402 22.270766 9.352402 22.270766 9.352402 5.678959 L 5.292090 9.787834 L 33.153324 9.456568 L 33.052370 9.456528 C 48.081145 9.647093 55.120379 17.862310 55.120379 35.837252 L 55.121668 35.734337 C 54.664260 53.991879 47.583374 62.318824 33.067143 62.450692 C 19.217167 62.297016 9.919975 62.220137 5.243236 62.220137 L 9.352402 66.329302 Z M 1.134071 66.329302 C 1.134071 68.598732 2.973807 70.438468 5.243236 70.438468 C 9.879700 70.438468 19.156664 70.515179 33.059125 70.668603 C 52.440437 70.493371 62.776268 58.338692 63.337421 35.940167 L 63.338710 35.837252 C 63.338710 13.601137 52.961228 1.489981 33.156570 1.238858 L 33.055616 1.238818 L 5.194382 1.570085 C 2.944168 1.596839 1.134071 3.428586 1.134071 5.678959 C 1.134071 22.270766 1.134071 22.270766 1.134071 36.576812 C 1.134071 38.000616 1.134071 38.000616 1.134071 39.422502 C 1.134071 52.182507 1.134071 52.182507 1.134071 66.329302 Z" transform="scale(3.600000,3.600000) translate(32.777779,32.500001)" opacity="1.000000"> fill="currentColor"</path>
        <path d="M 18.986440 1.194011 L 5.170327 1.194011 C 2.900897 1.194011 1.061162 3.033747 1.061162 5.303176 C 1.061162 7.572606 2.900897 9.412341 5.170327 9.412341 L 18.986440 9.412341 C 21.255869 9.412341 23.095605 7.572606 23.095605 5.303176 C 23.095605 3.033747 21.255869 1.194011 18.986440 1.194011 Z" transform="scale(3.600000,3.600000) translate(18.611112,85.000002)" opacity="1.000000"> fill="currentColor"</path>
        <path d="M 14.393566 10.078760 C 14.393566 12.283367 12.495027 14.109149 10.107466 14.109149 C 7.719904 14.109149 5.821366 12.283367 5.821366 10.078760 C 5.821366 7.874152 7.719904 6.048370 10.107466 6.048370 C 12.495027 6.048370 14.393566 7.874152 14.393566 10.078760 Z M 19.166667 10.078760 C 19.166667 5.195410 15.090311 1.275268 10.107466 1.275268 C 5.124620 1.275268 1.048264 5.195410 1.048264 10.078760 C 1.048264 14.962109 5.124620 18.882251 10.107466 18.882251 C 15.090311 18.882251 19.166667 14.962109 19.166667 10.078760 Z" transform="scale(3.600000,3.600000) translate(91.944447,58.611113)" opacity="1.000000"> fill="currentColor"</path>
    </g>
</svg>