<?xml version="1.0" encoding="UTF-8" standalone="yes"?>
<!DOCTYPE svg PUBLIC "-//W3C//DTD SVG 1.1//EN" "http://www.w3.org/Graphics/SVG/1.1/DTD/svg11.dtd">

<svg width="500" height="500" viewBox="0 0 500 500" xmlns="http://www.w3.org/2000/svg" xmlns:xlink="http://www.w3.org/1999/xlink" version="1.1" baseProfile="full">
    <g transform="scale(1,-1) translate(0,-500)">
        <path d="M 24.355545 1.168613 L 5.277778 1.168613 C 3.008349 1.168613 1.168613 3.008349 1.168613 5.277778 C 1.168613 7.547207 3.008349 9.386943 5.277778 9.386943 L 24.355545 9.386943 C 26.624974 9.386943 28.464710 7.547207 28.464710 5.277778 C 28.464710 3.008349 26.624974 1.168613 24.355545 1.168613 Z" transform="scale(3.600000,3.600000) translate(11.388889,39.166668)" opacity="1.000000"> fill="currentColor"</path>
        <path d="M 19.430092 1.252609 L 5.112497 1.252609 C 2.843068 1.252609 1.003332 3.092345 1.003332 5.361774 C 1.003332 7.631204 2.843068 9.470940 5.112497 9.470940 L 19.430092 9.470940 C 21.699521 9.470940 23.539257 7.631204 23.539257 5.361774 C 23.539257 3.092345 21.699521 1.252609 19.430092 1.252609 Z" transform="scale(3.600000,3.600000) translate(104.444447,64.444446)" opacity="1.000000"> fill="currentColor"</path>
        <path d="M 8.401097 72.608074 C 25.501990 50.161799 25.420944 21.136451 8.155633 2.381892 L 4.842255 9.263904 C 35.052959 11.402870 53.237566 21.380530 60.173355 38.970050 L 60.375263 35.519765 C 50.439599 54.035618 32.117797 64.199809 4.859019 66.017780 L 8.401097 72.608074 Z M 1.863832 67.627600 C -0.274282 70.434044 1.885607 74.452674 5.405909 74.217894 C 35.314013 72.223232 56.234614 60.617332 67.616875 39.405637 C 68.188089 38.341138 68.261936 37.079211 67.818783 35.955353 C 59.540394 14.960932 38.482599 3.406791 5.422673 1.066095 C 1.712624 0.803417 -0.409784 5.211740 2.109295 7.948107 C 16.567696 23.653641 16.636340 48.237514 1.863832 67.627600 Z" transform="scale(3.600000,3.600000) translate(26.666667,32.500001)" opacity="1.000000"> fill="currentColor"</path>
        <path d="M 15.277032 10.974750 C 15.277032 13.766115 13.174721 15.980297 10.644968 15.980297 C 8.115215 15.980297 6.012904 13.766115 6.012904 10.974750 C 6.012904 8.183386 8.115215 5.969204 10.644968 5.969204 C 13.174721 5.969204 15.277032 8.183386 15.277032 10.974750 Z M 20.050134 10.974750 C 20.050134 5.601030 15.867763 1.196102 10.644968 1.196102 C 5.422173 1.196102 1.239802 5.601030 1.239802 10.974750 C 1.239802 16.348471 5.422173 20.753399 10.644968 20.753399 C 15.867763 20.753399 20.050134 16.348471 20.050134 10.974750 Z" transform="scale(3.600000,3.600000) translate(90.000002,59.166668)" opacity="1.000000"> fill="currentColor"</path>
        <path d="M 21.944445 1.122530 L 5.277778 1.122530 C 3.008349 1.122530 1.168613 2.962266 1.168613 5.231695 C 1.168613 7.501124 3.008349 9.340860 5.277778 9.340860 L 21.944445 9.340860 C 24.213875 9.340860 26.053611 7.501124 26.053611 5.231695 C 26.053611 2.962266 24.213875 1.122530 21.944445 1.122530 Z" transform="scale(3.600000,3.600000) translate(11.388889,91.388891)" opacity="1.000000"> fill="currentColor"</path>
    </g>
</svg>