<?xml version="1.0" encoding="UTF-8" standalone="yes"?>
<!DOCTYPE svg PUBLIC "-//W3C//DTD SVG 1.1//EN" "http://www.w3.org/Graphics/SVG/1.1/DTD/svg11.dtd">

<svg width="500" height="500" viewBox="0 0 500 500" xmlns="http://www.w3.org/2000/svg" xmlns:xlink="http://www.w3.org/1999/xlink" version="1.1" baseProfile="full">
    <g transform="scale(1,-1) translate(0,-500)">
        <path d="M 15.076185 1.061430 L 5.640586 1.061430 C 3.180986 1.061430 1.187085 3.055331 1.187085 5.514932 C 1.187085 7.974532 3.180986 9.968433 5.640586 9.968433 L 15.076185 9.968433 C 17.535786 9.968433 19.529686 7.974532 19.529686 5.514932 C 19.529686 3.055331 17.535786 1.061430 15.076185 1.061430 Z" transform="scale(3.600000,3.600000) translate(101.944447,63.611113)" opacity="1.000000"> fill="currentColor"</path>
        <path d="M 17.222274 1.102055 L 5.669013 1.102055 C 3.209412 1.102055 1.215512 3.095955 1.215512 5.555556 C 1.215512 8.015157 3.209412 10.009057 5.669013 10.009057 L 17.222274 10.009057 C 19.681875 10.009057 21.675775 8.015157 21.675775 5.555556 C 21.675775 3.095955 19.681875 1.102055 17.222274 1.102055 Z" transform="scale(3.600000,3.600000) translate(18.611112,63.888891)" opacity="1.000000"> fill="currentColor"</path>
        <path d="M 13.048751 9.804914 C 13.048751 11.675470 11.578423 13.172481 9.789062 13.172481 C 7.999701 13.172481 6.529374 11.675470 6.529374 9.804914 C 6.529374 7.934358 7.999701 6.437347 9.789062 6.437347 C 11.578423 6.437347 13.048751 7.934358 13.048751 9.804914 Z M 18.418365 9.804914 C 18.418365 4.990203 14.565810 1.067734 9.789062 1.067734 C 5.012315 1.067734 1.159760 4.990203 1.159760 9.804914 C 1.159760 14.619625 5.012315 18.542094 9.789062 18.542094 C 14.565810 18.542094 18.418365 14.619625 18.418365 9.804914 Z" transform="scale(3.600000,3.600000) translate(89.166669,59.444446)" opacity="1.000000"> fill="currentColor"</path>
        <path d="M 10.052774 67.281326 L 10.214704 5.690668 L 3.361889 9.430878 L 51.778906 40.393278 L 51.803046 32.874113 L 3.224099 63.502371 L 10.052774 67.281326 Z M 1.145803 67.257909 C 1.136572 70.768971 5.004436 72.909429 7.974478 71.036864 L 56.553425 40.408606 C 59.314000 38.668108 59.326908 34.647630 56.577566 32.889441 L 8.160548 1.927041 C 5.200628 0.034190 1.316970 2.153858 1.307733 5.667251 L 1.145803 67.257909 Z" transform="scale(3.600000,3.600000) translate(35.277779,32.500001)" opacity="1.000000"> fill="currentColor"</path>
    </g>
</svg>