<?xml version="1.0" encoding="UTF-8" standalone="yes"?>
<!DOCTYPE svg PUBLIC "-//W3C//DTD SVG 1.1//EN" "http://www.w3.org/Graphics/SVG/1.1/DTD/svg11.dtd">

<svg width="500" height="500" viewBox="0 0 500 500" xmlns="http://www.w3.org/2000/svg" xmlns:xlink="http://www.w3.org/1999/xlink" version="1.1" baseProfile="full">
    <g transform="scale(1,-1) translate(0,-500)">
        <path d="M 25.042379 1.063428 L 5.267935 1.063428 C 2.998506 1.063428 1.158770 2.903164 1.158770 5.172593 C 1.158770 7.442023 2.998506 9.281759 5.267935 9.281759 L 25.042379 9.281759 C 27.311808 9.281759 29.151544 7.442023 29.151544 5.172593 C 29.151544 2.903164 27.311808 1.063428 25.042379 1.063428 Z" transform="scale(3.600000,3.600000) translate(15.555556,43.611112)" opacity="1.000000"> fill="currentColor"</path>
        <path d="M 21.575078 1.252609 L 5.131582 1.252609 C 2.862153 1.252609 1.022417 3.092345 1.022417 5.361774 C 1.022417 7.631204 2.862153 9.470940 5.131582 9.470940 L 21.575078 9.470940 C 23.844508 9.470940 25.684244 7.631204 25.684244 5.361774 C 25.684244 3.092345 23.844508 1.252609 21.575078 1.252609 Z" transform="scale(3.600000,3.600000) translate(103.055558,64.444446)" opacity="1.000000"> fill="currentColor"</path>
        <path d="M 8.279673 73.144236 C 29.359674 50.592910 29.258730 21.128382 8.001648 2.308708 L 5.041049 9.487698 C 42.525162 11.650747 65.259436 21.817490 73.800998 39.472638 L 74.067903 35.423430 C 61.801391 54.054763 38.935760 64.393412 5.054745 66.235087 L 8.279673 73.144236 Z M 2.275883 67.532154 C -0.251992 70.236468 1.804448 74.642227 5.500811 74.441303 C 41.760241 72.470344 67.042761 61.038903 80.932104 39.942688 C 81.727819 38.734095 81.829199 37.196062 81.199010 35.893480 C 71.073659 14.964688 45.659783 3.599630 5.514507 1.283016 C 1.620754 1.058325 -0.366305 5.876634 2.553908 8.462006 C 20.219978 24.102426 20.302696 48.247119 2.275883 67.532154 Z" transform="scale(3.600000,3.600000) translate(28.055556,31.944445)" opacity="1.000000"> fill="currentColor"</path>
        <path d="M 23.055557 1.114191 L 5.110558 1.114191 C 2.841129 1.114191 1.001393 2.953927 1.001393 5.223356 C 1.001393 7.492785 2.841129 9.332521 5.110558 9.332521 L 23.055557 9.332521 C 25.324986 9.332521 27.164722 7.492785 27.164722 5.223356 C 27.164722 2.953927 25.324986 1.114191 23.055557 1.114191 Z" transform="scale(3.600000,3.600000) translate(15.833334,85.277780)" opacity="1.000000"> fill="currentColor"</path>
    </g>
</svg>