<?xml version="1.0" encoding="UTF-8" standalone="yes"?>
<!DOCTYPE svg PUBLIC "-//W3C//DTD SVG 1.1//EN" "http://www.w3.org/Graphics/SVG/1.1/DTD/svg11.dtd">

<svg width="500" height="500" viewBox="0 0 500 500" xmlns="http://www.w3.org/2000/svg" xmlns:xlink="http://www.w3.org/1999/xlink" version="1.1" baseProfile="full">
    <g transform="scale(1,-1) translate(0,-500)">
        <path d="M 21.841828 29.504763 L 281.978573 29.504763 C 279.560105 29.504763 277.599566 27.231341 277.599566 24.426932 L 277.599566 315.573069 C 277.599566 312.768650 279.560105 310.495238 281.978573 310.495238 L 21.841828 310.495238 C 24.260287 310.495238 26.220835 312.768650 26.220835 315.573069 L 26.220835 24.426932 C 26.220835 27.231341 24.260287 29.504763 21.841828 29.504763 Z M 21.841828 1.294590 C 10.824403 1.294590 1.893016 11.651292 1.893016 24.426932 L 1.893016 315.573069 C 1.893016 328.348709 10.824403 338.705410 21.841828 338.705410 L 281.978573 338.705410 C 292.995999 338.705410 301.927386 328.348709 301.927386 315.573069 L 301.927386 24.426932 C 301.927386 11.651292 292.995999 1.294590 281.978573 1.294590 L 21.841828 1.294590 Z" transform="scale(1.000000,1.000000) translate(94.000000,80.000000)" opacity="1.000000"> fill="currentColor"</path>
        <path d="M 10.315306 22.326362 L 95.962389 22.326362 C 100.866366 22.326362 104.841828 17.583785 104.841828 11.733521 C 104.841828 5.883254 100.866366 1.140678 95.962389 1.140678 L 10.315306 1.140678 C 5.411326 1.140678 1.435866 5.883254 1.435866 11.733521 C 1.435866 17.583785 5.411326 22.326362 10.315306 22.326362 Z" transform="scale(1.000000,1.000000) translate(11.000000,233.000000)" opacity="1.000000"> fill="currentColor"</path>
        <path d="M 10.858014 22.326362 L 102.269804 22.326362 C 107.173781 22.326362 111.149243 17.583784 111.149243 11.733520 C 111.149243 5.883255 107.173781 1.140677 102.269804 1.140677 L 10.858014 1.140677 C 5.954035 1.140677 1.978573 5.883255 1.978573 11.733520 C 1.978573 17.583784 5.954035 22.326362 10.858014 22.326362 Z" transform="scale(1.000000,1.000000) translate(374.000000,233.000000)" opacity="1.000000"> fill="currentColor"</path>
        <path d="M 38.684942 35.915695 L 19.820168 35.915695 L 19.820168 3.972147 L 1.377289 3.972147 L 1.377289 92.811374 L 40.071172 92.811374 Q 53.451300 92.811374 61.407051 85.940497 Q 69.362803 79.069621 69.362803 64.664889 Q 69.362803 48.934198 61.407051 42.424947 Q 53.451300 35.915695 38.684942 35.915695 Z M 47.363944 54.418845 Q 50.980195 57.613200 50.980195 64.544347 Q 50.980195 71.475494 47.333809 74.428766 Q 43.687422 77.382037 37.117900 77.382037 L 19.820168 77.382037 L 19.820168 51.224490 L 37.117900 51.224490 Q 43.687422 51.224490 47.363944 54.418845 Z M 145.967048 10.601940 Q 136.022358 1.501042 120.532751 1.501042 Q 101.366622 1.501042 90.397328 13.796295 Q 79.428034 26.151818 79.428034 47.668510 Q 79.428034 70.933057 91.904099 83.529664 Q 102.752851 94.498958 119.508147 94.498958 Q 141.928901 94.498958 152.295487 79.792871 Q 158.021217 71.535765 158.443113 63.218389 L 139.879693 63.218389 Q 138.071567 69.607098 135.238837 72.861724 Q 130.176086 78.647725 120.231397 78.647725 Q 110.105895 78.647725 104.259623 70.481026 Q 98.413351 62.314326 98.413351 47.367156 Q 98.413351 32.419986 104.591112 24.976537 Q 110.768874 17.533087 120.291668 17.533087 Q 130.055545 17.533087 135.178567 23.921797 Q 138.011296 27.357235 139.879693 34.228112 L 158.262301 34.228112 Q 155.851467 19.702838 145.967048 10.601940 Z" transform="scale(1.000000,1.000000) translate(166.000000,202.000000)" opacity="1.000000"> fill="currentColor"</path>
    </g>
</svg>