<?xml version="1.0" encoding="UTF-8" standalone="yes"?>
<!DOCTYPE svg PUBLIC "-//W3C//DTD SVG 1.1//EN" "http://www.w3.org/Graphics/SVG/1.1/DTD/svg11.dtd">

<svg width="500" height="500" viewBox="0 0 500 500" xmlns="http://www.w3.org/2000/svg" xmlns:xlink="http://www.w3.org/1999/xlink" version="1.1" baseProfile="full">
    <g transform="scale(1,-1) translate(0,-500)">
        <path d="M 21.376511 27.543045 L 281.513257 27.543045 C 279.094789 27.543045 277.134249 25.480601 277.134249 22.936448 L 277.134249 287.063553 C 277.134249 284.519390 279.094789 282.456956 281.513257 282.456956 L 21.376511 282.456956 C 23.794970 282.456956 25.755519 284.519390 25.755519 287.063553 L 25.755519 22.936448 C 25.755519 25.480601 23.794970 27.543045 21.376511 27.543045 Z M 21.376511 1.950841 C 10.359086 1.950841 1.427699 11.346417 1.427699 22.936448 L 1.427699 287.063553 C 1.427699 298.653584 10.359086 308.049159 21.376511 308.049159 L 281.513257 308.049159 C 292.530683 308.049159 301.462070 298.653584 301.462070 287.063553 L 301.462070 22.936448 C 301.462070 11.346417 292.530683 1.950841 281.513257 1.950841 L 21.376511 1.950841 Z" transform="scale(1.000000,1.000000) translate(93.000000,95.000000)" opacity="1.000000"> fill="currentColor"</path>
        <path d="M 10.427682 19.715990 L 96.074762 19.715990 C 100.978740 19.715990 104.954202 15.533914 104.954202 10.375061 C 104.954202 5.216208 100.978740 1.034131 96.074762 1.034131 L 10.427682 1.034131 C 5.523702 1.034131 1.548241 5.216208 1.548241 10.375061 C 1.548241 15.533914 5.523702 19.715990 10.427682 19.715990 Z" transform="scale(1.000000,1.000000) translate(14.000000,335.000000)" opacity="1.000000"> fill="currentColor"</path>
        <path d="M 10.780623 19.791585 L 96.427705 19.791585 C 101.331682 19.791585 105.307144 15.609509 105.307144 10.450657 C 105.307144 5.291803 101.331682 1.109727 96.427705 1.109727 L 10.780623 1.109727 C 5.876643 1.109727 1.901182 5.291803 1.901182 10.450657 C 1.901182 15.609509 5.876643 19.791585 10.780623 19.791585 Z" transform="scale(1.000000,1.000000) translate(12.000000,140.000000)" opacity="1.000000"> fill="currentColor"</path>
        <path d="M 10.807589 20.244456 L 102.219379 20.244456 C 107.123356 20.244456 111.098818 16.062379 111.098818 10.903527 C 111.098818 5.744674 107.123356 1.562597 102.219379 1.562597 L 10.807589 1.562597 C 5.903610 1.562597 1.928148 5.744674 1.928148 10.903527 C 1.928148 16.062379 5.903610 20.244456 10.807589 20.244456 Z" transform="scale(1.000000,1.000000) translate(375.000000,230.000000)" opacity="1.000000"> fill="currentColor"</path>
        <path d="M 20.691086 32.826435 L 10.929634 32.826435 L 10.929634 15.083922 L 1.690020 15.083922 L 1.690020 60.330401 L 23.883510 60.330401 Q 28.641451 60.238312 31.204599 59.163938 Q 33.767748 58.089564 35.548139 56.002210 Q 37.021565 54.283212 37.881064 52.195857 Q 38.740563 50.108503 38.740563 47.437917 Q 38.740563 44.214796 37.113654 41.099112 Q 35.486746 37.983429 31.741786 36.694180 Q 34.872818 35.435628 36.177415 33.118051 Q 37.482011 30.800473 37.482011 26.042533 L 37.482011 23.003590 Q 37.482011 19.903255 37.727582 18.798185 Q 38.095939 17.048491 39.446580 16.219688 L 39.446580 15.083922 L 29.040504 15.083922 Q 28.610754 16.588045 28.426576 17.508937 Q 28.058219 19.412113 28.027523 21.407378 L 27.966130 25.612784 Q 27.904737 29.940975 26.385266 31.383705 Q 24.865795 32.826435 20.691086 32.826435 Z M 26.431311 41.053068 Q 29.255379 42.342316 29.255379 46.148669 Q 29.255379 50.261985 26.523400 51.674019 Q 24.988580 52.472125 21.918941 52.472125 L 10.929634 52.472125 L 10.929634 40.316354 L 21.642674 40.316354 Q 24.835098 40.316354 26.431311 41.053068 Z M 74.808822 24.906767 Q 74.471161 21.929217 71.708486 18.859578 Q 67.410992 13.978852 59.675501 13.978852 Q 53.290652 13.978852 48.409926 18.092168 Q 43.529200 22.205484 43.529200 31.475794 Q 43.529200 40.162872 47.934132 44.798027 Q 52.339064 49.433182 59.368537 49.433182 Q 63.543246 49.433182 66.889153 47.867666 Q 70.235059 46.302151 72.414503 42.925548 Q 74.379072 39.947998 74.962304 36.018860 Q 75.299964 33.716631 75.238571 29.388440 L 52.339064 29.388440 Q 52.523242 24.354232 55.500792 22.328270 Q 57.311879 21.069718 59.859680 21.069718 Q 62.560962 21.069718 64.249263 22.604537 Q 65.170155 23.433340 65.876172 24.906767 Z M 66.152440 35.159361 Q 65.937565 38.628053 64.049737 40.423792 Q 62.161909 42.219531 59.368537 42.219531 Q 56.329595 42.219531 54.656641 40.316354 Q 52.983688 38.413178 52.553939 35.159361 Z M 90.586766 9.220911 Q 91.998800 8.023752 95.344707 8.023752 Q 100.071951 8.023752 101.668163 11.185480 Q 102.711840 13.211442 102.711840 18.000079 L 102.711840 20.148826 Q 101.453288 18.000079 100.010558 16.925705 Q 97.401365 14.930440 93.226656 14.930440 Q 86.780414 14.930440 82.928017 19.458157 Q 79.075620 23.985875 79.075620 31.721365 Q 79.075620 39.180588 82.789883 44.260841 Q 86.504146 49.341093 93.318745 49.341093 Q 95.835849 49.341093 97.708329 48.573683 Q 100.900753 47.253739 102.865322 43.723654 L 102.865322 48.542987 L 111.368222 48.542987 L 111.368222 16.802920 Q 111.368222 10.325981 109.188779 7.041467 Q 105.443819 1.393332 94.822868 1.393332 Q 88.407322 1.393332 84.355399 3.910436 Q 80.303475 6.427540 79.873726 11.431051 L 89.389607 11.431051 Q 89.757964 9.896232 90.586766 9.220911 Z M 89.113339 26.502979 Q 90.893730 22.266877 95.498189 22.266877 Q 98.567828 22.266877 100.685879 24.584454 Q 102.803929 26.902032 102.803929 31.966936 Q 102.803929 36.724877 100.793316 39.211284 Q 98.782702 41.697692 95.406099 41.697692 Q 90.801641 41.697692 89.051947 37.369501 Q 88.131055 35.067272 88.131055 31.690669 Q 88.131055 28.774512 89.113339 26.502979 Z M 128.527504 48.542987 L 128.527504 15.083922 L 119.656248 15.083922 L 119.656248 48.542987 Z M 128.527504 60.606668 L 128.527504 52.533518 L 119.656248 52.533518 L 119.656248 60.606668 Z M 160.052697 47.008167 Q 163.981835 44.491063 164.565067 38.351785 L 155.816595 38.351785 Q 155.632417 40.040087 154.865007 41.022371 Q 153.422277 42.802762 149.953585 42.802762 Q 147.098821 42.802762 145.886313 41.912567 Q 144.673806 41.022371 144.673806 39.825212 Q 144.673806 38.321089 145.963054 37.645768 Q 147.252302 36.939752 155.079882 35.220754 Q 160.298268 33.992898 162.907461 31.506490 Q 165.485958 28.989386 165.485958 25.213730 Q 165.485958 20.240915 161.787043 17.094535 Q 158.088128 13.948155 150.352638 13.948155 Q 142.463666 13.948155 138.703358 17.278714 Q 134.943050 20.609272 134.943050 25.766265 L 143.814307 25.766265 Q 144.090574 23.433340 145.011466 22.451055 Q 146.638375 20.701361 151.027958 20.701361 Q 153.606455 20.701361 155.125927 21.468771 Q 156.645398 22.236181 156.645398 23.771000 Q 156.645398 25.244427 155.417542 26.011837 Q 154.189687 26.779246 146.300714 28.651726 Q 140.621882 30.063760 138.288957 32.181811 Q 135.956031 34.269166 135.956031 38.198304 Q 135.956031 42.833458 139.593553 46.164017 Q 143.231075 49.494575 149.830799 49.494575 Q 156.092863 49.494575 160.052697 47.008167 Z M 187.280395 21.315289 L 187.280395 14.776958 L 183.136383 14.623476 Q 176.935712 14.408601 174.664179 16.772223 Q 173.190752 18.276346 173.190752 21.407378 L 173.190752 42.004656 L 168.524901 42.004656 L 168.524901 48.236023 L 173.190752 48.236023 L 173.190752 57.567726 L 181.847134 57.567726 L 181.847134 48.236023 L 187.280395 48.236023 L 187.280395 42.004656 L 181.847134 42.004656 L 181.847134 24.323535 Q 181.847134 22.266877 182.368973 21.760387 Q 182.890811 21.253896 185.561397 21.253896 Q 185.960451 21.253896 186.405548 21.269244 Q 186.850646 21.284593 187.280395 21.315289 Z M 221.537567 24.906767 Q 221.199906 21.929217 218.437231 18.859578 Q 214.139737 13.978852 206.404246 13.978852 Q 200.019397 13.978852 195.138671 18.092168 Q 190.257945 22.205484 190.257945 31.475794 Q 190.257945 40.162872 194.662877 44.798027 Q 199.067809 49.433182 206.097282 49.433182 Q 210.271992 49.433182 213.617898 47.867666 Q 216.963805 46.302151 219.143248 42.925548 Q 221.107817 39.947998 221.691049 36.018860 Q 222.028709 33.716631 221.967316 29.388440 L 199.067809 29.388440 Q 199.251987 24.354232 202.229537 22.328270 Q 204.040624 21.069718 206.588425 21.069718 Q 209.289707 21.069718 210.978009 22.604537 Q 211.898900 23.433340 212.604917 24.906767 Z M 212.881185 35.159361 Q 212.666310 38.628053 210.778482 40.423792 Q 208.890654 42.219531 206.097282 42.219531 Q 203.058340 42.219531 201.385387 40.316354 Q 199.712433 38.413178 199.282684 35.159361 Z M 244.682645 40.469836 Q 239.402866 40.469836 237.591779 37.031841 Q 236.578798 35.097968 236.578798 31.076741 L 236.578798 15.083922 L 227.768934 15.083922 L 227.768934 48.542987 L 236.118352 48.542987 L 236.118352 42.710673 Q 238.144314 46.056579 239.648437 47.284435 Q 242.104148 49.341093 246.033286 49.341093 Q 246.278857 49.341093 246.447687 49.325745 Q 246.616518 49.310397 247.199749 49.279700 L 247.199749 40.316354 Q 246.370946 40.408444 245.726322 40.439140 Q 245.081698 40.469836 244.682645 40.469836 Z" transform="scale(1.000000,1.000000) translate(120.000000,219.000000)" opacity="1.000000"> fill="currentColor"</path>
    </g>
</svg>