<?xml version="1.0" encoding="UTF-8" standalone="yes"?>
<!DOCTYPE svg PUBLIC "-//W3C//DTD SVG 1.1//EN" "http://www.w3.org/Graphics/SVG/1.1/DTD/svg11.dtd">

<svg width="500" height="500" viewBox="0 0 500 500" xmlns="http://www.w3.org/2000/svg" xmlns:xlink="http://www.w3.org/1999/xlink" version="1.1" baseProfile="full">
    <g transform="scale(1,-1) translate(0,-500)">
        <path d="M 10.522754 20.505473 L 96.169834 20.505473 C 101.073812 20.505473 105.049273 16.185801 105.049273 10.857215 C 105.049273 5.528629 101.073812 1.208957 96.169834 1.208957 L 10.522754 1.208957 C 5.618774 1.208957 1.643312 5.528629 1.643312 10.857215 C 1.643312 16.185801 5.618774 20.505473 10.522754 20.505473 Z" transform="scale(1.000000,1.000000) translate(12.000000,155.000000)" opacity="1.000000"> fill="currentColor"</path>
        <path d="M 10.522752 20.824905 L 96.169834 20.824905 C 101.073812 20.824905 105.049273 16.505233 105.049273 11.176648 C 105.049273 5.848061 101.073812 1.528389 96.169834 1.528389 L 10.522752 1.528389 C 5.618772 1.528389 1.643311 5.848061 1.643311 11.176648 C 1.643311 16.505233 5.618772 20.824905 10.522752 20.824905 Z" transform="scale(1.000000,1.000000) translate(12.000000,78.000000)" opacity="1.000000"> fill="currentColor"</path>
        <path d="M 10.065460 21.208957 L 101.477249 21.208957 C 106.381227 21.208957 110.356689 16.889284 110.356689 11.560698 C 110.356689 6.232113 106.381227 1.912440 101.477249 1.912440 L 10.065460 1.912440 C 5.161481 1.912440 1.186019 6.232113 1.186019 11.560698 C 1.186019 16.889284 5.161481 21.208957 10.065460 21.208957 Z" transform="scale(1.000000,1.000000) translate(376.000000,135.000000)" opacity="1.000000"> fill="currentColor"</path>
        <path d="M 10.522754 20.297301 L 96.169834 20.297301 C 101.073812 20.297301 105.049273 15.977630 105.049273 10.649044 C 105.049273 5.320458 101.073812 1.000786 96.169834 1.000786 L 10.522754 1.000786 C 5.618774 1.000786 1.643312 5.320458 1.643312 10.649044 C 1.643312 15.977630 5.618774 20.297301 10.522754 20.297301 Z" transform="scale(1.000000,1.000000) translate(12.000000,403.000000)" opacity="1.000000"> fill="currentColor"</path>
        <path d="M 10.522754 20.327619 L 96.169834 20.327619 C 101.073812 20.327619 105.049273 16.007948 105.049273 10.679362 C 105.049273 5.350775 101.073812 1.031104 96.169834 1.031104 L 10.522754 1.031104 C 5.618774 1.031104 1.643312 5.350775 1.643312 10.679362 C 1.643312 16.007948 5.618774 20.327619 10.522754 20.327619 Z" transform="scale(1.000000,1.000000) translate(12.000000,323.000000)" opacity="1.000000"> fill="currentColor"</path>
        <path d="M 10.522754 20.586741 L 96.169834 20.586741 C 101.073812 20.586741 105.049273 16.267070 105.049273 10.938484 C 105.049273 5.609898 101.073812 1.290226 96.169834 1.290226 L 10.522754 1.290226 C 5.618774 1.290226 1.643312 5.609898 1.643312 10.938484 C 1.643312 16.267070 5.618774 20.586741 10.522754 20.586741 Z" transform="scale(1.000000,1.000000) translate(12.000000,244.000000)" opacity="1.000000"> fill="currentColor"</path>
        <path d="M 10.065460 20.327619 L 101.477249 20.327619 C 106.381227 20.327619 110.356689 16.007946 110.356689 10.679361 C 110.356689 5.350775 106.381227 1.031102 101.477249 1.031102 L 10.065460 1.031102 C 5.161481 1.031102 1.186019 5.350775 1.186019 10.679361 C 1.186019 16.007946 5.161481 20.327619 10.065460 20.327619 Z" transform="scale(1.000000,1.000000) translate(376.000000,323.000000)" opacity="1.000000"> fill="currentColor"</path>
        <path d="M 20.229937 98.276035 L 10.468485 98.276035 L 10.468485 79.949770 L 1.228872 79.949770 L 1.228872 126.684917 L 23.422362 126.684917 Q 28.180302 126.589798 30.743451 125.480076 Q 33.306599 124.370354 35.086990 122.214323 Q 36.560417 120.438767 37.419916 118.282736 Q 38.279415 116.126705 38.279415 113.368253 Q 38.279415 110.039088 36.652506 106.820894 Q 35.025597 103.602700 31.280638 102.271034 Q 34.411669 100.971074 35.716266 98.577245 Q 37.020863 96.183417 37.020863 91.268934 L 37.020863 88.130006 Q 37.020863 84.927665 37.266434 83.786237 Q 37.634790 81.978976 38.985432 81.122904 L 38.985432 79.949770 L 28.579355 79.949770 Q 28.149606 81.503381 27.965427 82.454571 Q 27.597071 84.420364 27.566374 86.481276 L 27.504982 90.825045 Q 27.443589 95.295639 25.924118 96.785837 Q 24.404646 98.276035 20.229937 98.276035 Z M 25.970162 106.773334 Q 28.794230 108.105001 28.794230 112.036587 Q 28.794230 116.285237 26.062251 117.743728 Q 24.527432 118.568093 21.457793 118.568093 L 10.468485 118.568093 L 10.468485 106.012382 L 21.181525 106.012382 Q 24.373950 106.012382 25.970162 106.773334 Z M 74.347673 90.095799 Q 74.010013 87.020284 71.247338 83.849650 Q 66.949843 78.808342 59.214353 78.808342 Q 52.829504 78.808342 47.948777 83.056991 Q 43.068051 87.305641 43.068051 96.880956 Q 43.068051 105.853851 47.472983 110.641508 Q 51.877915 115.429166 58.907389 115.429166 Q 63.082098 115.429166 66.428004 113.812142 Q 69.773911 112.195119 71.953355 108.707421 Q 73.917924 105.631906 74.501155 101.573495 Q 74.838815 99.195519 74.777423 94.724925 L 51.877915 94.724925 Q 52.062094 89.525085 55.039644 87.432466 Q 56.850731 86.132506 59.398531 86.132506 Q 62.099813 86.132506 63.788115 87.717823 Q 64.709007 88.573895 65.415023 90.095799 Z M 65.691291 100.685717 Q 65.476416 104.268533 63.588588 106.123354 Q 61.700760 107.978175 58.907389 107.978175 Q 55.868446 107.978175 54.195493 106.012382 Q 52.522540 104.046589 52.092790 100.685717 Z M 90.125618 73.893859 Q 91.537652 72.657311 94.883558 72.657311 Q 99.610802 72.657311 101.207014 75.923065 Q 102.250692 78.015683 102.250692 82.961872 L 102.250692 85.181316 Q 100.992140 82.961872 99.549409 81.852150 Q 96.940216 79.791238 92.765507 79.791238 Q 86.319265 79.791238 82.466868 84.467923 Q 78.614471 89.144609 78.614471 97.134607 Q 78.614471 104.839248 82.328734 110.086647 Q 86.042998 115.334047 92.857596 115.334047 Q 95.374700 115.334047 97.247180 114.541388 Q 100.439605 113.178015 102.404174 109.531786 L 102.404174 114.509682 L 110.907074 114.509682 L 110.907074 81.725325 Q 110.907074 75.035287 108.727630 71.642708 Q 104.982670 65.808742 94.361719 65.808742 Q 87.946174 65.808742 83.894250 68.408662 Q 79.842327 71.008582 79.412577 76.176715 L 88.928458 76.176715 Q 89.296815 74.591398 90.125618 73.893859 Z M 88.652191 91.744529 Q 90.432582 87.369054 95.037040 87.369054 Q 98.106679 87.369054 100.224730 89.762882 Q 102.342781 92.156711 102.342781 97.388257 Q 102.342781 102.302740 100.332167 104.870954 Q 98.321554 107.439168 94.944951 107.439168 Q 90.340492 107.439168 88.590798 102.968574 Q 87.669906 100.590598 87.669906 97.102900 Q 87.669906 94.090798 88.652191 91.744529 Z M 128.066356 114.509682 L 128.066356 79.949770 L 119.195099 79.949770 L 119.195099 114.509682 Z M 128.066356 126.970274 L 128.066356 118.631506 L 119.195099 118.631506 L 119.195099 126.970274 Z M 159.591549 112.924365 Q 163.520687 110.324445 164.103918 103.983176 L 155.355447 103.983176 Q 155.171268 105.727025 154.403859 106.741628 Q 152.961128 108.580596 149.492436 108.580596 Q 146.637672 108.580596 145.425165 107.661112 Q 144.212657 106.741628 144.212657 105.505081 Q 144.212657 103.951470 145.501906 103.253931 Q 146.791154 102.524685 154.618733 100.749130 Q 159.837120 99.480876 162.446313 96.912662 Q 165.024810 94.312742 165.024810 90.412862 Q 165.024810 85.276435 161.325895 82.026535 Q 157.626980 78.776635 149.891489 78.776635 Q 142.002517 78.776635 138.242209 82.216773 Q 134.481901 85.656911 134.481901 90.983577 L 143.353158 90.983577 Q 143.629426 88.573895 144.550317 87.559292 Q 146.177226 85.752030 150.566810 85.752030 Q 153.145307 85.752030 154.664778 86.544689 Q 156.184249 87.337347 156.184249 88.922664 Q 156.184249 90.444569 154.956394 91.237227 Q 153.728538 92.029886 145.839566 93.963973 Q 140.160734 95.422464 137.827808 97.610202 Q 135.494882 99.766233 135.494882 103.824645 Q 135.494882 108.612302 139.132405 112.052440 Q 142.769927 115.492578 149.369651 115.492578 Q 155.631714 115.492578 159.591549 112.924365 Z M 186.819247 86.386157 L 186.819247 79.632706 L 182.675234 79.474175 Q 176.474563 79.252230 174.203030 81.693619 Q 172.729604 83.247229 172.729604 86.481276 L 172.729604 107.756231 L 168.063752 107.756231 L 168.063752 114.192618 L 172.729604 114.192618 L 172.729604 123.831346 L 181.385986 123.831346 L 181.385986 114.192618 L 186.819247 114.192618 L 186.819247 107.756231 L 181.385986 107.756231 L 181.385986 89.493379 Q 181.385986 87.369054 181.907824 86.845899 Q 182.429663 86.322744 185.100249 86.322744 Q 185.499302 86.322744 185.944400 86.338598 Q 186.389497 86.354451 186.819247 86.386157 Z M 221.076418 90.095799 Q 220.738758 87.020284 217.976083 83.849650 Q 213.678588 78.808342 205.943098 78.808342 Q 199.558249 78.808342 194.677523 83.056991 Q 189.796797 87.305641 189.796797 96.880956 Q 189.796797 105.853851 194.201729 110.641508 Q 198.606661 115.429166 205.636134 115.429166 Q 209.810843 115.429166 213.156750 113.812142 Q 216.502656 112.195119 218.682100 108.707421 Q 220.646669 105.631906 221.229900 101.573495 Q 221.567560 99.195519 221.506168 94.724925 L 198.606661 94.724925 Q 198.790839 89.525085 201.768389 87.432466 Q 203.579476 86.132506 206.127276 86.132506 Q 208.828558 86.132506 210.516860 87.717823 Q 211.437752 88.573895 212.143769 90.095799 Z M 212.420036 100.685717 Q 212.205161 104.268533 210.317333 106.123354 Q 208.429505 107.978175 205.636134 107.978175 Q 202.597191 107.978175 200.924238 106.012382 Q 199.251285 104.046589 198.821535 100.685717 Z M 244.221496 106.170914 Q 238.941717 106.170914 237.130630 102.619804 Q 236.117649 100.622304 236.117649 96.468774 L 236.117649 79.949770 L 227.307785 79.949770 L 227.307785 114.509682 L 235.657204 114.509682 L 235.657204 108.485477 Q 237.683165 111.941468 239.187288 113.209722 Q 241.643000 115.334047 245.572138 115.334047 Q 245.817709 115.334047 245.986539 115.318193 Q 246.155369 115.302340 246.738600 115.270634 L 246.738600 106.012382 Q 245.909798 106.107501 245.265174 106.139208 Q 244.620549 106.170914 244.221496 106.170914 Z M 61.854242 2.482173 L 41.349054 2.482173 L 41.349054 49.217320 L 63.327669 49.217320 Q 71.646391 49.090494 75.115083 44.239424 Q 77.202437 41.259028 77.202437 37.105497 Q 77.202437 32.825141 75.115083 30.225221 Q 73.948620 28.766730 71.677087 27.561889 Q 75.145779 26.261929 76.910822 23.440064 Q 78.675864 20.618200 78.675864 16.591495 Q 78.675864 12.437964 76.649902 9.140504 Q 75.360654 6.952767 73.426781 5.462569 Q 71.247338 3.750426 68.285136 3.116300 Q 65.322934 2.482173 61.854242 2.482173 Z M 61.639368 23.059588 L 50.373792 23.059588 L 50.373792 10.598996 L 61.485886 10.598996 Q 64.463435 10.598996 66.121040 11.423361 Q 69.129287 12.945265 69.129287 17.257328 Q 69.129287 20.903557 66.213130 22.266930 Q 64.586221 23.027882 61.639368 23.059588 Z M 66.335915 31.969070 Q 68.177699 33.110498 68.177699 36.059188 Q 68.177699 39.324941 65.721987 40.371250 Q 63.603936 41.100496 60.319423 41.100496 L 50.373792 41.100496 L 50.373792 30.795935 L 61.485886 30.795935 Q 64.463435 30.795935 66.335915 31.969070 Z M 86.073694 49.217320 L 94.822165 49.217320 L 94.822165 2.482173 L 86.073694 2.482173 Z M 131.258780 32.666610 Q 135.494882 27.181413 135.494882 19.698716 Q 135.494882 12.089194 131.258780 6.683263 Q 127.022679 1.277332 118.396993 1.277332 Q 109.771307 1.277332 105.535205 6.683263 Q 101.299104 12.089194 101.299104 19.698716 Q 101.299104 27.181413 105.535205 32.666610 Q 109.771307 38.151807 118.396993 38.151807 Q 127.022679 38.151807 131.258780 32.666610 Z M 118.366297 30.510578 Q 114.529248 30.510578 112.457241 27.704567 Q 110.385235 24.898556 110.385235 19.698716 Q 110.385235 14.498876 112.457241 11.677012 Q 114.529248 8.855147 118.366297 8.855147 Q 122.203345 8.855147 124.260004 11.677012 Q 126.316662 14.498876 126.316662 19.698716 Q 126.316662 24.898556 124.260004 27.704567 Q 122.203345 30.510578 118.366297 30.510578 Z M 170.703642 24.644905 L 161.740296 24.644905 Q 161.494725 26.578992 160.481744 28.132603 Q 159.008317 30.225221 155.907982 30.225221 Q 151.487702 30.225221 149.860793 25.691215 Q 149.001294 23.281533 149.001294 19.286534 Q 149.001294 15.481773 149.860793 13.167210 Q 151.426309 8.855147 155.754500 8.855147 Q 158.824139 8.855147 160.113387 10.567290 Q 161.402636 12.279432 161.678903 15.006178 L 170.611553 15.006178 Q 170.304589 10.884353 167.726092 7.206418 Q 163.612776 1.277332 155.539625 1.277332 Q 147.466474 1.277332 143.660122 6.223521 Q 139.853770 11.169710 139.853770 19.064589 Q 139.853770 27.974071 144.059175 32.920260 Q 148.264581 37.866450 155.662411 37.866450 Q 161.955171 37.866450 165.961050 34.949466 Q 169.966929 32.032483 170.703642 24.644905 Z M 207.416525 2.482173 L 196.856966 2.482173 L 188.845208 17.257328 L 185.223034 13.357448 L 185.223034 2.482173 L 176.628045 2.482173 L 176.628045 49.058788 L 185.223034 49.058788 L 185.223034 23.883953 L 196.120253 36.883553 L 206.956079 36.883553 L 195.260754 23.662009 Z" transform="scale(1.000000,1.000000) translate(123.000000,193.000000)" opacity="1.000000"> fill="currentColor"</path>
        <path d="M 20.577423 24.568686 L 280.775626 24.568686 C 278.893164 24.568686 277.367126 23.042648 277.367126 21.160185 L 277.367126 420.148937 C 277.367126 418.266473 278.893164 416.740436 280.775626 416.740436 L 20.577423 416.740436 C 22.459886 416.740436 23.985924 418.266473 23.985924 420.148937 L 23.985924 21.160185 C 23.985924 23.042648 22.459886 24.568686 20.577423 24.568686 Z M 20.577423 1.751685 C 9.858404 1.751685 1.168922 10.441166 1.168922 21.160185 L 1.168922 420.148937 C 1.168922 430.867956 9.858404 439.557437 20.577423 439.557437 L 280.775626 439.557437 C 291.494645 439.557437 300.184127 430.867956 300.184127 420.148937 L 300.184127 21.160185 C 300.184127 10.441166 291.494645 1.751685 280.775626 1.751685 L 20.577423 1.751685 Z" transform="scale(1.000000,1.000000) translate(97.000000,34.000000)" opacity="1.000000"> fill="currentColor"</path>
    </g>
</svg>