<?xml version="1.0" encoding="UTF-8" standalone="yes"?>
<!DOCTYPE svg PUBLIC "-//W3C//DTD SVG 1.1//EN" "http://www.w3.org/Graphics/SVG/1.1/DTD/svg11.dtd">

<svg width="500" height="500" viewBox="0 0 500 500" xmlns="http://www.w3.org/2000/svg" xmlns:xlink="http://www.w3.org/1999/xlink" version="1.1" baseProfile="full">
    <g transform="scale(1,-1) translate(0,-500)">
        <path d="M 258.297841 188.999996 C 258.297841 280.803449 204.878665 354.090065 140.999995 354.090065 C 77.121340 354.090065 23.702159 280.803449 23.702159 188.999996 C 23.702159 97.196549 77.121340 23.909935 140.999995 23.909935 C 204.878665 23.909935 258.297841 97.196549 258.297841 188.999996 Z M 280.707776 188.999996 C 280.707776 86.073328 219.061620 1.500000 140.999995 1.500000 C 62.938377 1.500000 1.292224 86.073328 1.292224 188.999996 C 1.292224 291.926650 62.938377 376.500000 140.999995 376.500000 C 219.061620 376.500000 280.707776 291.926650 280.707776 188.999996 Z" transform="scale(1.000000,1.000000) translate(109.000000,61.000000)" opacity="1.000000"> fill="currentColor"</path>
        <path d="M 23.247127 183.000979 Q 27.088681 183.000979 29.485245 183.846823 Q 34.031669 185.468028 34.031669 189.873473 Q 34.031669 192.446266 31.776078 193.856010 Q 29.520490 195.230506 24.692116 196.287811 L 19.194115 197.521342 Q 11.088085 199.354008 7.986649 201.503865 Q 2.735352 205.098715 2.735352 212.746570 Q 2.735352 219.724809 7.810431 224.341715 Q 12.885509 228.958635 22.718475 228.958635 Q 30.930234 228.958635 36.727806 224.606041 Q 42.525379 220.253461 42.807325 211.971223 L 32.375219 211.971223 Q 32.093273 216.658611 28.286962 218.632256 Q 25.749422 219.936270 21.978358 219.936270 Q 17.784370 219.936270 15.282074 218.244582 Q 12.779778 216.552881 12.779778 213.521932 Q 12.779778 210.737692 15.246831 209.363195 Q 16.832793 208.446856 22.013601 207.213338 L 30.965475 205.063467 Q 36.851157 203.653723 39.846862 201.292404 Q 44.499020 197.627072 44.499020 190.684082 Q 44.499020 183.564879 39.053884 178.859860 Q 33.608747 174.154827 23.670051 174.154827 Q 13.519894 174.154827 7.704701 178.789364 Q 1.889506 183.423901 1.889506 191.529926 L 12.251124 191.529926 Q 12.744536 187.970324 14.189523 186.208141 Q 16.832793 183.000979 23.247127 183.000979 Z M 86.438901 198.049994 L 86.438901 175.494088 L 76.183018 175.494088 L 76.183018 198.860604 Q 76.183018 201.962035 75.125706 203.865184 Q 73.751210 206.543707 69.909652 206.543707 Q 65.927128 206.543707 63.865377 203.882815 Q 61.803627 201.221922 61.803627 196.287811 L 61.803627 175.494088 L 51.794446 175.494088 L 51.794446 227.266934 L 61.803627 227.266934 L 61.803627 208.905026 Q 63.988732 212.253166 66.861085 213.574797 Q 69.733439 214.896441 72.905360 214.896441 Q 76.464961 214.896441 79.372563 213.662910 Q 82.280158 212.429379 84.148072 209.891848 Q 85.734029 207.741990 86.086468 205.468772 Q 86.438901 203.195567 86.438901 198.049994 Z M 106.140077 213.909619 L 106.140077 175.494088 L 95.954677 175.494088 L 95.954677 213.909619 Z M 106.140077 227.760352 L 106.140077 218.491277 L 95.954677 218.491277 L 95.954677 227.760352 Z M 133.876797 227.760352 L 133.876797 219.583830 Q 133.030939 219.689561 131.039678 219.742426 Q 129.048416 219.795291 128.290686 218.861334 Q 127.532941 217.927391 127.532941 216.799590 L 127.532941 213.557180 L 134.123492 213.557180 L 134.123492 206.473211 L 127.532941 206.473211 L 127.532941 175.494088 L 117.523754 175.494088 L 117.523754 206.473211 L 111.920026 206.473211 L 111.920026 213.557180 L 117.418024 213.557180 L 117.418024 216.024229 Q 117.418024 222.191857 119.497399 224.517941 Q 121.682504 227.971812 130.035238 227.971812 Q 130.986813 227.971812 131.762174 227.918947 Q 132.537535 227.866082 133.876797 227.760352 Z M 157.490008 182.648539 L 157.490008 175.141649 L 152.732123 174.965436 Q 145.612906 174.718727 143.004879 177.432485 Q 141.313191 179.159420 141.313191 182.754270 L 141.313191 206.402729 L 135.956158 206.402729 L 135.956158 213.557180 L 141.313191 213.557180 L 141.313191 224.271232 L 151.251883 224.271232 L 151.251883 213.557180 L 157.490008 213.557180 L 157.490008 206.402729 L 151.251883 206.402729 L 151.251883 186.102410 Q 151.251883 183.741092 151.851031 183.159575 Q 152.450166 182.578057 155.516363 182.578057 Q 155.974533 182.578057 156.485555 182.595674 Q 156.996590 182.613291 157.490008 182.648539 Z M 18.418755 140.492612 L 29.273783 140.492612 L 29.273783 97.883097 L 55.001611 97.883097 L 55.001611 88.543540 L 18.418755 88.543540 Z M 94.580174 99.821493 Q 94.192493 96.402863 91.020573 92.878503 Q 86.086468 87.274774 77.205081 87.274774 Q 69.874411 87.274774 64.270682 91.997418 Q 58.666947 96.720055 58.666947 107.363625 Q 58.666947 117.337557 63.724406 122.659342 Q 68.781858 127.981128 76.852642 127.981128 Q 81.645775 127.981128 85.487327 126.183710 Q 89.328878 124.386278 91.831175 120.509485 Q 94.086763 117.090862 94.756394 112.579679 Q 95.144075 109.936411 95.073585 104.967058 L 68.781858 104.967058 Q 68.993319 99.187110 72.411949 96.861033 Q 74.491324 95.416048 77.416542 95.416048 Q 80.517981 95.416048 82.456377 97.178224 Q 83.513682 98.129799 84.324285 99.821493 Z M 84.641483 111.592857 Q 84.394774 115.575387 82.227292 117.637132 Q 80.059811 119.698889 76.852642 119.698889 Q 73.363530 119.698889 71.442750 117.513784 Q 69.521978 115.328678 69.028567 111.592857 Z M 119.849838 140.809803 L 119.849838 132.633282 Q 119.003994 132.739012 117.012733 132.791878 Q 115.021464 132.844743 114.263727 131.910786 Q 113.505989 130.976842 113.505989 129.849042 L 113.505989 126.606631 L 120.096547 126.606631 L 120.096547 119.522663 L 113.505989 119.522663 L 113.505989 88.543540 L 103.496809 88.543540 L 103.496809 119.522663 L 97.893074 119.522663 L 97.893074 126.606631 L 103.391078 126.606631 L 103.391078 129.073680 Q 103.391078 135.241309 105.470447 137.567393 Q 107.655552 141.021264 116.008279 141.021264 Q 116.959867 141.021264 117.735215 140.968399 Q 118.510576 140.915534 119.849838 140.809803 Z M 143.463049 95.697991 L 143.463049 88.191107 L 138.705164 88.014888 Q 131.585961 87.768185 128.977934 90.481943 Q 127.286232 92.208879 127.286232 95.803722 L 127.286232 119.452180 L 121.929213 119.452180 L 121.929213 126.606631 L 127.286232 126.606631 L 127.286232 137.320684 L 137.224937 137.320684 L 137.224937 126.606631 L 143.463049 126.606631 L 143.463049 119.452180 L 137.224937 119.452180 L 137.224937 99.151869 Q 137.224937 96.790544 137.824072 96.209026 Q 138.423221 95.627509 141.489404 95.627509 Q 141.947574 95.627509 142.458609 95.645126 Q 142.969644 95.662750 143.463049 95.697991 Z M 84.095206 42.299352 Q 82.297782 44.449213 78.949641 44.449213 Q 74.367969 44.449213 72.711523 41.030583 Q 71.759942 39.056942 71.583729 34.757223 L 61.821251 34.757223 Q 62.067953 41.277288 64.182569 45.295060 Q 68.200340 52.942919 78.456230 52.942919 Q 86.562255 52.942919 91.355388 48.449360 Q 96.148514 43.955801 96.148514 36.554645 Q 96.148514 30.880427 92.765132 26.474977 Q 90.544785 23.549758 85.469703 19.954910 L 81.451931 17.100177 Q 77.680869 14.421664 76.288748 13.223382 Q 74.896628 12.025099 73.945047 10.439137 L 96.254244 10.439137 L 96.254244 1.592994 L 61.257350 1.592994 Q 61.398329 7.090995 63.618675 11.637419 Q 65.768533 16.747743 73.768828 22.457205 Q 80.711818 27.426553 82.755945 29.576413 Q 85.892631 32.924554 85.892631 36.907081 Q 85.892631 40.149491 84.095206 42.299352 Z" transform="scale(1.000000,1.000000) translate(165.000000,137.000000)" opacity="1.000000"> fill="currentColor"</path>
        <path d="M 1.388511 16.838368 L 75.292224 16.838368 L 75.292224 1.161632 L 1.388511 1.161632 L 1.388511 16.838368 Z" transform="scale(1.000000,1.000000) translate(35.000000,241.000000)" opacity="1.000000"> fill="currentColor"</path>
        <path d="M 1.440886 16.838368 L 75.344599 16.838368 L 75.344599 1.161632 L 1.440886 1.161632 L 1.440886 16.838368 Z" transform="scale(1.000000,1.000000) translate(376.000000,241.000000)" opacity="1.000000"> fill="currentColor"</path>
    </g>
</svg>