<?xml version="1.0" encoding="UTF-8" standalone="yes"?>
<!DOCTYPE svg PUBLIC "-//W3C//DTD SVG 1.1//EN" "http://www.w3.org/Graphics/SVG/1.1/DTD/svg11.dtd">

<svg width="500" height="500" viewBox="0 0 500 500" xmlns="http://www.w3.org/2000/svg" xmlns:xlink="http://www.w3.org/1999/xlink" version="1.1" baseProfile="full">
    <g transform="scale(1,-1) translate(0,-500)">
        <path d="M 182.847973 210.999996 C 182.847973 262.155083 173.552117 309.936492 157.495996 344.843606 C 142.459146 377.534754 123.280438 395.170605 104.885980 395.170605 C 86.491522 395.170605 67.312814 377.534754 52.275964 344.843606 C 36.219843 309.936492 26.923987 262.155083 26.923987 210.999996 C 26.923987 159.844909 36.219843 112.063500 52.275964 77.156386 C 67.312814 44.465238 86.491522 26.829388 104.885980 26.829388 C 123.280438 26.829388 142.459146 44.465238 157.495996 77.156386 C 173.552117 112.063500 182.847973 159.844909 182.847973 210.999996 Z M 207.847973 210.999996 C 207.847973 96.286549 164.400794 1.829388 104.885980 1.829388 C 45.371166 1.829388 1.923987 96.286549 1.923987 210.999996 C 1.923987 325.713443 45.371166 420.170605 104.885980 420.170605 C 164.400794 420.170605 207.847973 325.713443 207.847973 210.999996 Z" transform="scale(1.000000,1.000000) translate(154.000000,39.000000)" opacity="1.000000"> fill="currentColor"</path>
        <path d="M 21.951035 94.700543 Q 25.712436 94.700543 28.058998 95.528741 Q 32.510565 97.116121 32.510565 101.429655 Q 32.510565 103.948759 30.302036 105.329089 Q 28.093507 106.674912 23.365874 107.710160 L 17.982584 108.917949 Q 10.045682 110.712380 7.008954 112.817384 Q 1.867222 116.337227 1.867222 123.825522 Q 1.867222 130.658159 6.836413 135.178742 Q 11.805604 139.699326 21.433411 139.699326 Q 29.473837 139.699326 35.150448 135.437554 Q 40.827058 131.175783 41.103124 123.066340 L 30.888676 123.066340 Q 30.612610 127.655940 26.885717 129.588403 Q 24.401122 130.865209 20.708737 130.865209 Q 16.602253 130.865209 14.152166 129.208812 Q 11.702079 127.552415 11.702079 124.584704 Q 11.702079 121.858550 14.117658 120.512728 Q 15.670530 119.615513 20.743245 118.407724 L 29.508346 116.302719 Q 35.271227 114.922388 38.204430 112.610334 Q 42.759521 109.021474 42.759521 102.223345 Q 42.759521 95.252675 37.427993 90.645821 Q 32.096466 86.038967 22.365134 86.038967 Q 12.426752 86.038967 6.732888 90.576804 Q 1.039024 95.114642 1.039024 103.051544 L 11.184455 103.051544 Q 11.667570 99.566209 13.082410 97.840795 Q 15.670530 94.700543 21.951035 94.700543 Z M 59.944639 124.964295 L 59.944639 87.350281 L 49.971749 87.350281 L 49.971749 124.964295 Z M 59.944639 138.526045 L 59.944639 129.450370 L 49.971749 129.450370 L 49.971749 138.526045 Z M 80.097468 80.759202 Q 81.684849 79.413379 85.446250 79.413379 Q 90.760524 79.413379 92.554954 82.967731 Q 93.728235 85.245277 93.728235 90.628567 L 93.728235 93.044146 Q 92.313396 90.628567 90.691507 89.420777 Q 87.758304 87.177740 83.065180 87.177740 Q 75.818443 87.177740 71.487655 92.267710 Q 67.156867 97.357679 67.156867 106.053763 Q 67.156867 114.439273 71.332368 120.150391 Q 75.507869 125.861510 83.168704 125.861510 Q 85.998382 125.861510 88.103387 124.998803 Q 91.692247 123.514947 93.900776 119.546496 L 93.900776 124.964295 L 103.459567 124.964295 L 103.459567 89.282744 Q 103.459567 82.001499 101.009480 78.309115 Q 96.799471 71.959593 84.859610 71.959593 Q 77.647381 71.959593 73.092290 74.789271 Q 68.537198 77.618949 68.054082 83.243797 L 78.751646 83.243797 Q 79.165745 81.518384 80.097468 80.759202 Z M 78.441072 100.187357 Q 80.442551 95.425216 85.618792 95.425216 Q 89.069618 95.425216 91.450689 98.030591 Q 93.831760 100.635965 93.831760 106.329829 Q 93.831760 111.678611 91.571468 114.473781 Q 89.311176 117.268951 85.515267 117.268951 Q 80.339026 117.268951 78.372055 112.403285 Q 77.336807 109.815164 77.336807 106.019255 Q 77.336807 102.740969 78.441072 100.187357 Z M 130.341509 117.683050 Q 125.337809 117.683050 123.474363 113.438533 Q 122.508131 111.195495 122.508131 107.710160 L 122.508131 87.350281 L 112.707783 87.350281 L 112.707783 124.895278 L 122.197557 124.895278 L 122.197557 119.408463 Q 124.095512 122.307158 125.786417 123.583964 Q 128.823145 125.861510 133.481761 125.861510 Q 139.313659 125.861510 143.023297 122.807528 Q 146.732936 119.753546 146.732936 112.679351 L 146.732936 87.350281 L 136.656522 87.350281 L 136.656522 110.229264 Q 136.656522 113.196975 135.862832 114.784355 Q 134.413484 117.683050 130.341509 117.683050 Z M 50.558390 13.392927 Q 50.178799 10.045625 47.073055 6.594798 Q 42.241897 1.107984 33.545813 1.107984 Q 26.368093 1.107984 20.881278 5.732092 Q 15.394464 10.356200 15.394464 20.777697 Q 15.394464 30.543537 20.346400 35.754286 Q 25.298337 40.965035 33.200730 40.965035 Q 37.893855 40.965035 41.655256 39.205113 Q 45.416658 37.445191 47.866745 33.649281 Q 50.075274 30.301979 50.730931 25.884921 Q 51.110522 23.296801 51.041506 18.431135 L 25.298337 18.431135 Q 25.505386 12.771779 28.852689 10.494233 Q 30.888676 9.079394 33.752863 9.079394 Q 36.789590 9.079394 38.687545 10.804807 Q 39.722793 11.736530 40.516484 13.392927 Z M 40.827058 24.918689 Q 40.585500 28.818124 38.463242 30.836857 Q 36.340983 32.855591 33.200730 32.855591 Q 29.784412 32.855591 27.903711 30.716079 Q 26.023010 28.576566 25.539895 24.918689 Z M 91.174623 2.350281 L 78.924187 2.350281 L 72.436633 13.634485 L 65.914570 2.350281 L 53.974709 2.350281 L 66.811785 21.398846 L 54.526841 39.895278 L 66.570227 39.895278 L 72.850732 28.990665 L 78.993204 39.895278 L 90.691507 39.895278 L 78.337547 21.571387 Z M 114.191638 9.355460 L 114.191638 2.005199 L 109.533022 1.832657 Q 102.562352 1.591099 100.008740 4.248236 Q 98.352343 5.939141 98.352343 9.458985 L 98.352343 32.614033 L 93.107086 32.614033 L 93.107086 39.619212 L 98.352343 39.619212 L 98.352343 50.109726 L 108.083675 50.109726 L 108.083675 39.619212 L 114.191638 39.619212 L 114.191638 32.614033 L 108.083675 32.614033 L 108.083675 12.737270 Q 108.083675 10.425216 108.670315 9.855830 Q 109.256956 9.286443 112.259175 9.286443 Q 112.707783 9.286443 113.208153 9.303697 Q 113.708523 9.320952 114.191638 9.355460 Z M 120.334110 12.633745 L 130.790116 12.633745 L 130.790116 2.350281 L 120.334110 2.350281 Z" transform="scale(1.000000,1.000000) translate(185.000000,156.000000)" opacity="1.000000"> fill="currentColor"</path>
        <path d="M 114.564194 1.107584 L 9.625002 1.107584 C 5.266141 1.107584 1.732586 4.641139 1.732586 9.000000 C 1.732586 13.358861 5.266141 16.892416 9.625002 16.892416 L 114.564194 16.892416 C 118.923055 16.892416 122.456610 13.358861 122.456610 9.000000 C 122.456610 4.641139 118.923055 1.107584 114.564194 1.107584 Z" transform="scale(1.000000,1.000000) translate(53.000000,241.000000)" opacity="1.000000"> fill="currentColor"</path>
        <path d="M 9.525135 16.892412 L 100.923786 16.892412 C 105.282647 16.892412 108.816202 13.358857 108.816202 8.999996 C 108.816202 4.641135 105.282647 1.107581 100.923786 1.107581 L 9.525135 1.107581 C 5.166274 1.107581 1.632719 4.641135 1.632719 8.999996 C 1.632719 13.358857 5.166274 16.892412 9.525135 16.892412 Z" transform="scale(1.000000,1.000000) translate(347.000000,241.000000)" opacity="1.000000"> fill="currentColor"</path>
        <path d="M 17.092623 104.041486 L 45.866273 11.450274 C 47.159812 7.287772 44.834058 2.864777 40.671556 1.571238 C 36.509054 0.277698 32.086059 2.603452 30.792520 6.765954 L 2.018870 99.357166 C 0.725331 103.519668 3.051084 107.942663 7.213586 109.236202 C 11.376088 110.529742 15.799084 108.203988 17.092623 104.041486 Z" transform="scale(1.000000,1.000000) translate(103.000000,194.000000)" opacity="1.000000"> fill="currentColor"</path>
        <path d="M 16.707245 102.702796 L 43.788327 11.804152 C 45.032886 7.626743 42.655342 3.231370 38.477934 1.986811 C 34.300526 0.742252 29.905153 3.119796 28.660594 7.297204 L 1.579512 98.195848 C 0.334953 102.373257 2.712497 106.768630 6.889905 108.013189 C 11.067313 109.257748 15.462686 106.880204 16.707245 102.702796 Z" transform="scale(1.000000,1.000000) translate(366.000000,195.000000)" opacity="1.000000"> fill="currentColor"</path>
        <path d="M 24.162152 2.956318 L 13.615278 2.956318 L 13.615278 39.075749 L 1.298552 39.075749 L 1.298552 46.082919 Q 6.174675 46.299636 8.125125 46.733069 Q 11.231396 47.419338 13.181845 49.478146 Q 14.518264 50.886803 15.204533 53.234566 Q 15.601847 54.643224 15.601847 55.329493 L 24.162152 55.329493 Z M 59.920389 36.944703 Q 66.891439 36.944703 71.352189 32.213057 Q 75.812939 27.481412 75.812939 20.113048 Q 75.812939 12.780803 71.442488 7.182292 Q 67.072037 1.583780 57.861582 1.583780 Q 47.964857 1.583780 43.269331 9.855130 Q 39.621269 16.320508 39.621269 26.542307 Q 39.621269 32.538132 40.126941 36.294553 Q 41.029927 42.976648 43.630526 47.419338 Q 45.869930 51.211878 49.499933 53.523522 Q 53.129936 55.835166 58.186656 55.835166 Q 65.482782 55.835166 69.817113 52.096804 Q 74.151445 48.358443 74.693237 42.145901 L 64.435318 42.145901 Q 64.435318 43.410081 63.460093 44.927097 Q 61.798600 47.383219 58.439492 47.383219 Q 53.418892 47.383219 51.287845 41.748587 Q 50.132023 38.642316 49.698590 32.574252 Q 51.612920 34.849776 54.141280 35.897239 Q 56.669640 36.944703 59.920389 36.944703 Z M 52.985458 27.120218 Q 49.951426 24.772455 49.951426 19.535137 Q 49.951426 15.309164 52.226950 12.636326 Q 54.502474 9.963488 58.006059 9.963488 Q 61.437405 9.963488 63.405914 12.546027 Q 65.374423 15.128567 65.374423 19.246182 Q 65.374423 23.833349 63.135019 26.271411 Q 60.895614 28.709473 57.644865 28.709473 Q 55.008147 28.709473 52.985458 27.120218 Z" transform="scale(1.000000,1.000000) translate(74.000000,333.000000)" opacity="1.000000"> fill="currentColor"</path>
        <path d="M 14.056341 44.749858 Q 12.322608 42.438214 12.394847 38.573435 L 2.787078 38.573435 Q 2.931556 42.474334 4.123497 45.977918 Q 5.387677 49.048070 8.096635 51.648669 Q 10.119323 53.490760 12.900519 54.465985 Q 15.681715 55.441209 19.727092 55.441209 Q 27.239933 55.441209 31.845161 51.558371 Q 36.450388 47.675532 36.450388 41.137915 Q 36.450388 36.514628 33.705312 33.336118 Q 31.971579 31.349549 30.093368 30.627160 Q 31.502026 30.627160 34.138745 28.207158 Q 38.075763 24.559096 38.075763 18.238195 Q 38.075763 11.592220 33.470535 6.553559 Q 28.865308 1.514899 19.835450 1.514899 Q 8.710665 1.514899 4.376333 8.774904 Q 2.100809 12.639683 1.847973 18.888345 L 11.961414 18.888345 Q 11.961414 15.745955 12.972758 13.687147 Q 14.850968 9.894607 19.799331 9.894607 Q 22.833363 9.894607 25.090827 11.971474 Q 27.348292 14.048341 27.348292 17.949240 Q 27.348292 23.114319 23.158438 24.848051 Q 20.774555 25.823276 15.645596 25.823276 L 15.645596 33.191640 Q 20.666197 33.263879 22.652766 34.166864 Q 26.084112 35.683881 26.084112 40.307168 Q 26.084112 43.305081 24.332319 45.183291 Q 22.580527 47.061501 19.402017 47.061501 Q 15.753954 47.061501 14.056341 44.749858 Z M 66.754591 44.533141 Q 64.912500 46.736427 61.481154 46.736427 Q 56.785628 46.736427 55.088015 43.232842 Q 54.112790 41.210154 53.932193 36.803583 L 43.927111 36.803583 Q 44.179947 43.485678 46.347112 47.603293 Q 50.464728 55.441209 60.975482 55.441209 Q 69.282951 55.441209 74.195194 50.835982 Q 79.107437 46.230755 79.107437 38.645674 Q 79.107437 32.830446 75.639971 28.315517 Q 73.364447 25.317604 68.163249 21.633422 L 64.045634 18.707748 Q 60.180855 15.962671 58.754137 14.734610 Q 57.327420 13.506550 56.352195 11.881175 L 79.215795 11.881175 L 79.215795 2.815198 L 43.349200 2.815198 Q 43.493677 8.449829 45.769202 13.109236 Q 47.972487 18.346554 56.171598 24.197901 Q 63.287126 29.290741 65.382053 31.494027 Q 68.596682 34.925373 68.596682 39.006868 Q 68.596682 42.329856 66.754591 44.533141 Z" transform="scale(1.000000,1.000000) translate(360.000000,329.000000)" opacity="1.000000"> fill="currentColor"</path>
    </g>
</svg>