<?xml version="1.0" encoding="UTF-8" standalone="yes"?>
<!DOCTYPE svg PUBLIC "-//W3C//DTD SVG 1.1//EN" "http://www.w3.org/Graphics/SVG/1.1/DTD/svg11.dtd">

<svg width="500" height="500" viewBox="0 0 500 500" xmlns="http://www.w3.org/2000/svg" xmlns:xlink="http://www.w3.org/1999/xlink" version="1.1" baseProfile="full">
    <g transform="scale(1,-1) translate(0,-500)">
        <path d="M 163.189377 352.795319 L 15.477685 352.795349 C 17.193070 352.795349 18.583653 354.705658 18.583653 357.062195 L 18.583624 20.937859 C 18.583624 23.294380 17.193041 25.204700 15.477659 25.204700 L 163.189362 25.204676 C 161.473984 25.204676 160.083375 23.294355 160.083375 20.937836 L 160.083420 357.062134 C 160.083420 354.705627 161.474000 352.795319 163.189377 352.795319 Z M 163.189377 376.499969 C 171.003876 376.499969 177.338776 367.797363 177.338776 357.062134 L 177.338746 20.937834 C 177.338746 10.202611 171.003846 1.499999 163.189362 1.500000 L 15.477656 1.500024 C 7.663160 1.500025 1.328264 10.202640 1.328264 20.937860 L 1.328293 357.062195 C 1.328295 367.797394 7.663195 376.500000 15.477688 376.500000 L 163.189377 376.499969 Z" transform="scale(1.000000,1.000000) translate(162.000000,61.000000)" opacity="1.000000"> fill="currentColor"</path>
        <path d="M 73.085271 1.204676 L 8.008102 1.204684 C 4.242213 1.204684 1.189361 5.398567 1.189362 10.571986 C 1.189362 15.745400 4.242215 19.939286 8.008104 19.939286 L 73.085271 19.939278 C 76.851163 19.939278 79.904012 15.745394 79.904012 10.571977 C 79.904012 5.398558 76.851156 1.204676 73.085271 1.204676 Z" transform="scale(1.000000,1.000000) translate(324.000000,85.000000)" opacity="1.000000"> fill="currentColor"</path>
        <path d="M 73.085274 1.831822 L 8.008104 1.831829 C 4.242215 1.831829 1.189358 6.025713 1.189358 11.199130 C 1.189358 16.372547 4.242216 20.566431 8.008106 20.566429 L 73.085274 20.566422 C 76.851166 20.566422 79.904023 16.372540 79.904015 11.199121 C 79.904015 6.025702 76.851166 1.831821 73.085274 1.831822 Z" transform="scale(1.000000,1.000000) translate(324.000000,193.000000)" opacity="1.000000"> fill="currentColor"</path>
        <path d="M 73.085297 1.419513 L 8.008126 1.419519 C 4.242237 1.419518 1.189379 5.613404 1.189379 10.786821 C 1.189381 15.960238 4.242239 20.154119 8.008128 20.154121 L 73.085297 20.154114 C 76.851189 20.154114 79.904046 15.960230 79.904046 10.786812 C 79.904046 5.613397 76.851189 1.419513 73.085297 1.419513 Z" transform="scale(1.000000,1.000000) translate(324.000000,286.000000)" opacity="1.000000"> fill="currentColor"</path>
        <path d="M 73.085303 1.048089 L 8.008133 1.047923 C 4.242250 1.047912 1.189387 5.241788 1.189377 10.415204 C 1.189372 15.588623 4.242219 19.782512 8.008109 19.782524 L 73.085280 19.782692 C 76.851172 19.782703 79.904036 15.588825 79.904043 10.415409 C 79.904051 5.241992 76.851195 1.048100 73.085303 1.048089 Z" transform="scale(1.000000,1.000000) translate(324.000000,388.000000)" opacity="1.000000"> fill="currentColor"</path>
        <path d="M 75.088173 1.770136 L 7.914701 1.770148 C 4.148811 1.770148 1.095953 5.964031 1.095954 11.137449 C 1.095954 16.310867 4.148812 20.504747 7.914702 20.504747 L 75.088173 20.504738 C 78.854065 20.504738 81.906922 16.310852 81.906922 11.137435 C 81.906922 5.964018 78.854058 1.770136 75.088173 1.770136 Z" transform="scale(1.000000,1.000000) translate(95.000000,241.000000)" opacity="1.000000"> fill="currentColor"</path>
    </g>
</svg>