<?xml version="1.0" encoding="UTF-8" standalone="yes"?>
<!DOCTYPE svg PUBLIC "-//W3C//DTD SVG 1.1//EN" "http://www.w3.org/Graphics/SVG/1.1/DTD/svg11.dtd">

<svg width="500" height="500" viewBox="0 0 500 500" xmlns="http://www.w3.org/2000/svg" xmlns:xlink="http://www.w3.org/1999/xlink" version="1.1" baseProfile="full">
    <g transform="scale(1,-1) translate(0,-500)">
        <path d="M 198.841160 412.473086 L 18.731425 412.473126 C 20.823049 412.473126 22.518632 414.707607 22.518632 417.463979 L 22.518596 24.304648 C 22.518596 27.061033 20.823016 29.295506 18.731391 29.295506 L 198.841129 29.295478 C 196.749515 29.295478 195.053913 27.061006 195.053913 24.304621 L 195.053959 417.463939 C 195.053959 414.707566 196.749546 412.473086 198.841160 412.473086 Z M 198.841160 440.200050 C 208.369632 440.200050 216.093982 430.020760 216.093982 417.463939 L 216.093951 24.304618 C 216.093951 11.747799 208.369586 1.568490 198.841129 1.568491 L 18.731389 1.568519 C 9.202918 1.568520 1.478569 11.747833 1.478570 24.304651 L 1.478605 417.463979 C 1.478606 430.020800 9.202958 440.200090 18.731429 440.200090 L 198.841160 440.200050 Z" transform="scale(1.000000,1.000000) translate(143.000000,27.000000)" opacity="1.000000"> fill="currentColor"</path>
        <path d="M 89.185646 1.446156 L 9.834913 1.446164 C 5.243040 1.446164 1.520597 6.351684 1.520597 12.402948 C 1.520598 18.454214 5.243042 23.359733 9.834915 23.359733 L 89.185654 23.359725 C 93.777519 23.359725 97.499969 18.454202 97.499969 12.402939 C 97.499969 6.351674 93.777519 1.446154 89.185646 1.446156 Z" transform="scale(1.000000,1.000000) translate(340.000000,62.000000)" opacity="1.000000"> fill="currentColor"</path>
        <path d="M 89.185654 1.467722 L 9.834918 1.467730 C 5.243044 1.467732 1.520595 6.373250 1.520595 12.424515 C 1.520596 18.475781 5.243046 23.381298 9.834919 23.381298 L 89.185654 23.381291 C 93.777527 23.381288 97.499977 18.475771 97.499977 12.424505 C 97.499977 6.373239 93.777527 1.467721 89.185654 1.467722 Z" transform="scale(1.000000,1.000000) translate(340.000000,110.000000)" opacity="1.000000"> fill="currentColor"</path>
        <path d="M 89.185662 1.116748 L 9.834922 1.116753 C 5.243049 1.116755 1.520600 6.022276 1.520600 12.073540 C 1.520601 18.124804 5.243051 23.030325 9.834924 23.030322 L 89.185662 23.030314 C 93.777535 23.030314 97.499977 18.124794 97.499977 12.073530 C 97.499977 6.022264 93.777527 1.116747 89.185662 1.116748 Z" transform="scale(1.000000,1.000000) translate(340.000000,164.000000)" opacity="1.000000"> fill="currentColor"</path>
        <path d="M 89.185669 1.063992 L 9.834930 1.064000 C 5.243058 1.064002 1.520608 5.969520 1.520609 12.020787 C 1.520609 18.072051 5.243060 22.977569 9.834932 22.977571 L 89.185669 22.977561 C 93.777542 22.977561 97.499985 18.072041 97.499985 12.020774 C 97.499985 5.969511 93.777542 1.063991 89.185669 1.063992 Z" transform="scale(1.000000,1.000000) translate(340.000000,259.000000)" opacity="1.000000"> fill="currentColor"</path>
        <path d="M 89.185669 1.081439 L 9.834935 1.081446 C 5.243062 1.081448 1.520612 5.986969 1.520613 12.038232 C 1.520613 18.089497 5.243064 22.995017 9.834937 22.995015 L 89.185669 22.995007 C 93.777542 22.995007 97.499992 18.089487 97.499992 12.038222 C 97.499992 5.986958 93.777542 1.081439 89.185669 1.081439 Z" transform="scale(1.000000,1.000000) translate(340.000000,307.000000)" opacity="1.000000"> fill="currentColor"</path>
        <path d="M 89.185692 1.690490 L 9.834953 1.690294 C 5.243086 1.690283 1.520630 6.595794 1.520618 12.647057 C 1.520612 18.698322 5.243050 23.603850 9.834922 23.603863 L 89.185662 23.604059 C 93.777535 23.604071 97.499985 18.698561 97.500000 12.647295 C 97.500008 6.596030 93.777565 1.690502 89.185692 1.690490 Z" transform="scale(1.000000,1.000000) translate(340.000000,361.000000)" opacity="1.000000"> fill="currentColor"</path>
        <path d="M 89.185700 1.422143 L 9.834957 1.421945 C 5.243091 1.421936 1.520635 6.327445 1.520623 12.378710 C 1.520617 18.429975 5.243054 23.335503 9.834927 23.335516 L 89.185669 23.335712 C 93.777535 23.335722 97.499992 18.430214 97.500000 12.378948 C 97.500008 6.327685 93.777573 1.422155 89.185700 1.422143 Z" transform="scale(1.000000,1.000000) translate(340.000000,414.000000)" opacity="1.000000"> fill="currentColor"</path>
        <path d="M 89.185677 1.063040 L 9.834939 1.062841 C 5.243073 1.062832 1.520617 5.968343 1.520605 12.019606 C 1.520599 18.070870 5.243036 22.976398 9.834909 22.976410 L 89.185646 22.976609 C 93.777519 22.976619 97.499977 18.071110 97.499985 12.019845 C 97.499992 5.968578 93.777550 1.063050 89.185677 1.063040 Z" transform="scale(1.000000,1.000000) translate(340.000000,214.000000)" opacity="1.000000"> fill="currentColor"</path>
        <path d="M 91.721156 1.427634 L 9.814322 1.427647 C 5.222449 1.427647 1.499999 6.333167 1.500000 12.384433 C 1.500000 18.435698 5.222451 23.341215 9.814324 23.341215 L 91.721156 23.341202 C 96.313029 23.341202 100.035472 18.435682 100.035472 12.384418 C 100.035472 6.333151 96.313022 1.427634 91.721156 1.427634 Z" transform="scale(1.000000,1.000000) translate(61.000000,238.000000)" opacity="1.000000"> fill="currentColor"</path>
    </g>
</svg>