<?xml version="1.0" encoding="UTF-8" standalone="yes"?>
<!DOCTYPE svg PUBLIC "-//W3C//DTD SVG 1.1//EN" "http://www.w3.org/Graphics/SVG/1.1/DTD/svg11.dtd">

<svg width="500" height="500" viewBox="0 0 500 500" xmlns="http://www.w3.org/2000/svg" xmlns:xlink="http://www.w3.org/1999/xlink" version="1.1" baseProfile="full">
    <g transform="scale(1,-1) translate(0,-500)">
        <path d="M 36.769287 1.168613 L 5.277778 1.168613 C 3.008349 1.168613 1.168613 3.008349 1.168613 5.277778 C 1.168613 7.547207 3.008349 9.386943 5.277778 9.386943 L 36.769287 9.386943 C 39.038716 9.386943 40.878452 7.547207 40.878452 5.277778 C 40.878452 3.008349 39.038716 1.168613 36.769287 1.168613 Z" transform="scale(3.600000,3.600000) translate(11.388889,39.166668)" opacity="1.000000"> fill="currentColor"</path>
        <path d="M 19.430092 1.252609 L 5.112497 1.252609 C 2.843068 1.252609 1.003332 3.092345 1.003332 5.361774 C 1.003332 7.631204 2.843068 9.470940 5.112497 9.470940 L 19.430092 9.470940 C 21.699521 9.470940 23.539257 7.631204 23.539257 5.361774 C 23.539257 3.092345 21.699521 1.252609 19.430092 1.252609 Z" transform="scale(3.600000,3.600000) translate(104.444447,64.444446)" opacity="1.000000"> fill="currentColor"</path>
        <path d="M 8.763604 72.163553 C 21.531251 49.921633 21.471273 21.413422 8.576282 2.822991 L 4.815423 9.256142 C 27.067121 11.347085 40.387955 21.047540 45.612630 38.632985 L 45.742051 35.922443 C 38.291031 54.351306 24.841259 64.254049 4.837552 66.024675 L 8.763604 72.163553 Z M 1.636112 68.072121 C -0.017676 70.953109 2.253188 74.503893 5.562164 74.210999 C 28.631799 72.168992 44.749871 60.301644 53.361197 39.002959 C 53.710033 38.140169 53.755663 37.184518 53.490618 36.292417 C 47.251918 15.293922 31.004908 3.462576 5.584294 1.073857 C 2.105326 0.746946 -0.168129 4.635812 1.823435 7.507008 C 12.831203 23.376670 12.884012 48.477681 1.636112 68.072121 Z" transform="scale(3.600000,3.600000) translate(41.111112,32.500001)" opacity="1.000000"> fill="currentColor"</path>
        <path d="M 15.277032 10.974750 C 15.277032 13.766115 13.174721 15.980297 10.644968 15.980297 C 8.115215 15.980297 6.012904 13.766115 6.012904 10.974750 C 6.012904 8.183386 8.115215 5.969204 10.644968 5.969204 C 13.174721 5.969204 15.277032 8.183386 15.277032 10.974750 Z M 20.050134 10.974750 C 20.050134 5.601030 15.867763 1.196102 10.644968 1.196102 C 5.422173 1.196102 1.239802 5.601030 1.239802 10.974750 C 1.239802 16.348471 5.422173 20.753399 10.644968 20.753399 C 15.867763 20.753399 20.050134 16.348471 20.050134 10.974750 Z" transform="scale(3.600000,3.600000) translate(90.000002,59.166668)" opacity="1.000000"> fill="currentColor"</path>
        <path d="M 34.922082 1.194435 L 5.277778 1.194435 C 3.008349 1.194435 1.168613 3.034171 1.168613 5.303600 C 1.168613 7.573029 3.008349 9.412765 5.277778 9.412765 L 34.922082 9.412765 C 37.191511 9.412765 39.031247 7.573029 39.031247 5.303600 C 39.031247 3.034171 37.191511 1.194435 34.922082 1.194435 Z" transform="scale(3.600000,3.600000) translate(11.388889,91.666669)" opacity="1.000000"> fill="currentColor"</path>
        <path d="M 8.859327 67.767510 C 22.852284 41.119313 23.243086 25.369915 8.665487 2.965747 L 1.783592 7.458000 C 14.595727 27.022473 14.280092 39.766685 1.583133 63.946783 L 8.859327 67.767510 Z M 1.583133 63.946783 C -0.964019 68.797579 6.312176 72.618306 8.859327 67.767510 C 22.851945 41.119958 23.245496 25.229780 8.658867 2.955607 C 5.661691 -1.621161 -1.206702 2.862279 1.776973 7.447859 C 14.595842 27.149052 14.282882 39.761371 1.583133 63.946783 Z" transform="scale(3.600000,3.600000) translate(26.666667,35.833334)" opacity="1.000000"> fill="currentColor"</path>
    </g>
</svg>