<?xml version="1.0" encoding="UTF-8" standalone="yes"?>
<!DOCTYPE svg PUBLIC "-//W3C//DTD SVG 1.1//EN" "http://www.w3.org/Graphics/SVG/1.1/DTD/svg11.dtd">

<svg width="500" height="500" viewBox="0 0 500 500" xmlns="http://www.w3.org/2000/svg" xmlns:xlink="http://www.w3.org/1999/xlink" version="1.1" baseProfile="full">
    <g transform="scale(1,-1) translate(0,-500)">
        <path d="M 36.769287 1.168613 L 5.277778 1.168613 C 3.008349 1.168613 1.168613 3.008349 1.168613 5.277778 C 1.168613 7.547207 3.008349 9.386943 5.277778 9.386943 L 36.769287 9.386943 C 39.038716 9.386943 40.878452 7.547207 40.878452 5.277778 C 40.878452 3.008349 39.038716 1.168613 36.769287 1.168613 Z" transform="scale(3.600000,3.600000) translate(11.388889,39.166668)" opacity="1.000000"> fill="currentColor"</path>
        <path d="M 19.430092 1.252609 L 5.112497 1.252609 C 2.843068 1.252609 1.003332 3.092345 1.003332 5.361774 C 1.003332 7.631204 2.843068 9.470940 5.112497 9.470940 L 19.430092 9.470940 C 21.699521 9.470940 23.539257 7.631204 23.539257 5.361774 C 23.539257 3.092345 21.699521 1.252609 19.430092 1.252609 Z" transform="scale(3.600000,3.600000) translate(104.444447,64.444446)" opacity="1.000000"> fill="currentColor"</path>
        <path d="M 8.379558 72.720672 C 26.788048 50.232322 26.700522 21.058680 8.121311 2.275301 L 4.929668 9.265272 C 37.530465 11.413524 57.203100 21.459712 64.662233 39.065700 L 64.885964 35.410248 C 54.190130 53.961594 34.380998 64.189437 4.945285 66.016565 L 8.379558 72.720672 Z M 2.020159 67.515002 C -0.252026 70.290770 1.874163 74.441343 5.454432 74.219109 C 37.441651 72.233604 59.796502 60.691357 72.005703 39.515155 C 72.649164 38.399107 72.731987 37.045891 72.229434 35.859702 C 63.341701 14.881750 40.850353 3.396137 5.470049 1.064726 C 1.696590 0.816072 -0.380968 5.366100 2.278406 8.054697 C 17.784722 23.731412 17.858032 48.166992 2.020159 67.515002 Z" transform="scale(3.600000,3.600000) translate(41.111112,32.500001)" opacity="1.000000"> fill="currentColor"</path>
        <path d="M 34.922082 1.194435 L 5.277778 1.194435 C 3.008349 1.194435 1.168613 3.034171 1.168613 5.303600 C 1.168613 7.573029 3.008349 9.412765 5.277778 9.412765 L 34.922082 9.412765 C 37.191511 9.412765 39.031247 7.573029 39.031247 5.303600 C 39.031247 3.034171 37.191511 1.194435 34.922082 1.194435 Z" transform="scale(3.600000,3.600000) translate(11.388889,91.666669)" opacity="1.000000"> fill="currentColor"</path>
        <path d="M 8.859327 67.767510 C 22.852284 41.119313 23.243086 25.369915 8.665487 2.965747 L 1.783592 7.458000 C 14.595727 27.022473 14.280092 39.766685 1.583133 63.946783 L 8.859327 67.767510 Z M 1.583133 63.946783 C -0.964019 68.797579 6.312176 72.618306 8.859327 67.767510 C 22.851945 41.119958 23.245496 25.229780 8.658867 2.955607 C 5.661691 -1.621161 -1.206702 2.862279 1.776973 7.447859 C 14.595842 27.149052 14.282882 39.761371 1.583133 63.946783 Z" transform="scale(3.600000,3.600000) translate(26.666667,35.833334)" opacity="1.000000"> fill="currentColor"</path>
    </g>
</svg>